<svg width="292" height="268" viewBox="0 0 292 268" fill="none" xmlns="http://www.w3.org/2000/svg">
<path fill-rule="evenodd" clip-rule="evenodd" d="M21.0191 94.8455C22.3871 94.8439 23.7248 95.2469 24.8629 96.0037C26.001 96.7604 26.8884 97.8367 27.4126 99.0965C27.9369 100.356 28.0745 101.743 27.808 103.081C27.5415 104.418 26.883 105.647 25.9156 106.612C24.9483 107.576 23.7158 108.233 22.374 108.498C21.0322 108.764 19.6415 108.627 18.378 108.104C17.1144 107.581 16.0348 106.697 15.2758 105.562C14.5169 104.427 14.1126 103.094 14.1142 101.73C14.1142 99.9039 14.8417 98.1529 16.1366 96.8618C17.4315 95.5708 19.1878 94.8455 21.0191 94.8455ZM5.59053 118.405C6.27533 118.403 6.94523 118.604 7.51542 118.982C8.08561 119.36 8.53047 119.899 8.79366 120.529C9.05686 121.159 9.12657 121.853 8.99397 122.523C8.86138 123.193 8.53243 123.809 8.04877 124.292C7.56512 124.775 6.9485 125.105 6.27696 125.239C5.60543 125.372 4.90919 125.304 4.27635 125.044C3.64351 124.783 3.10254 124.34 2.7219 123.773C2.34127 123.205 2.13809 122.538 2.13809 121.855C2.13809 120.941 2.50155 120.065 3.14877 119.418C3.79599 118.771 4.67413 118.407 5.59053 118.405ZM7.87837 80.7478C8.5612 80.7478 9.22869 80.9497 9.79644 81.3279C10.3642 81.7061 10.8067 82.2437 11.068 82.8727C11.3293 83.5016 11.3977 84.1937 11.2645 84.8614C11.1313 85.5291 10.8024 86.1424 10.3196 86.6238C9.83677 87.1052 9.22161 87.433 8.5519 87.5658C7.8822 87.6986 7.18804 87.6305 6.55719 87.37C5.92634 87.1094 5.38714 86.6683 5.00778 86.1022C4.62842 85.5362 4.42595 84.8707 4.42595 84.1899C4.42813 83.2777 4.79256 82.4034 5.43954 81.7584C6.08653 81.1133 6.9634 80.75 7.87837 80.7478ZM46.0368 62.4422C47.935 62.4422 49.7906 63.0034 51.3688 64.0548C52.9471 65.1062 54.1772 66.6007 54.9037 68.3491C55.6301 70.0975 55.8201 72.0215 55.4498 73.8776C55.0795 75.7338 54.1654 77.4387 52.8232 78.7769C51.481 80.1151 49.7709 81.0265 47.9092 81.3957C46.0474 81.7649 44.1177 81.5754 42.364 80.8511C40.6103 80.1269 39.1114 78.9005 38.0568 77.3269C37.0023 75.7534 36.4394 73.9034 36.4394 72.0109C36.4394 69.4731 37.4505 67.0393 39.2504 65.2448C41.0503 63.4503 43.4914 62.4422 46.0368 62.4422ZM16.6333 47.7928C17.981 47.7928 19.2984 48.1912 20.419 48.9377C21.5396 49.6842 22.4129 50.7452 22.9287 51.9866C23.4444 53.2279 23.5793 54.5939 23.3164 55.9117C23.0535 57.2296 22.4045 58.4401 21.4516 59.3902C20.4986 60.3403 19.2845 60.9873 17.9627 61.2494C16.6409 61.5115 15.2708 61.377 14.0257 60.8628C12.7806 60.3486 11.7164 59.4779 10.9677 58.3607C10.219 57.2435 9.81933 55.93 9.81933 54.5864C9.81825 53.6939 9.99375 52.81 10.3358 51.9853C10.6778 51.1606 11.1797 50.4112 11.8127 49.7802C12.4456 49.1491 13.1972 48.6487 14.0245 48.3077C14.8517 47.9667 15.7382 47.7917 16.6333 47.7928ZM22.4149 71.7144C22.7583 71.7128 23.0945 71.8128 23.3808 72.0018C23.6671 72.1909 23.8907 72.4604 24.0232 72.7762C24.1558 73.092 24.1913 73.44 24.1253 73.776C24.0593 74.112 23.8948 74.4209 23.6526 74.6635C23.4103 74.9062 23.1013 75.0717 22.7646 75.1391C22.4279 75.2065 22.0788 75.1727 21.7613 75.0421C21.4439 74.9115 21.1726 74.6898 20.9816 74.4053C20.7906 74.1207 20.6887 73.7861 20.6887 73.4437C20.6876 73.2149 20.7322 72.9882 20.82 72.7768C20.9078 72.5654 21.037 72.3736 21.2001 72.2126C21.3631 72.0516 21.5567 71.9246 21.7696 71.839C21.9824 71.7535 22.2102 71.7111 22.4397 71.7144H22.4149ZM255.999 118.215C256.9 117.635 257.899 117.222 258.948 116.997C260.666 116.626 267.546 113.439 263.003 110.87C263.003 110.87 270.734 103.895 269.264 98.6252C267.793 93.355 267.174 91.2799 268.438 88.2249C269.701 85.1698 290.788 63.2492 291.894 58.7202C293.001 54.1911 285.138 58.1026 281.083 62.014C277.027 65.9255 276.053 66.7901 275.681 62.3846C275.309 57.979 272.617 59.0907 272.245 63.208C271.874 67.3254 270.527 67.4901 269.908 63.0845C269.288 58.679 266.604 65.4149 266.604 67.6136C266.604 67.6136 265.25 66.1478 263.3 69.2029C261.351 72.2579 255.19 82.3042 255.041 82.6747C254.892 83.0453 250.862 84.264 250.862 84.264C250.862 84.264 239.439 87.8131 237.721 88.6695C236.003 89.5259 230.114 91.4858 228.148 92.7127L205.435 96.6489C208.623 64.6409 215.032 89.0648 218.262 42.4238C218.51 38.8747 216.048 38.3888 215.065 32.0235C214.083 25.6581 215.065 27.3709 214.57 25.6581C214.074 23.9453 212.232 24.1923 211.266 20.6432C210.3 17.0941 206.31 -3.23726 202.057 0.443626C202.057 0.443626 201.074 1.66235 201.19 6.20787C202.247 44.2931 191.468 61.3799 168.854 90.7941C156.82 106.44 144.299 114.675 142.333 115.77C140.367 116.865 132.513 116.865 123.915 119.805C115.317 122.744 98.9878 125.19 94.9407 124.581C90.8936 123.971 65.8346 117.359 60.6807 117.845C55.5269 118.331 49.1176 118.825 42.51 120.661C35.9025 122.497 25.8095 125.437 22.8609 127.644C19.9123 129.851 16.3525 135.969 10.4718 138.538C4.59113 141.108 -6.87292 147.35 5.56574 154.456C5.56574 154.456 10.2323 159.471 16.7407 158.615C19.1124 159.467 21.5871 160.001 24.0998 160.204C28.403 160.574 34.6636 163.638 41.5437 163.144C41.5437 163.144 60.4164 166.783 67.8168 170.612C71.1206 172.325 90.1668 183.953 99.6155 185.789C109.064 187.625 130.316 193.752 135.47 195.465C140.623 197.177 145.05 198.157 148.239 197.935C148.239 197.935 153.772 202.217 157.324 210.913C160.876 219.609 173.157 244.09 176.23 247.639C179.302 251.188 193.913 269.922 200.669 267.839C207.425 265.755 202.404 255.693 202.404 255.693C202.404 255.693 207.194 254.96 203.998 249.928C203.632 248.069 203.632 246.156 203.998 244.296C204.609 241.233 205.228 241.002 203.75 239.52C202.272 238.038 205.716 238.54 204.246 235.724C202.775 232.907 206.451 233.764 204.617 230.215C202.784 226.666 207.194 228.749 203.874 223.849C200.554 218.95 204.122 221.889 200.438 216.998C196.754 212.107 192.947 205 192.823 201.937C192.699 198.874 191.353 188.226 192.947 186.637C194.541 185.048 236.54 165.458 241.206 149.911C242.299 148.036 243.571 146.271 245.006 144.64C247.434 141.841 256.916 125.075 256.024 118.215H255.999Z" fill="#EFEFEF"/>
</svg>
