<svg width="14" height="16" viewBox="0 0 14 16" fill="none" xmlns="http://www.w3.org/2000/svg">
<path d="M9.20674 5.79688C8.99977 5.79688 8.83203 5.96462 8.83203 6.17158V13.2536C8.83203 13.4604 8.99977 13.6283 9.20674 13.6283C9.41371 13.6283 9.58145 13.4604 9.58145 13.2536V6.17158C9.58145 5.96462 9.41371 5.79688 9.20674 5.79688Z" fill="#0083C3"/>
<path d="M4.78486 5.79688C4.5779 5.79688 4.41016 5.96462 4.41016 6.17158V13.2536C4.41016 13.4604 4.5779 13.6283 4.78486 13.6283C4.99183 13.6283 5.15957 13.4604 5.15957 13.2536V6.17158C5.15957 5.96462 4.99183 5.79688 4.78486 5.79688Z" fill="#0083C3"/>
<path d="M1.56227 4.76335V13.9953C1.56227 14.541 1.76236 15.0534 2.11189 15.4211C2.45981 15.7898 2.944 15.9991 3.45073 16H10.5403C11.0472 15.9991 11.5314 15.7898 11.8791 15.4211C12.2287 15.0534 12.4288 14.541 12.4288 13.9953V4.76335C13.1236 4.57893 13.5738 3.90768 13.4809 3.19471C13.3878 2.48189 12.7805 1.94867 12.0615 1.94852H10.143V1.48014C10.1452 1.08626 9.9895 0.708039 9.71067 0.42979C9.43183 0.151688 9.05303 -0.0031709 8.65915 4.92333e-05H5.33188C4.93799 -0.0031709 4.55919 0.151688 4.28036 0.42979C4.00152 0.708039 3.84579 1.08626 3.84798 1.48014V1.94852H1.92951C1.21055 1.94867 0.60326 2.48189 0.510169 3.19471C0.417224 3.90768 0.867457 4.57893 1.56227 4.76335ZM10.5403 15.2506H3.45073C2.81007 15.2506 2.31169 14.7002 2.31169 13.9953V4.79629H11.6793V13.9953C11.6793 14.7002 11.181 15.2506 10.5403 15.2506ZM4.59739 1.48014C4.5949 1.28503 4.6716 1.09724 4.81007 0.959502C4.94839 0.821768 5.13662 0.746095 5.33188 0.749461H8.65915C8.85441 0.746095 9.04264 0.821768 9.18096 0.959502C9.31942 1.09709 9.39612 1.28503 9.39363 1.48014V1.94852H4.59739V1.48014ZM1.92951 2.69793H12.0615C12.434 2.69793 12.736 2.99989 12.736 3.3724C12.736 3.74492 12.434 4.04688 12.0615 4.04688H1.92951C1.557 4.04688 1.25504 3.74492 1.25504 3.3724C1.25504 2.99989 1.557 2.69793 1.92951 2.69793Z" fill="#0083C3"/>
<path d="M6.9958 5.79688C6.78883 5.79688 6.62109 5.96462 6.62109 6.17158V13.2536C6.62109 13.4604 6.78883 13.6283 6.9958 13.6283C7.20277 13.6283 7.37051 13.4604 7.37051 13.2536V6.17158C7.37051 5.96462 7.20277 5.79688 6.9958 5.79688Z" fill="#0083C3"/>
</svg>
