<svg width="33" height="24" viewBox="0 0 33 24" fill="none" xmlns="http://www.w3.org/2000/svg">
<path d="M7.70039 17.0466C5.88043 17.0466 4.40039 18.5267 4.40039 20.3466C4.40039 22.1666 5.88043 23.6466 7.70039 23.6466C9.52035 23.6466 11.0004 22.1666 11.0004 20.3466C11.0004 18.5267 9.52029 17.0466 7.70039 17.0466ZM7.70039 22.5466C6.48706 22.5466 5.50041 21.5599 5.50041 20.3466C5.50041 19.1333 6.48713 18.1467 7.70039 18.1467C8.91366 18.1467 9.90037 19.1334 9.90037 20.3466C9.90037 21.5599 8.91366 22.5466 7.70039 22.5466Z" fill="#008DD2"/>
<path d="M26.3996 17.0466C24.5796 17.0466 23.0996 18.5267 23.0996 20.3466C23.0996 22.1666 24.5796 23.6466 26.3996 23.6466C28.2196 23.6466 29.6996 22.1666 29.6996 20.3466C29.6996 18.5267 28.2196 17.0466 26.3996 17.0466ZM26.3996 22.5466C25.1863 22.5466 24.1996 21.5599 24.1996 20.3466C24.1996 19.1333 25.1863 18.1467 26.3996 18.1467C27.6129 18.1467 28.5996 19.1334 28.5996 20.3466C28.5996 21.5599 27.6129 22.5466 26.3996 22.5466Z" fill="#008DD2"/>
<path d="M32.9129 14.0023L27.9629 6.30227C27.8617 6.14494 27.6874 6.0498 27.5003 6.0498H21.4504C21.1462 6.0498 20.9004 6.29621 20.9004 6.59978V20.3498C20.9004 20.6539 21.1462 20.8997 21.4504 20.8997H23.6503V19.7997H22.0003V7.14983H27.2L31.9003 14.4615V19.7998H29.1503V20.8998H32.4503C32.7545 20.8998 33.0003 20.654 33.0003 20.3498V14.2998C33.0004 14.1947 32.9701 14.0908 32.9129 14.0023Z" fill="#008DD2"/>
<path d="M24.1996 13.1956V9.34563H28.5996V8.24561H23.6496C23.3454 8.24561 23.0996 8.49201 23.0996 8.79558V13.7456C23.0996 14.0497 23.3454 14.2956 23.6496 14.2956H31.8996V13.1955H24.1996V13.1956Z" fill="#008DD2"/>
<path d="M21.45 2.20312H0.549978C0.246404 2.20312 0 2.44953 0 2.7531V20.3531C0 20.6573 0.246404 20.9031 0.549978 20.9031H4.95V19.8031H1.10002V3.30308H20.9V19.8031H10.45V20.9031H21.45C21.7542 20.9031 22 20.6573 22 20.3531V2.7531C22 2.44953 21.7542 2.20312 21.45 2.20312Z" fill="#008DD2"/>
<path d="M3.8498 17.5979H0.549805V18.6979H3.8498V17.5979Z" fill="#008DD2"/>
<path d="M20.8998 17.5979H11.5498V18.6979H20.8998V17.5979Z" fill="#008DD2"/>
<path d="M32.45 17.5979H30.25V18.6979H32.45V17.5979Z" fill="#008DD2"/>
<path d="M21.4502 4.39771H2.2002V5.49773H21.4502V4.39771Z" fill="#008DD2"/>
<path d="M8.24944 19.8018H7.14941V20.9018H8.24944V19.8018Z" fill="#008DD2"/>
<path d="M26.9506 19.8018H25.8506V20.9018H26.9506V19.8018Z" fill="#008DD2"/>
<path d="M9.90022 0H2.2002V1.10002H9.90022V0Z" fill="#008DD2"/>
<path d="M1.10002 0H0V1.10002H1.10002V0Z" fill="#008DD2"/>
</svg>
