<svg width="26" height="29" viewBox="0 0 26 29" fill="none" xmlns="http://www.w3.org/2000/svg">
<path d="M20.3 27.0667H19.3333V28.0333H0.966667V0.966667H15.95V4.35H19.3333V11.6H20.3V3.67338L16.6266 0H0V29H20.3V27.0667ZM16.9167 1.64329L18.6567 3.38333H16.9167V1.64329Z" fill="#008DD2"/>
<path d="M6.76562 2.41797H13.5323V3.38464H6.76562V2.41797Z" fill="#008DD2"/>
<path d="M8.2168 6.2832H17.8835V7.24987H8.2168V6.2832Z" fill="#008DD2"/>
<path d="M8.2168 8.2168H17.8835V9.18346H8.2168V8.2168Z" fill="#008DD2"/>
<path d="M7.24935 7.73307H6.28268V8.69974C6.28268 8.98979 6.0894 9.18307 5.79935 9.18307H3.86602C3.57597 9.18307 3.38268 8.98979 3.38268 8.69974V6.76641C3.38268 6.47636 3.57597 6.28307 3.86602 6.28307H4.83268V5.31641H3.86602C3.04425 5.31641 2.41602 5.94465 2.41602 6.76641V8.69974C2.41602 9.5215 3.04425 10.1497 3.86602 10.1497H5.79935C6.62111 10.1497 7.24935 9.5215 7.24935 8.69974V7.73307Z" fill="#008DD2"/>
<path d="M4.01953 7.86189L6.44611 5.43555L7.12957 6.11901L4.70299 8.54559L4.01953 7.86189Z" fill="#008DD2"/>
<path d="M8.2168 13.5332H12.0835V14.4999H8.2168V13.5332Z" fill="#008DD2"/>
<path d="M8.2168 15.4668H11.1168V16.4335H8.2168V15.4668Z" fill="#008DD2"/>
<path d="M7.24935 14.9831H6.28268V15.9497C6.28268 16.2398 6.0894 16.4331 5.79935 16.4331H3.86602C3.57597 16.4331 3.38268 16.2398 3.38268 15.9497V14.0164C3.38268 13.7264 3.57597 13.5331 3.86602 13.5331H4.83268V12.5664H3.86602C3.04425 12.5664 2.41602 13.1946 2.41602 14.0164V15.9497C2.41602 16.7715 3.04425 17.3997 3.86602 17.3997H5.79935C6.62111 17.3997 7.24935 16.7715 7.24935 15.9497V14.9831Z" fill="#008DD2"/>
<path d="M4.01953 15.1121L6.44587 12.6855L7.12957 13.3692L4.70299 15.7956L4.01953 15.1121Z" fill="#008DD2"/>
<path d="M8.2168 20.7832H10.6335V21.7499H8.2168V20.7832Z" fill="#008DD2"/>
<path d="M8.2168 22.7168H11.1168V23.6835H8.2168V22.7168Z" fill="#008DD2"/>
<path d="M2.41602 21.2664V23.1997C2.41602 24.0215 3.04425 24.6497 3.86602 24.6497H5.79935C6.62111 24.6497 7.24935 24.0215 7.24935 23.1997V22.2331H6.28268V23.1997C6.28268 23.4898 6.0894 23.6831 5.79935 23.6831H3.86602C3.57597 23.6831 3.38268 23.4898 3.38268 23.1997V21.2664C3.38268 20.9764 3.57597 20.7831 3.86602 20.7831H4.83268V19.8164H3.86602C3.04425 19.8164 2.41602 20.4446 2.41602 21.2664Z" fill="#008DD2"/>
<path d="M4.01953 22.3621L6.44587 19.9355L7.12957 20.619L4.70299 23.0456L4.01953 22.3621Z" fill="#008DD2"/>
<path d="M18.8487 12.5664C15.1269 12.5664 12.082 15.6113 12.082 19.3331C12.082 23.0548 15.1269 26.0997 18.8487 26.0997C22.5705 26.0997 25.6154 23.0548 25.6154 19.3331C25.6154 15.6113 22.5705 12.5664 18.8487 12.5664ZM18.8487 25.1331C17.2054 25.1331 15.6587 24.4565 14.5471 23.1997L15.707 20.8798C15.7554 20.7347 15.9003 20.6382 16.0455 20.6382L18.0753 20.1548L17.4471 18.3664C17.4471 18.318 17.3987 18.2696 17.3987 18.2215V16.4331C17.3987 16.143 17.592 15.9497 17.882 15.9497H19.8154C20.1054 15.9497 20.2987 16.143 20.2987 16.4331V18.2215C20.2987 18.2696 20.2987 18.318 20.2503 18.3664L19.6705 20.1548L21.7003 20.6382C21.8455 20.6863 21.942 20.7831 22.0387 20.8798L23.1987 23.1997C22.0387 24.4565 20.492 25.1331 18.8487 25.1331ZM23.7788 22.3298L22.8603 20.4446C22.667 20.0581 22.3288 19.768 21.8936 19.6715L20.8788 19.4298L21.1686 18.6081C21.217 18.4632 21.2654 18.318 21.2654 18.1247V16.4331C21.2654 15.6113 20.6371 14.9831 19.8154 14.9831H17.882C17.0603 14.9831 16.432 15.6113 16.432 16.4331V18.2215C16.432 18.3664 16.4804 18.5113 16.5288 18.6565L16.8186 19.478L15.8038 19.7196C15.3686 19.8164 15.0304 20.1065 14.8371 20.493L13.9186 22.378C12.2269 19.6231 13.0971 16.0946 15.8519 14.403C18.607 12.7113 22.1353 13.5815 23.8269 16.3363C24.9387 18.1247 24.9387 20.493 23.7788 22.3298Z" fill="#008DD2"/>
</svg>
