<svg width="21" height="33" viewBox="0 0 21 33" fill="none" xmlns="http://www.w3.org/2000/svg">
<path d="M17.182 10.5636C17.182 6.86954 14.1837 3.81812 10.5002 3.81812C6.82142 3.81812 3.81836 6.86528 3.81836 10.5636C3.81836 14.2479 6.81582 17.2454 10.5002 17.2454C14.1845 17.2454 17.182 14.2479 17.182 10.5636ZM5.72745 10.5636C5.72745 7.89676 7.8685 5.72721 10.5002 5.72721C13.1319 5.72721 15.2729 7.89676 15.2729 10.5636C15.2729 13.1953 13.1319 15.3363 10.5002 15.3363C7.8685 15.3363 5.72745 13.1953 5.72745 10.5636Z" fill="#008DD2"/>
<path d="M21 10.5636C21 4.77196 16.2985 0 10.5 0C5.02632 0 0 4.37296 0 10.5636C0 14.4234 3.77911 20.2562 6.02293 23.4611C3.52857 23.9625 0 25.257 0 27.8091C0 31.4586 6.7977 32.5818 10.5 32.5818C14.2026 32.5818 21 31.4586 21 27.8091C21 25.2569 17.4711 23.9624 14.9771 23.4611C17.2094 20.2726 21 14.4279 21 10.5636ZM1.90909 10.5636C1.90909 5.21799 6.36841 1.90909 10.5 1.90909C15.237 1.90909 19.0909 5.79148 19.0909 10.5636C19.0909 14.6061 13.4424 22.5745 10.4999 26.291C7.5572 22.5753 1.90909 14.6086 1.90909 10.5636ZM19.0909 27.8091C19.0909 29.4039 14.4161 30.6727 10.5 30.6727C6.5891 30.6727 1.90909 29.4029 1.90909 27.8091C1.90909 27.0493 3.61429 25.7323 7.25964 25.1821C8.65187 27.0713 9.69977 28.3394 9.76506 28.4182C9.94636 28.637 10.2158 28.7636 10.5 28.7636C10.7842 28.7636 11.0536 28.637 11.2349 28.4182C11.3002 28.3394 12.3481 27.0713 13.7404 25.1821C17.3857 25.7323 19.0909 27.0493 19.0909 27.8091Z" fill="#008DD2"/>
</svg>
