<svg width="19" height="20" viewBox="0 0 19 20" fill="none" xmlns="http://www.w3.org/2000/svg">
    <path d="M18.6833 6.83333H17.1V4.61667C17.1 4.44179 16.9582 4.3 16.7833 4.3H15.8333V0.816667C15.8333 0.641787 15.6915 0.5 15.5167 0.5H3.48333C3.30845 0.5 3.16667 0.641787 3.16667 0.816667V4.3H2.21667C2.04179 4.3 1.9 4.44179 1.9 4.61667V6.83333H0.316667C0.141787 6.83333 0 6.97512 0 7.15V16.0167C0 16.1915 0.141787 16.3333 0.316667 16.3333H3.16667V19.1833C3.16667 19.3582 3.30845 19.5 3.48333 19.5H15.5167C15.6915 19.5 15.8333 19.3582 15.8333 19.1833V16.3333H18.6833C18.8582 16.3333 19 16.1915 19 16.0167V7.15C19 6.97512 18.8582 6.83333 18.6833 6.83333ZM15.8333 4.93333H16.4667V6.83333H15.8333V4.93333ZM3.8 1.13333H15.2V6.83333H3.8V1.13333ZM2.53333 4.93333H3.16667V6.83333H2.53333V4.93333ZM3.16667 14.4333H2.85V13.4833H3.16667V14.4333ZM15.2 18.8667H3.8V13.4833H15.2V18.8667ZM18.3667 15.7H15.8333V15.0667H16.4667C16.6415 15.0667 16.7833 14.9249 16.7833 14.75V13.1667C16.7833 12.9918 16.6415 12.85 16.4667 12.85H2.53333C2.35845 12.85 2.21667 12.9918 2.21667 13.1667V14.75C2.21667 14.9249 2.35845 15.0667 2.53333 15.0667H3.16667V15.7H0.633333V7.46667H18.3667V15.7ZM15.8333 14.4333V13.4833H16.15V14.4333H15.8333Z" fill="#0083C3"/>
    <path d="M14.1996 14.2012H7.59961V14.8012H14.1996V14.2012Z" fill="#0083C3"/>
    <path d="M14.1998 15.4004H5.7998V16.0004H14.1998V15.4004Z" fill="#0083C3"/>
    <path d="M12.3998 16.6016H5.7998V17.2016H12.3998V16.6016Z" fill="#0083C3"/>
    <path d="M6.9998 14.2012H5.7998V14.8012H6.9998V14.2012Z" fill="#0083C3"/>
    <path d="M4.9002 8.19922H2.5002C2.33452 8.19922 2.2002 8.33354 2.2002 8.49922V9.69922C2.2002 9.86489 2.33452 9.99922 2.5002 9.99922H4.9002C5.06587 9.99922 5.2002 9.86489 5.2002 9.69922V8.49922C5.2002 8.33354 5.06587 8.19922 4.9002 8.19922ZM4.6002 9.39922H2.8002V8.79922H4.6002V9.39922Z" fill="#0083C3"/>
    <path d="M8.7998 9.40039H5.7998V10.0004H8.7998V9.40039Z" fill="#0083C3"/>
    <path d="M10.0004 9.40039H9.40039V10.0004H10.0004V9.40039Z" fill="#0083C3"/>
</svg>
