<svg width="29" height="27" viewBox="0 0 29 27" fill="none" xmlns="http://www.w3.org/2000/svg">
<path d="M26.3477 6.1565H25.9869V2.65234C25.9869 1.18988 24.7971 0 23.3345 0H4.09701C1.97414 0 0.223822 1.62375 0.0217703 3.69443C-0.00908682 3.84074 0.00190104 2.537 0.00190104 22.7304C0.00190104 24.9884 1.83892 26.8254 4.09696 26.8254H26.3477C27.8102 26.8254 29 25.6356 29 24.1731V8.80885C29.0001 7.34638 27.8102 6.1565 26.3477 6.1565ZM4.09701 1.82188H23.3345C23.7925 1.82188 24.1651 2.19444 24.1651 2.6524V6.15656H4.09701C2.87907 6.15656 1.88202 5.19367 1.82646 3.98922C1.88196 2.78471 2.87901 1.82188 4.09701 1.82188ZM26.3477 25.0036H4.09701C2.84354 25.0036 1.82378 23.9838 1.82378 22.7304V7.28797C2.47457 7.72389 3.25658 7.97832 4.09701 7.97832H26.3477C26.8057 7.97832 27.1782 8.35089 27.1782 8.80885V12.5018H20.3232C17.9886 12.5018 16.0892 14.4011 16.0892 16.7357C16.0892 19.0703 17.9886 20.9696 20.3232 20.9696H27.1782V24.1731C27.1782 24.631 26.8057 25.0036 26.3477 25.0036ZM27.1782 19.1479H20.3232C18.9931 19.1479 17.911 18.0658 17.911 16.7358C17.911 15.4057 18.9931 14.3237 20.3232 14.3237H27.1782V19.1479Z" fill="#008DD2"/>
<path d="M20.66 18.0556C21.3891 18.0556 21.9801 17.4645 21.9801 16.7354C21.9801 16.0063 21.3891 15.4153 20.66 15.4153C19.9309 15.4153 19.3398 16.0063 19.3398 16.7354C19.3398 17.4645 19.9309 18.0556 20.66 18.0556Z" fill="#008DD2"/>
</svg>
