<svg width="44" height="44" viewBox="0 0 44 44" fill="none" xmlns="http://www.w3.org/2000/svg">
<path d="M20.7302 32.4716C20.3993 32.2288 19.9336 32.2997 19.6904 32.6308L19.5985 32.7558C19.3556 33.0867 19.4263 33.5517 19.7568 33.7952C19.8896 33.8931 20.0443 33.9403 20.1975 33.9403C20.4255 33.9403 20.6506 33.8358 20.7963 33.6383L20.8896 33.5116C21.1327 33.1805 21.0614 32.7149 20.7302 32.4716Z" fill="#0083C3"/>
<path d="M20.9246 39.549L19.0114 36.0701L20.7977 33.6372C21.041 33.3061 20.9696 32.8405 20.6384 32.5973C20.3072 32.354 19.8416 32.4254 19.5985 32.7567L17.531 35.5724C17.3596 35.8059 17.3393 36.1175 17.4788 36.3712L19.621 40.266V40.2659C19.7566 40.5122 20.011 40.6515 20.2736 40.6515C20.3948 40.6514 20.5177 40.6217 20.6314 40.5592C20.9913 40.3613 21.1226 39.909 20.9246 39.549Z" fill="#0083C3"/>
<path d="M26.4691 35.5728L24.41 32.7684C24.2393 32.536 23.9499 32.423 23.6668 32.479C23.3838 32.5346 23.1586 32.7489 23.0886 33.0287C23.0349 33.2435 23.0797 33.4709 23.2108 33.6494L24.9883 36.0704L23.0881 39.5257C23.0278 39.6355 22.9961 39.7592 22.9961 39.8846C22.9961 40.2242 23.2261 40.5206 23.5549 40.6051C23.6166 40.621 23.6787 40.6287 23.7401 40.6287C24.0064 40.6287 24.2588 40.485 24.3919 40.2432L26.5213 36.3717C26.6609 36.1178 26.6405 35.8062 26.4691 35.5728Z" fill="#0083C3"/>
<path d="M27.6477 23.8817C27.403 23.7533 27.1072 23.7708 26.8795 23.9277C26.4371 24.2325 26.0264 24.5555 25.6591 24.8875C23.6571 26.6973 21.7551 26.4524 21.6806 26.4417C21.6357 26.4347 21.5901 26.4314 21.545 26.4329C20.7537 26.4532 19.3272 25.7302 17.818 24.5449C17.5872 24.3637 17.3505 24.191 17.1142 24.0315C16.8863 23.8775 16.5918 23.8619 16.3489 23.9911C16.106 24.1201 15.9541 24.3728 15.9541 24.648V27.2C15.9541 27.4257 16.0568 27.6389 16.2328 27.7802C16.2536 27.797 16.2753 27.8125 16.2976 27.8267L21.5725 31.3515C21.5734 31.3521 21.5742 31.3527 21.575 31.3534L21.589 31.3626C21.7131 31.4448 21.8562 31.4863 21.9998 31.4863C22.1207 31.4863 22.2415 31.457 22.3519 31.398C22.3752 31.3855 22.3975 31.3718 22.419 31.3572C22.4215 31.3556 22.424 31.354 22.4266 31.3522C22.4295 31.3503 22.4324 31.3484 22.4354 31.3464L27.6978 27.8299C27.719 27.8165 27.7396 27.8021 27.7595 27.7866C27.94 27.6456 28.0456 27.4293 28.0456 27.2002V24.5404C28.0456 24.2638 27.8924 24.0104 27.6477 23.8817ZM26.5576 26.8021L21.9997 29.8477L17.4419 26.802V26.1254C18.5517 26.9319 20.1843 27.9212 21.5151 27.9211C21.5178 27.9211 21.5209 27.9211 21.5237 27.9211C21.9705 27.9705 24.249 28.1048 26.5578 26.0794V26.8021H26.5576Z" fill="#0083C3"/>
<path d="M22.7336 30.6196C22.6845 30.3246 22.4634 30.0877 22.1724 30.0182C21.8812 29.9492 21.5772 30.0605 21.4002 30.3016L19.6903 32.6306C19.4471 32.9619 19.5184 33.4275 19.8497 33.6706C19.9823 33.768 20.1364 33.815 20.2893 33.815C20.5181 33.815 20.7438 33.7097 20.8897 33.5111L22.5907 31.1944C22.6874 31.0679 22.7438 30.9104 22.7438 30.7422C22.7437 30.7013 22.7403 30.66 22.7336 30.6196Z" fill="#0083C3"/>
<path d="M33.3334 6.63715C33.3186 6.52062 32.9702 4.00556 30.6027 3.01341C30.6715 2.57169 30.6643 2.00398 30.3839 1.45166C30.0069 0.70933 29.2631 0.225587 28.173 0.0136641C28.1263 0.00455471 28.0788 0 28.0311 0H18.0463C13.9919 0 10.6934 3.29846 10.6934 7.35301V11.271C10.6934 12.2918 11.0413 13.2872 11.673 14.0737C11.9861 14.4637 12.3718 15.1447 12.43 16.1744C12.4527 16.5765 12.7892 16.8871 13.1937 16.8759C13.5963 16.8646 13.9166 16.5349 13.9166 16.1323V11.0242C14.4218 8.93513 16.1458 8.52855 16.4422 8.47364H19.6719C20.0518 8.47364 20.4254 8.41563 20.7825 8.30116C21.3966 8.10419 22.3708 7.74171 23.0802 7.47229C23.5547 7.29191 24.0801 7.28529 24.5594 7.45373L28.017 8.66751C29.7456 9.30517 30.0541 10.8227 30.0924 11.0611V17.1916C30.0924 17.581 30.3925 17.904 30.7808 17.933C30.7997 17.9344 30.8183 17.9351 30.8368 17.9351C31.2017 17.935 31.5168 17.6677 31.572 17.3013C31.575 17.2822 31.872 15.3634 32.8298 13.8272C33.1631 13.2924 33.3393 12.6827 33.3393 12.0639V6.73108C33.3393 6.69971 33.3374 6.66834 33.3334 6.63715ZM31.8514 12.0636C31.8514 12.3959 31.7577 12.7256 31.5801 13.0187V11.0102C31.5801 10.9833 31.5787 10.9566 31.5757 10.9298C31.564 10.8218 31.2566 8.27237 28.5251 7.26896C28.5218 7.26776 28.5184 7.26656 28.5151 7.26535L25.0522 6.04968C24.6618 5.91261 24.2533 5.8442 23.8451 5.8442C23.4061 5.8442 22.9674 5.92335 22.5517 6.08147C21.5586 6.45874 20.7896 6.73641 20.328 6.88439C20.1181 6.95168 19.8973 6.98588 19.6718 6.98588H16.382C16.3501 6.98588 16.3182 6.98795 16.2864 6.99199C16.1606 7.00831 13.1934 7.43027 12.4467 10.7771C12.4348 10.8303 12.4288 10.8846 12.4288 10.9391V12.4702C12.2668 12.0958 12.181 11.6869 12.181 11.2711V7.35318C12.181 4.11917 14.8122 1.48801 18.0461 1.48801H27.956C28.3663 1.57541 28.8649 1.75476 29.0541 2.11966C29.2857 2.56627 29.0218 3.18125 29.0216 3.18176C28.9264 3.38414 28.9276 3.6185 29.0242 3.82002C29.121 4.02155 29.3034 4.16884 29.5208 4.22118C31.4147 4.67708 31.801 6.49355 31.8513 6.78737V12.0636H31.8514Z" fill="#0083C3"/>
<path d="M31.5757 10.9305C31.564 10.8225 31.2567 8.27309 28.5251 7.26968C28.5218 7.26848 28.5184 7.26728 28.5151 7.26607L25.0522 6.0504C24.2418 5.76594 23.3539 5.77729 22.5517 6.08202C21.5586 6.45929 20.7895 6.73696 20.3279 6.88503C20.118 6.95232 19.8972 6.98643 19.6717 6.98643H16.3819C16.3501 6.98643 16.3181 6.9885 16.2864 6.99253C16.1605 7.00886 13.1933 7.43082 12.4466 10.7777C12.4347 10.8309 12.4287 10.8852 12.4287 10.9397V17.3348C12.4287 17.3403 12.4288 17.3458 12.4289 17.3513C12.4338 17.5735 12.591 22.8197 16.2158 25.219L16.2346 25.2322C16.2501 25.2432 16.2657 25.2542 16.2819 25.2651C16.4886 25.4047 16.6961 25.5562 16.8991 25.7155C17.9551 26.5448 19.9452 27.9216 21.5151 27.9216C21.518 27.9216 21.5208 27.9216 21.5238 27.9216C21.609 27.9309 21.7612 27.9435 21.9676 27.9435C22.8573 27.9435 24.7555 27.7103 26.6568 25.9916C26.9759 25.7033 27.3347 25.4212 27.7237 25.1533L27.7793 25.1143C27.7974 25.1015 27.8155 25.0886 27.8343 25.0761C29.0434 24.264 31.1375 22.1685 31.5772 17.2585C31.5792 17.2365 31.5802 17.2142 31.5802 17.1921V11.0109C31.5801 10.9841 31.5786 10.9574 31.5757 10.9305ZM30.0922 17.1585C29.6868 21.5896 27.7989 23.3074 27.0046 23.8408C26.9764 23.8598 26.9486 23.8794 26.9207 23.899L26.8795 23.928C26.437 24.2329 26.0264 24.5558 25.6591 24.8878C23.6646 26.6909 21.7687 26.4544 21.6757 26.4414C21.6325 26.4349 21.5886 26.4322 21.5449 26.4334C20.7537 26.4537 19.3271 25.7307 17.818 24.5454C17.5871 24.3641 17.3505 24.1914 17.1145 24.0321L17.0962 24.0192C17.0783 24.0065 17.0605 23.9939 17.0395 23.9799C14.1144 22.0439 13.923 17.5131 13.9166 17.3241V11.0248C14.4235 8.92811 16.1582 8.52618 16.4409 8.47427H19.6718C20.0517 8.47427 20.4253 8.41627 20.7824 8.3018C21.3965 8.10483 22.3709 7.74234 23.0801 7.47293C23.5546 7.29254 24.0801 7.28593 24.5593 7.45436L28.017 8.66815C29.7455 9.30581 30.054 10.8233 30.0923 11.0617V17.1585H30.0922Z" fill="#0083C3"/>
<path d="M22.665 30.4092C22.5491 30.1774 22.3209 30.0226 22.0626 30.0006C21.8048 29.9793 21.5534 30.0926 21.4 30.3016L19.6179 32.7287C19.375 33.0597 19.446 33.525 19.7768 33.7683C19.9094 33.8659 20.0639 33.9131 20.2169 33.9131C20.4452 33.9131 20.6705 33.8083 20.8163 33.6104L22.5984 31.1923C22.6927 31.0644 22.7436 30.901 22.7436 30.7422C22.7437 30.6267 22.7166 30.5126 22.665 30.4092Z" fill="#0083C3"/>
<path d="M22.7133 42.3863C22.4338 42.094 21.9721 42.0785 21.6737 42.3515L21.5036 42.507C21.249 42.7399 21.1879 43.1173 21.3561 43.4186L21.3614 43.428C21.475 43.6315 21.6776 43.7701 21.9086 43.8021C21.9428 43.8069 21.977 43.8092 22.011 43.8092C22.2068 43.8092 22.3965 43.7317 22.537 43.5912L22.7018 43.4263C22.9877 43.1404 22.9928 42.6784 22.7133 42.3863Z" fill="#0083C3"/>
<path d="M22.4971 42.5089L22.3271 42.3534C22.0287 42.0804 21.5669 42.096 21.2874 42.3882C21.0078 42.6806 21.013 43.1426 21.299 43.4285L21.464 43.5934C21.6045 43.7339 21.7941 43.8112 21.9899 43.8112C22.0249 43.8112 22.0601 43.8088 22.0952 43.8038C22.3269 43.7707 22.5295 43.6303 22.6422 43.4251L22.6474 43.4158C22.8123 43.115 22.7502 42.7404 22.4971 42.5089Z" fill="#0083C3"/>
<path d="M22.509 42.5196L22.5081 42.5187C22.3932 42.4113 22.2446 42.3405 22.0809 42.3225C21.8616 42.2986 21.6481 42.3729 21.4928 42.5175L21.4906 42.5196C21.3402 42.6567 21.2526 42.8497 21.2482 43.0532C21.2438 43.2568 21.3231 43.4532 21.4674 43.5967L21.4752 43.6045C21.6203 43.7488 21.81 43.8209 21.9997 43.8209C22.1902 43.8209 22.3805 43.7482 22.5257 43.6032L22.5335 43.5954C22.6772 43.4516 22.7559 43.2554 22.7512 43.0522C22.7467 42.849 22.6591 42.6566 22.509 42.5196Z" fill="#0083C3"/>
<path d="M22.2413 30.0234C21.9332 29.9247 21.5951 30.0391 21.4075 30.3029C21.1977 30.5984 21.2323 31.001 21.488 31.2579C21.6318 31.4024 21.8228 31.4765 22.0152 31.4765C22.1646 31.4765 22.3149 31.4318 22.4444 31.3405C22.6424 31.2012 22.7603 30.9744 22.7603 30.7322V30.7304C22.7603 30.4067 22.5497 30.1218 22.2413 30.0234Z" fill="#0083C3"/>
<path d="M22.6043 30.2944L22.5979 30.2858C22.4071 30.0275 22.0719 29.9211 21.7669 30.0216C21.4619 30.122 21.2559 30.407 21.2559 30.728V30.7408C21.2559 31.0146 21.4096 31.2643 21.6509 31.3939C21.7602 31.4526 21.8809 31.4815 22.0014 31.4815C22.1467 31.4815 22.2918 31.4394 22.4166 31.3568C22.5867 31.2442 22.7031 31.0666 22.7386 30.8658C22.7741 30.6651 22.7256 30.4584 22.6043 30.2944Z" fill="#0083C3"/>
<path d="M30.8495 27.9596C30.7724 27.7558 30.6099 27.5962 30.4049 27.5228L27.5525 26.5003C27.5294 26.492 27.5054 26.4847 27.4815 26.4788C27.2779 26.4279 27.0622 26.4652 26.8878 26.5819L21.6028 30.1135C21.6014 30.1144 21.5999 30.1154 21.5984 30.1164L22.0134 30.7334L21.5891 30.1227C21.4341 30.2252 21.3231 30.3824 21.278 30.5627C21.2533 30.6617 21.2492 30.765 21.266 30.8657C21.2852 30.9807 21.331 31.0896 21.4001 31.1837L25.2695 36.4535C25.4101 36.6452 25.6332 36.7572 25.869 36.7572C25.8851 36.7572 25.9014 36.7566 25.9176 36.7555C26.1711 36.7388 26.3985 36.5943 26.5209 36.3716L30.8055 28.5815C30.9106 28.3906 30.9267 28.1632 30.8495 27.9596ZM25.7789 34.6335L23.0594 30.9295L27.4029 28.0272L29.0815 28.629L25.7789 34.6335Z" fill="#0083C3"/>
<path d="M22.7334 30.6147C22.6984 30.4149 22.5835 30.2382 22.4151 30.1252L17.1124 26.5819C16.9437 26.4689 16.7356 26.4303 16.5374 26.4743C16.5069 26.481 16.477 26.4897 16.4477 26.5002L13.5954 27.5227C13.3903 27.5962 13.2278 27.7559 13.1507 27.9595C13.0736 28.1633 13.0896 28.3905 13.1946 28.5815L17.4792 36.3716C17.6016 36.5941 17.8291 36.7388 18.0825 36.7554C18.0987 36.7565 18.1149 36.757 18.1311 36.757C18.3669 36.757 18.5899 36.6449 18.7307 36.4532L20.7982 33.6374C20.7999 33.6353 20.8015 33.633 20.8031 33.6307L22.6002 31.1831C22.7201 31.0196 22.7683 30.8144 22.7334 30.6147ZM19.5991 32.7566C19.5973 32.759 19.5955 32.7614 19.5937 32.7638L18.221 34.6334L14.9185 28.6288L16.5972 28.0271L20.9405 30.9295L19.5991 32.7566Z" fill="#0083C3"/>
<path d="M43.9632 40.6596L43.0036 34.8645C42.7011 33.0383 41.4319 31.5124 39.6912 30.8828L30.407 27.5239C30.1207 27.4204 29.8008 27.5015 29.5985 27.7286C29.3962 27.9557 29.3524 28.2831 29.4882 28.5555L31.4266 32.4428L29.5246 32.4721C29.2663 32.4761 29.0285 32.6136 28.8966 32.8357C28.7646 33.0578 28.7572 33.3322 28.877 33.5611L29.6572 35.0507L21.6733 42.3543C21.6651 42.3617 21.6571 42.3693 21.6493 42.3771L21.4845 42.5419C21.251 42.7755 21.1993 43.1351 21.3579 43.4249L21.3637 43.4354C21.4943 43.6739 21.7445 43.8223 22.0164 43.8223H41.2812C42.0815 43.8223 42.8373 43.4723 43.3547 42.862C43.8722 42.2516 44.094 41.4488 43.9632 40.6596ZM42.2201 41.8997C41.9857 42.1761 41.6435 42.3346 41.2813 42.3346H23.899L31.0843 35.7617C31.3335 35.5339 31.398 35.1668 31.2412 34.8677L30.7559 33.941L32.6315 33.9122C32.8872 33.9083 33.1228 33.7733 33.2557 33.5549C33.3885 33.3364 33.3999 33.0652 33.2859 32.8363L31.6499 29.5555L39.1854 32.2817C40.4208 32.7286 41.3215 33.8114 41.5361 35.1075L42.4957 40.9025C42.4957 40.9026 42.4957 40.9026 42.4957 40.9026C42.5549 41.26 42.4545 41.6234 42.2201 41.8997Z" fill="#0083C3"/>
<path d="M22.5154 42.5261L22.5067 42.5183C22.2123 42.2517 21.7601 42.2636 21.4799 42.5453L21.4722 42.5531C21.2604 42.7662 21.1976 43.0859 21.3129 43.3633C21.4283 43.6408 21.6993 43.8215 21.9998 43.8215H22.0161C22.3237 43.8215 22.5996 43.6321 22.7101 43.3452C22.8209 43.0581 22.7435 42.7325 22.5154 42.5261Z" fill="#0083C3"/>
<path d="M22.4919 42.503C22.323 42.351 22.094 42.2844 21.8697 42.3226C21.6457 42.3605 21.4513 42.4989 21.342 42.6981L21.3368 42.7075C21.18 42.9934 21.2277 43.3482 21.4545 43.5826L21.4571 43.5854C21.6029 43.736 21.7971 43.812 21.9918 43.812C22.171 43.812 22.3507 43.7475 22.493 43.6175L22.5008 43.6105C22.5684 43.5489 22.6241 43.4752 22.665 43.3934C22.8148 43.0941 22.7407 42.7268 22.4919 42.503Z" fill="#0083C3"/>
<path d="M22.5245 42.5511L22.5214 42.5479C22.5194 42.5459 22.5174 42.5438 22.5155 42.5419L22.3505 42.3771C22.3427 42.3693 22.3347 42.3617 22.3267 42.3543L14.3428 35.0507L15.123 33.5612C15.2429 33.3324 15.2354 33.0579 15.1035 32.8358C14.9715 32.6138 14.7338 32.4762 14.4756 32.4722L12.5733 32.4429L14.5117 28.5556C14.6475 28.2833 14.6037 27.9558 14.4015 27.7287C14.1993 27.5015 13.8789 27.4203 13.593 27.524L4.30885 30.8829C2.5681 31.5124 1.2988 33.0383 0.99638 34.8646L0.0367127 40.6597C-0.0939987 41.4492 0.127893 42.2519 0.64541 42.8622C1.16301 43.4724 1.91884 43.8224 2.71892 43.8224H22.0001C22.3014 43.8224 22.5729 43.6407 22.6877 43.3622C22.8026 43.0838 22.7381 42.7634 22.5245 42.5511ZM2.719 42.3347C2.35669 42.3347 2.01449 42.1762 1.78022 41.8998C1.54595 41.6235 1.44558 41.2601 1.5047 40.9026L2.46437 35.1076C2.67896 33.8114 3.57967 32.7287 4.81503 32.2818L12.3505 29.5556L10.7146 32.8362C10.6004 33.0651 10.6118 33.3363 10.7447 33.5548C10.8775 33.7733 11.1132 33.9082 11.3689 33.9121L13.2446 33.941L12.7592 34.8677C12.6025 35.1668 12.667 35.5339 12.916 35.7617L20.1014 42.3347H2.719Z" fill="#0083C3"/>
<path d="M24.532 33.3883C24.5857 33.1735 24.5409 32.946 24.4099 32.7675L22.5995 30.302C22.4092 30.0428 22.0737 29.9398 21.7683 30.04C21.6034 30.094 21.4675 30.2032 21.3771 30.3427L19.5998 32.7542C19.5744 32.7885 19.5518 32.8255 19.5326 32.8638C19.4109 33.1075 19.4319 33.3981 19.5875 33.6216L20.3443 34.7085L19.538 39.7906C19.5122 39.9538 19.5414 40.1208 19.621 40.2656L21.3481 43.4059C21.4789 43.6437 21.7288 43.7913 22 43.7913C22.2713 43.7913 22.5211 43.6437 22.6518 43.4059L24.3919 40.2423C24.4522 40.1325 24.4839 40.0092 24.4839 39.8839V39.8835C24.4839 39.8445 24.4808 39.8054 24.4747 39.7669L23.6722 34.7086L24.4209 33.6336C24.4722 33.5592 24.5101 33.476 24.532 33.3883ZM22 41.5038L21.0474 39.7719L21.8607 34.6458C21.8908 34.4559 21.8462 34.2619 21.7364 34.1042L21.113 33.2089L22.0021 32.0025L22.8959 33.2197L22.28 34.1042C22.1701 34.2618 22.1256 34.4559 22.1557 34.6458L22.9653 39.7486L22 41.5038Z" fill="#0083C3"/>
</svg>
