<svg width="38" height="45" viewBox="0 0 38 45" fill="none" xmlns="http://www.w3.org/2000/svg">
<path d="M35.6802 15.2169L33.7499 12.5099V8.99976C33.7499 8.80085 33.6708 8.61008 33.5302 8.46943C33.3895 8.32877 33.1988 8.24976 32.9998 8.24976H28.4998C28.3009 8.24976 28.1101 8.32877 27.9695 8.46943C27.8288 8.61008 27.7498 8.80085 27.7498 8.99976V12.5099L25.8202 15.2159C25.609 15.5109 25.4144 15.8175 25.2373 16.1342L26.5469 16.8654C26.6968 16.5971 26.8617 16.3373 27.0406 16.0873L29.1104 13.1848C29.201 13.0578 29.2497 12.9057 29.2498 12.7498V9.74976H32.2498V12.7498C32.2499 12.9059 32.2986 13.0582 32.3893 13.1853L34.4612 16.0908C34.8829 16.679 35.2238 17.321 35.4749 17.9998H29.9998V19.4998H35.8686C35.9508 19.9579 35.9947 20.422 35.9999 20.8873V20.9998H29.9998V22.4998H35.9999V23.9998H29.9998V25.4999H35.7086L35.5282 26.0503C35.1575 27.1518 35.1571 28.3444 35.5271 29.4462L35.7985 30.2742C35.9311 30.6693 35.9991 31.0832 35.9999 31.4999H29.9998V32.9999H35.9999V34.4999H29.9998V35.9999H35.9999V37.4999H29.9998V38.9999H35.9999V41.9999C35.9995 42.3976 35.8413 42.7789 35.5601 43.0602C35.2789 43.3414 34.8976 43.4996 34.4999 43.5H32.8724C32.7731 43.5 32.6747 43.4803 32.583 43.4421C32.4912 43.4039 32.408 43.3479 32.3381 43.2773C31.9117 42.8661 31.3425 42.6363 30.7501 42.6363C30.1578 42.6363 29.5885 42.8661 29.1622 43.2773L30.2228 44.3379C30.3634 44.1995 30.5528 44.122 30.7501 44.122C30.9474 44.122 31.1368 44.1995 31.2775 44.3379C31.4864 44.5482 31.7349 44.715 32.0087 44.8286C32.2824 44.9423 32.576 45.0005 32.8724 45H34.4999C35.2952 44.9991 36.0578 44.6827 36.6202 44.1203C37.1826 43.5579 37.499 42.7953 37.4999 41.9999V31.4999C37.4992 30.9232 37.4056 30.3504 37.2227 29.8036L36.9512 28.9756C36.6824 28.1794 36.6828 27.3168 36.9524 26.5209L37.2242 25.6918C37.3108 25.42 37.38 25.1431 37.4315 24.8626C37.4759 24.5772 37.4987 24.2887 37.4999 23.9998V20.8873C37.4987 20.1076 37.406 19.3306 37.2238 18.5724C36.9314 17.3645 36.4071 16.2249 35.6802 15.2169Z" fill="#0083C3"/>
<path d="M1.92328e-05 16.5001V39.1877C0.00173142 40.7288 0.614671 42.2062 1.70436 43.2959C2.79405 44.3856 4.2715 44.9985 5.81255 45.0003C7.07141 45.0041 8.29686 44.5954 9.30148 43.8368C9.64745 43.5776 10.0681 43.4374 10.5005 43.4374C10.9328 43.4374 11.3535 43.5776 11.6994 43.8368C12.6457 44.5497 13.7883 44.9544 14.9723 44.9962L15.0279 43.497C14.1502 43.4666 13.3032 43.1667 12.6018 42.6382C11.9953 42.1842 11.2581 41.9388 10.5005 41.9388C9.74284 41.9388 9.00561 42.1842 8.39913 42.6382C7.65431 43.2005 6.74578 43.5033 5.81255 43.5002C4.66921 43.4989 3.57308 43.0441 2.76462 42.2357C1.95615 41.4272 1.50137 40.3311 1.50003 39.1877V35.2502H15.0001V33.7502H1.50003V18.7501H18.0001V17.2501H1.50003V16.5001C1.49662 14.5964 2.09838 12.7408 3.21841 11.2014C4.33844 9.66199 5.91876 8.51841 7.73116 7.93579C7.88198 7.88705 8.01346 7.79174 8.1067 7.66357C8.19994 7.53539 8.25013 7.38095 8.25006 7.22245V5.25003H12.7501V7.22245C12.75 7.38095 12.8002 7.53539 12.8935 7.66357C12.9867 7.79174 13.1182 7.88705 13.269 7.93579C14.9695 8.48072 16.4686 9.52105 17.5741 10.9234C18.6795 12.3258 19.341 14.0264 19.4738 15.8072L20.9694 15.693C20.822 13.7088 20.1115 11.8078 18.9212 10.2134C17.731 8.61895 16.1105 7.39727 14.2501 6.69182V5.25003H15.7501V3.75002H14.2501V0.750004C14.2501 0.551091 14.1711 0.360324 14.0304 0.219671C13.8898 0.079018 13.699 0 13.5001 0H7.50006C7.30115 0 7.11038 0.079018 6.96973 0.219671C6.82907 0.360324 6.75006 0.551091 6.75006 0.750004V3.75002H5.25005V5.25003H6.75006V6.69182C4.76199 7.44776 3.05124 8.79117 1.84543 10.5433C0.639631 12.2954 -0.00405615 14.3732 1.92328e-05 16.5001ZM8.25006 1.50001H12.7501V3.75002H8.25006V1.50001Z" fill="#0083C3"/>
<path d="M6.33496 10.2622L7.16559 11.511C7.62645 11.2051 8.12709 10.9639 8.6535 10.794L8.19207 9.36646C7.53496 9.57868 6.9101 9.88009 6.33496 10.2622Z" fill="#0083C3"/>
<path d="M4.53719 15.834C4.68362 14.5247 5.25632 13.2997 6.16713 12.3476L5.08535 11.3079C3.94618 12.4988 3.22966 14.031 3.0459 15.6688L4.53719 15.834Z" fill="#0083C3"/>
<path d="M4.50001 20.2488H3V21.7488H4.50001V20.2488Z" fill="#0083C3"/>
<path d="M4.50001 23.251H3V30.001H4.50001V23.251Z" fill="#0083C3"/>
<path d="M21 24.7512H19.5V27.0012H21V24.7512Z" fill="#0083C3"/>
<path d="M22.5 16.4995C20.8177 16.4995 19.5 17.4879 19.5 18.7495V21.2866L17.7469 22.1663C17.3717 22.3519 17.0561 22.6389 16.8357 22.9948C16.6153 23.3507 16.499 23.7612 16.5 24.1797V27.7496C16.5 27.866 16.5271 27.9809 16.5791 28.085L17.1614 29.2496L16.5791 30.4142C16.5271 30.5183 16.5 30.6332 16.5 30.7496V32.2496C16.5 32.366 16.5271 32.4809 16.5791 32.585L17.1614 33.7496L16.5791 34.9142C16.5271 35.0183 16.5 35.1332 16.5 35.2496V36.7496C16.5 36.8661 16.5271 36.9809 16.5791 37.0851L17.1614 38.2496L16.5791 39.4142C16.5271 39.5184 16.5 39.6332 16.5 39.7496V42.7497C16.5009 43.3461 16.7383 43.9179 17.16 44.3396C17.5818 44.7614 18.1536 44.9988 18.75 44.9997H26.2501C26.4216 44.9989 26.5925 44.9796 26.7599 44.9422C27.2552 44.8276 27.6971 44.5483 28.0132 44.1501C28.3292 43.7518 28.5009 43.2581 28.5001 42.7497V39.7496C28.5001 39.6332 28.473 39.5184 28.4209 39.4142L27.8387 38.2496L28.4209 37.0851C28.473 36.9809 28.5001 36.8661 28.5001 36.7496V35.2496C28.5001 35.1332 28.473 35.0183 28.4209 34.9142L27.8387 33.7496L28.4209 32.585C28.473 32.4809 28.5001 32.366 28.5001 32.2496V30.7496C28.5001 30.6332 28.473 30.5183 28.4209 30.4142L27.8387 29.2496L28.4209 28.085C28.473 27.9809 28.5001 27.866 28.5001 27.7496V24.1797C28.5012 23.7613 28.385 23.351 28.1647 22.9952C27.9444 22.6395 27.6289 22.3526 27.2538 22.167L25.5001 21.2866V18.7495C25.5001 17.4879 24.1824 16.4995 22.5 16.4995ZM22.5 17.9995C23.4156 17.9995 24 18.4437 24 18.7495C24 19.0553 23.4156 19.4995 22.5 19.4995C21.5845 19.4995 21 19.0553 21 18.7495C21 18.4437 21.5845 17.9995 22.5 17.9995ZM26.5822 23.5081C26.7077 23.5698 26.8133 23.6654 26.8872 23.7842C26.9611 23.9029 27.0002 24.0399 27.0001 24.1797V27.5727L26.5365 28.4996H20.25V29.9996H26.5365L27.0001 30.9265V32.0727L26.5365 32.9996H20.25V34.4996H26.5365L27.0001 35.4265V36.5727L26.5365 37.4996H20.25V38.9996H26.5365L27.0001 39.9265V42.7497C26.999 42.9169 26.9427 43.079 26.8399 43.2109C26.7371 43.3427 26.5936 43.4369 26.4317 43.4788C26.3721 43.492 26.3112 43.499 26.2501 43.4997H18.75C18.6343 43.4992 18.5202 43.472 18.4166 43.4202C18.3131 43.3685 18.2229 43.2935 18.1531 43.2012C18.0535 43.0718 17.9996 42.913 18 42.7497V39.9265L18.6709 38.5851C18.7229 38.4809 18.75 38.3661 18.75 38.2496C18.75 38.1332 18.7229 38.0184 18.6709 37.9142L18 36.5727V35.4265L18.6709 34.085C18.7229 33.9809 18.75 33.866 18.75 33.7496C18.75 33.6332 18.7229 33.5183 18.6709 33.4142L18 32.0727V30.9265L18.6709 29.585C18.7229 29.4809 18.75 29.366 18.75 29.2496C18.75 29.1331 18.7229 29.0183 18.6709 28.9141L18 27.5727V24.1797C18 24.0398 18.0392 23.9026 18.1132 23.7837C18.1872 23.6649 18.293 23.5691 18.4186 23.5074L20.5862 22.4199C20.7106 22.3576 20.8153 22.2619 20.8883 22.1435C20.9614 22.0251 21.0001 21.8887 21 21.7495V20.6962C21.4748 20.8964 21.9848 20.9995 22.5 20.9995C23.0153 20.9995 23.5253 20.8964 24 20.6962V21.7495C24 21.8886 24.0387 22.025 24.1118 22.1434C24.1849 22.2617 24.2895 22.3574 24.4139 22.4197L26.5822 23.5081Z" fill="#0083C3"/>
</svg>
