<svg width="46" height="46" viewBox="0 0 46 46" fill="none" xmlns="http://www.w3.org/2000/svg">
<path d="M42.1657 29.9689V23.0001C42.1657 22.5767 41.8224 22.2334 41.399 22.2334H33.7324C33.309 22.2334 32.9657 22.5767 32.9657 23.0001V29.9001H27.599V23.0001C27.599 22.5767 27.2558 22.2334 26.8324 22.2334H19.1657C18.7423 22.2334 18.399 22.5767 18.399 23.0001V29.9001H4.59903C2.21817 29.9139 0.241238 31.7422 0.0417098 34.1152C-0.157444 36.4879 1.48707 38.6205 3.83237 39.0312V44.4667H2.29903V46.0001H6.89903V44.4667H5.3657V39.1001H40.6324V44.4667H39.099V46.0001H43.699V44.4667H42.1657V39.0312C44.3781 38.6591 45.9983 36.7435 45.9983 34.5001C45.9983 32.2566 44.3781 30.341 42.1657 29.9689ZM34.499 23.7667H40.6324V29.9001H34.499V23.7667ZM19.9324 23.7667H26.0657V29.9001H19.9324V23.7667ZM4.59903 37.5667C2.90548 37.5667 1.53237 36.1936 1.53237 34.5001C1.53237 32.8065 2.90548 31.4334 4.59903 31.4334C6.29259 31.4334 7.6657 32.8065 7.6657 34.5001C7.6657 36.1936 6.29259 37.5667 4.59903 37.5667ZM37.9797 37.5667H8.01834C9.59248 35.8253 9.59248 33.1749 8.01834 31.4334H37.9797C36.4056 33.1749 36.4056 35.8253 37.9797 37.5667ZM41.399 37.5667C39.7055 37.5667 38.3324 36.1936 38.3324 34.5001C38.3324 32.8065 39.7055 31.4334 41.399 31.4334C43.0926 31.4334 44.4657 32.8065 44.4657 34.5001C44.4657 36.1936 43.0926 37.5667 41.399 37.5667Z" fill="#0083C3"/>
<path d="M6.1321 34.5001C6.1321 35.3469 5.44554 36.0335 4.59876 36.0335C3.75199 36.0335 3.06543 35.3469 3.06543 34.5001C3.06543 33.6534 3.75199 32.9668 4.59876 32.9668C5.44554 32.9668 6.1321 33.6534 6.1321 34.5001Z" fill="#0083C3"/>
<path d="M13.7991 34.5001C13.7991 35.3469 13.1125 36.0335 12.2658 36.0335C11.419 36.0335 10.7324 35.3469 10.7324 34.5001C10.7324 33.6534 11.419 32.9668 12.2658 32.9668C13.1125 32.9668 13.7991 33.6534 13.7991 34.5001Z" fill="#0083C3"/>
<path d="M19.1653 34.5001C19.1653 35.3469 18.4787 36.0335 17.632 36.0335C16.7852 36.0335 16.0986 35.3469 16.0986 34.5001C16.0986 33.6534 16.7852 32.9668 17.632 32.9668C18.4787 32.9668 19.1653 33.6534 19.1653 34.5001Z" fill="#0083C3"/>
<path d="M24.5325 34.5001C24.5325 35.3469 23.8459 36.0335 22.9992 36.0335C22.1524 36.0335 21.4658 35.3469 21.4658 34.5001C21.4658 33.6534 22.1524 32.9668 22.9992 32.9668C23.8459 32.9668 24.5325 33.6534 24.5325 34.5001Z" fill="#0083C3"/>
<path d="M29.8997 34.5001C29.8997 35.3469 29.2131 36.0335 28.3663 36.0335C27.5196 36.0335 26.833 35.3469 26.833 34.5001C26.833 33.6534 27.5196 32.9668 28.3663 32.9668C29.2131 32.9668 29.8997 33.6534 29.8997 34.5001Z" fill="#0083C3"/>
<path d="M35.2659 34.5001C35.2659 35.3469 34.5793 36.0335 33.7326 36.0335C32.8858 36.0335 32.1992 35.3469 32.1992 34.5001C32.1992 33.6534 32.8858 32.9668 33.7326 32.9668C34.5793 32.9668 35.2659 33.6534 35.2659 34.5001Z" fill="#0083C3"/>
<path d="M42.9319 34.5001C42.9319 35.3469 42.2453 36.0335 41.3986 36.0335C40.5518 36.0335 39.8652 35.3469 39.8652 34.5001C39.8652 33.6534 40.5518 32.9668 41.3986 32.9668C42.2453 32.9668 42.9319 33.6534 42.9319 34.5001Z" fill="#0083C3"/>
<path d="M4.59967 19.1667C4.17629 19.1667 3.83301 19.51 3.83301 19.9334V27.6001C3.83301 28.0235 4.17629 28.3667 4.59967 28.3667H12.2663C12.6897 28.3667 13.033 28.0235 13.033 27.6001V19.9334C13.033 19.51 12.6897 19.1667 12.2663 19.1667H4.59967ZM11.4997 26.8334H5.36634V20.7001H11.4997V26.8334Z" fill="#0083C3"/>
<path d="M3.83254 0V11.2548L0.142584 16.4212C-0.0240011 16.6548 -0.046462 16.9621 0.0849345 17.2174C0.215957 17.4724 0.47875 17.633 0.765875 17.6333H16.0992C16.3863 17.633 16.6491 17.4724 16.7805 17.2174C16.9115 16.9621 16.8895 16.6548 16.7225 16.4212L13.0325 11.2548V0H11.4992V1.53333H5.36588V0H3.83254ZM5.36588 6.13333H11.4992V7.66667H5.36588V6.13333ZM5.36588 9.2H11.4992V10.7333H5.36588V9.2ZM11.8709 12.2667L14.6097 16.1H2.25541L4.99415 12.2667H11.8709ZM11.4992 3.06667V4.6H5.36588V3.06667H11.4992Z" fill="#0083C3"/>
</svg>
