<svg width="260" height="239" viewBox="0 0 260 239" fill="none" xmlns="http://www.w3.org/2000/svg">
<path fill-rule="evenodd" clip-rule="evenodd" d="M51.7568 149.661C51.5646 148.636 50.9018 144.593 54.8403 140.398C58.7788 136.202 63.1399 138.051 66.041 136.087C68.942 134.123 72.8901 134.535 79.9505 136.202C87.011 137.869 99.2971 144.038 106.723 141.097C114.148 138.156 135.762 129.928 162.438 90.7013C165.713 84.494 166.626 82.0801 169.911 75.1065C173.197 68.133 173.984 69.9722 176.847 67.3283C179.709 64.6845 180.555 66.0447 178.768 69.407C182.332 66.4854 182.755 67.5582 190.199 57.2032C197.644 46.8483 199.19 47.0207 204.195 39.9609C209.2 32.9011 214.195 23.6765 217.855 17.1148C221.515 10.5531 222.764 14.107 220.112 19.9885C217.461 25.8701 211.025 39.5777 206.664 47.5667C213.84 37.4033 225.809 20.3142 233.292 6.02222C235.77 1.32848 237.413 -2.14873 239.056 1.55837C238.979 4.43209 229.815 31.5409 216.625 51.1205C229.815 33.2076 234.08 30.3914 244.214 14.8445C247.009 10.6298 250.583 12.7084 245.78 21.3008C240.977 29.8933 233.292 43.6297 231.054 46.9823C228.816 50.335 227.346 54.5403 225.04 57.6822C232.178 49.425 234.08 46.1298 241.207 38.6294C248.335 31.129 249.68 29.3664 252.11 26.0521C254.541 22.7377 257.432 24.8547 253.292 30.8416C249.152 36.8285 244.012 44.9228 242.812 46.6471C241.611 48.3713 238.643 55.4215 234.281 61.0157C239.449 56.5135 248.988 48.5054 253.974 44.2619C258.959 40.0184 261.39 39.7789 259.18 43.2465C256.971 46.7141 238.354 68.7173 232.783 73.3631C245.04 65.6999 248.335 62.74 254.07 57.9887C259.805 53.2375 261.822 56.4273 257.499 60.9965C253.326 65.2148 248.805 69.0759 243.983 72.5393C241.227 74.4551 235.252 79.58 235.252 79.58C235.252 79.58 242.418 76.4572 245.549 74.9054C248.681 73.3535 250.823 73.0375 248.431 76.2656C246.039 79.4938 238.402 87.3965 230.132 91.5921C228.306 92.3776 229.171 93.508 231.995 92.2339C234.819 90.9599 238.124 90.4426 236.433 93.1918C234.742 95.941 232.158 96.7744 230.055 97.7611C232.283 97.8856 236.933 96.3625 239.488 94.1498C242.043 91.937 237.048 96.5637 235.463 98.6711C233.878 100.778 233.061 101.947 229.296 102.934C227.058 103.518 225.136 105.357 223.638 106.095C222.139 106.832 219.892 106.957 223.427 107.168C224.466 107.235 225.493 106.914 226.308 106.267C228.623 104.419 230.016 103.892 229.19 105.558C227.532 108.229 225.404 110.578 222.908 112.494C220.746 113.94 222.274 113.586 221.534 115.128C220.794 116.67 218.028 116.287 217.211 117.044C218.633 118.222 221.851 117.111 221.275 118.126C220.698 119.142 219.526 119.161 218.508 120.626C217.49 122.092 217.471 121.584 217.461 122.983C217.452 124.381 214.426 125.493 211.044 123.807C212.658 125.074 214.639 125.786 216.693 125.837C217.576 125.684 217.596 128.06 215.146 129.19C212.697 130.32 213.552 130.646 213.359 131.288C213.167 131.93 210.843 131.412 209.517 131.805C208.191 132.198 207.058 133.319 209.968 133.28C211.485 133.309 212.996 133.096 214.445 132.648C213.587 133.811 212.503 134.789 211.256 135.522C209.671 136.221 209.45 136.643 209.334 137.275C209.219 137.907 207.077 139.191 206.385 139.018C205.694 138.846 203.782 138.884 204.8 139.65C205.819 140.417 207.394 140.8 207.356 141.566C207.317 142.333 204.368 147.438 203.091 146.883C201.813 146.327 198.393 146.068 196.366 144.814C194.339 143.559 192.024 143.482 197.183 146.135C202.341 148.789 201.986 150.829 199.767 151.758C198.536 152.284 197.41 153.027 196.443 153.952C195.838 154.364 192.399 152.573 191.486 151.94C190.574 151.308 191.486 153.607 193.763 154.402C194.533 154.705 195.228 155.17 195.802 155.765C196.375 156.36 196.814 157.072 197.087 157.851C197.452 158.617 196.77 158.636 195.54 159.584C194.311 160.533 193.023 162.219 189.229 160.111C191.39 161.797 192.783 163.397 194.301 163.157C195.819 162.918 192.831 167.401 190.257 168.052C187.682 168.704 183.763 167.803 179.757 164.968C178.576 163.905 177.164 164.269 179.93 165.926C182.697 167.583 186.021 171.213 189.315 170.16C187.951 172.411 186.827 176.865 183.283 176.367C179.738 175.869 177.125 172.602 175.761 171.98C174.397 171.357 172.947 170.897 174.58 172.152C176.213 173.407 177.241 174.71 179.277 176.281C181.314 177.852 184.589 179.394 182.409 180.457C180.228 181.521 174.311 182.967 170.651 178.484C169.911 177.363 168.855 176.99 170.776 179.442C172.697 181.894 174.964 184.279 177.836 183.752C180.708 183.226 176.069 185.783 174.282 185.869C172.495 185.956 166.194 186.942 164.983 183.618C163.619 179.787 164.234 186.722 169.431 186.933C173.581 187.096 173.821 187.891 172.505 188.609C171.189 189.327 169.296 189.567 172.505 191.071C175.713 192.575 196.693 205.439 204.983 210.133C213.273 214.827 213.696 214.607 210.199 216.676C206.702 218.745 203.225 218.783 196.904 215.316C190.583 211.848 197.202 216.542 200.036 218.754C202.87 220.967 204.541 223.908 208.211 225.287C211.88 226.667 208.345 226.025 207.25 227.816C206.155 229.607 202.015 230.69 199.431 229.464C196.847 228.238 194.733 225.326 192.889 224.368C191.045 223.41 192.505 225.201 194.253 226.466C196.001 227.73 198.508 231.255 197.433 231.792C196.357 232.328 196.241 231.792 195.703 232.52C195.166 233.248 192.745 234.196 189.479 231.686C186.213 229.176 185.146 229.148 185.934 229.952C186.722 230.757 188.172 233.027 189.642 234.234C191.112 235.441 191.016 236.332 189.143 236.064C187.269 235.796 187.404 235.25 186.991 236.064C186.578 236.878 185.617 238.698 183.715 237.271C182.128 236.131 180.802 234.668 179.825 232.979C179.277 231.83 177.74 231.734 178.499 232.577C179.258 233.42 181.765 237.367 181.381 238.181C180.997 238.995 180.094 237.539 179.219 237.587C178.345 237.635 172.86 237.874 171.045 235.403C169.229 232.931 168.672 228.458 166.933 226.619C165.195 224.78 165.473 226.312 166.799 228.765C168.125 231.217 168.855 234.407 169.93 235.719C171.006 237.031 171.429 238.736 170.295 238.985C169.162 239.235 162.966 236.227 162.303 234.493C161.64 232.759 159.921 227.663 159.421 227.031C158.922 226.398 157.961 225.709 158.326 227.031C158.691 228.353 159.719 232.778 160.363 233.43C161.006 234.081 161.467 237.395 160.007 237.261C157.839 236.879 155.874 235.75 154.455 234.071C153.11 232.309 152.745 232.836 152.447 233.458C152.15 234.081 153.206 236.15 152.447 236.332C151.689 236.514 150.075 236.428 149.191 234.09C148.307 231.753 148.23 231.926 147.702 232.807C147.174 233.688 146.319 238.506 142.765 236.504C139.21 234.502 138.653 234.953 137.885 234.292C137.116 233.631 134.484 232.912 133.735 228.621C132.986 224.329 130.757 221.915 128.288 216.666C125.819 211.417 122.851 207.93 121.026 207.087C119.201 206.244 117.405 211.369 115.599 211.024C116.867 208.821 118.817 207.863 118.115 206.1C117.414 204.338 116.031 206.33 115.493 207.106C114.955 207.882 107.088 210.152 104.235 209.453C101.382 208.754 96.4922 211.541 94.8111 211.024C95.7717 209.405 96.5498 208.15 96.0407 207.394C95.5315 206.637 94.1867 209.309 93.3318 209.999C92.4768 210.689 91.3049 210.143 90.4019 209.779C89.499 209.415 88.058 208.16 87.0302 208.352C86.0023 208.543 84.1484 209.032 82.7747 207.078C81.401 205.123 77.597 207.604 76.1465 208.131C74.696 208.658 66.2427 208.993 63.8892 207.94C61.5357 206.886 64.4367 207.806 67.6836 206.915C69.5979 206.491 71.3789 205.607 72.8709 204.338C73.0438 204.079 60.3254 206.321 52.4772 204.874C48.971 204.376 43.8318 203.035 47.0114 202.767C49.5925 202.482 52.1575 202.067 54.6962 201.522C54.6962 201.522 37.4053 202.02 26.2719 199.606C30.6168 199.321 34.8942 198.388 38.9615 196.838C41.3822 195.947 39.3938 195.88 33.5053 194.347C27.6167 192.814 17.4055 188.504 12.7178 185.266C8.03 182.028 17.1557 184.231 19.7974 184.136C22.4391 184.04 5.38834 177.191 1.20971 171.319C-1.60487 167.353 0.98877 169.403 3.92822 171.146C7.31916 173.206 11.8436 173.857 15.7533 173.666C17.9338 173.56 10.8638 170.169 6.73319 165.045C2.60259 159.92 7.05019 163.857 9.91279 164.546C12.7754 165.236 21.027 168.503 25.6187 170.39C30.2104 172.277 43.7453 174.049 46.5983 173.455C44.6771 172.286 42.6694 171.07 45.8971 170.667C50.1737 170.192 54.4831 170.079 58.7788 170.332C62.4003 170.658 60.0852 168.809 63.5818 168.924C67.0784 169.039 75.8487 167.525 76.7037 165.179C77.5586 162.832 75.6662 162.793 74.3406 159.709C73.0149 156.625 65.6279 150.245 62.6596 148.961C59.6914 147.678 54.3312 146.164 51.7856 149.661" fill="#EFEFEF"/>
</svg>
