<svg width="79" height="94" viewBox="0 0 79 94" fill="none" xmlns="http://www.w3.org/2000/svg">
<path d="M74.5327 31.7867L70.5005 26.132V18.7998C70.5005 18.3843 70.3354 17.9858 70.0416 17.692C69.7478 17.3982 69.3493 17.2332 68.9338 17.2332H59.5338C59.1183 17.2332 58.7198 17.3982 58.426 17.692C58.1322 17.9858 57.9671 18.3843 57.9671 18.7998V26.132L53.9364 31.7846C53.4952 32.4008 53.0887 33.0412 52.7188 33.7028L55.4544 35.2303C55.7676 34.6697 56.1118 34.127 56.4856 33.6049L60.8092 27.5419C60.9984 27.2766 61.1002 26.959 61.1004 26.6332V20.3665H67.3671V26.6332C67.3672 26.9593 67.4691 27.2773 67.6585 27.5428L71.9865 33.6121C72.8672 34.8408 73.5793 36.182 74.1038 37.5999H62.6671V40.7332H74.9263C75.0981 41.69 75.1898 42.6595 75.2005 43.6316V43.8666H62.6671V46.9999H75.2005V50.1333H62.6671V53.2666H74.592L74.2152 54.4163C73.4408 56.7174 73.44 59.2085 74.2129 61.51L74.7798 63.2396C75.0568 64.0649 75.1988 64.9295 75.2005 65.8H62.6671V68.9333H75.2005V72.0666H62.6671V75.2H75.2005V78.3333H62.6671V81.4667H75.2005V87.7334C75.1996 88.5641 74.8693 89.3606 74.2818 89.9481C73.6944 90.5355 72.8979 90.8659 72.0671 90.8667H68.6677C68.4601 90.8668 68.2546 90.8257 68.063 90.7459C67.8714 90.666 67.6975 90.549 67.5514 90.4016C66.6608 89.5427 65.4717 89.0627 64.2344 89.0627C62.997 89.0627 61.808 89.5427 60.9173 90.4016L63.1328 92.6171C63.4266 92.328 63.8222 92.166 64.2344 92.166C64.6465 92.166 65.0422 92.328 65.3359 92.6171C65.7723 93.0564 66.2914 93.4048 66.8633 93.6422C67.4352 93.8796 68.0485 94.0012 68.6677 94H72.0671C73.7286 93.9982 75.3215 93.3373 76.4963 92.1625C77.6711 90.9877 78.332 89.3948 78.3338 87.7334V65.8C78.3324 64.5954 78.1369 63.3989 77.7547 62.2565L77.1878 60.5269C76.6261 58.8638 76.627 57.0621 77.1902 55.3994L77.7581 53.6675C77.9389 53.0999 78.0835 52.5214 78.1911 51.9355C78.2837 51.3392 78.3314 50.7367 78.3338 50.1333V43.6316C78.3313 42.0027 78.1377 40.3798 77.7571 38.796C77.1463 36.2729 76.0512 33.8924 74.5327 31.7867Z" fill="#0083C3"/>
<path d="M4.01751e-05 34.4668V81.8586C0.00361673 85.0777 1.28398 88.1639 3.56021 90.4401C5.83645 92.7163 8.92266 93.9967 12.1417 94.0003C14.7713 94.0082 17.3312 93.1546 19.4297 91.57C20.1524 91.0284 21.0311 90.7357 21.9342 90.7357C22.8373 90.7357 23.716 91.0284 24.4387 91.57C26.4154 93.059 28.8021 93.9045 31.2753 93.9919L31.3916 90.8601C29.5582 90.7966 27.7888 90.1703 26.3236 89.0662C25.0568 88.1178 23.5168 87.6052 21.9342 87.6052C20.3517 87.6052 18.8117 88.1178 17.5448 89.0662C15.989 90.2408 14.0911 90.8733 12.1417 90.8669C9.75344 90.8641 7.46375 89.9141 5.77496 88.2254C4.08617 86.5366 3.13618 84.2469 3.13338 81.8586V73.6336H31.3335V70.5002H3.13338V39.1668H37.6001V36.0334H3.13338V34.4668C3.12627 30.4901 4.38328 26.614 6.72288 23.3984C9.06248 20.1828 12.3636 17.794 16.1495 16.5769C16.4645 16.4751 16.7392 16.276 16.9339 16.0083C17.1287 15.7405 17.2336 15.4179 17.2334 15.0868V10.9667H26.6334V15.0868C26.6333 15.4179 26.7382 15.7405 26.9329 16.0083C27.1277 16.276 27.4023 16.4751 27.7174 16.5769C31.2696 17.7152 34.401 19.8884 36.7102 22.8178C39.0194 25.7472 40.4012 29.2995 40.6785 33.0194L43.8026 32.7808C43.4947 28.636 42.0105 24.6651 39.5243 21.3346C37.038 18.004 33.653 15.452 29.7668 13.9784V10.9667H32.9001V7.83336H29.7668V1.56667C29.7668 1.15116 29.6017 0.752675 29.3079 0.458867C29.0141 0.165059 28.6156 0 28.2001 0H15.6668C15.2512 0 14.8528 0.165059 14.5589 0.458867C14.2651 0.752675 14.1001 1.15116 14.1001 1.56667V7.83336H10.9667V10.9667H14.1001V13.9784C9.94723 15.5575 6.37368 18.3637 3.8549 22.0237C1.33611 25.6837 -0.00847282 30.0238 4.01751e-05 34.4668ZM17.2334 3.13334H26.6334V7.83336H17.2334V3.13334Z" fill="#0083C3"/>
<path d="M13.2329 21.4364L14.968 24.0449C15.9307 23.4059 16.9765 22.902 18.0761 22.5471L17.1122 19.5652C15.7396 20.0085 14.4343 20.6381 13.2329 21.4364Z" fill="#0083C3"/>
<path d="M9.47695 33.0731C9.78282 30.3379 10.9791 27.7791 12.8817 25.7904L10.622 23.6184C8.24241 26.1062 6.74567 29.3067 6.36182 32.7278L9.47695 33.0731Z" fill="#0083C3"/>
<path d="M9.40043 42.2991H6.26709V45.4324H9.40043V42.2991Z" fill="#0083C3"/>
<path d="M9.40043 48.5676H6.26709V62.6677H9.40043V48.5676Z" fill="#0083C3"/>
<path d="M43.8672 51.7012H40.7339V56.4012H43.8672V51.7012Z" fill="#0083C3"/>
<path d="M47.0007 34.4663C43.4864 34.4663 40.734 36.531 40.734 39.1663V44.466L37.0719 46.3035C36.2882 46.6913 35.6288 47.2908 35.1685 48.0342C34.7082 48.7776 34.4652 49.635 34.4673 50.5094V57.9664C34.4673 58.2096 34.5238 58.4495 34.6326 58.6671L35.8489 61.0997L34.6326 63.5324C34.5238 63.7499 34.4673 63.9898 34.4673 64.2331V67.3664C34.4673 67.6096 34.5238 67.8495 34.6326 68.0671L35.8489 70.4997L34.6326 72.9324C34.5238 73.15 34.4673 73.3899 34.4673 73.6331V76.7664C34.4673 77.0097 34.5238 77.2496 34.6326 77.4671L35.8489 79.8998L34.6326 82.3324C34.5238 82.55 34.4673 82.7899 34.4673 83.0331V89.2998C34.4692 90.5457 34.965 91.7401 35.846 92.6211C36.727 93.5021 37.9214 93.9979 39.1673 93.9998H54.834C55.1923 93.9982 55.5493 93.958 55.899 93.8798C56.9337 93.6403 57.8566 93.057 58.5169 92.2251C59.1772 91.3932 59.5358 90.3619 59.534 89.2998V83.0331C59.5341 82.7899 59.4775 82.55 59.3688 82.3324L58.1524 79.8998L59.3688 77.4671C59.4775 77.2496 59.5341 77.0097 59.534 76.7664V73.6331C59.5341 73.3899 59.4775 73.15 59.3688 72.9324L58.1524 70.4997L59.3688 68.0671C59.4775 67.8495 59.5341 67.6096 59.534 67.3664V64.2331C59.5341 63.9898 59.4775 63.7499 59.3688 63.5324L58.1524 61.0997L59.3688 58.6671C59.4775 58.4495 59.5341 58.2096 59.534 57.9664V50.5094C59.5363 49.6354 59.2936 48.7782 58.8335 48.0351C58.3734 47.292 57.7142 46.6926 56.9308 46.3051L53.2674 44.466V39.1663C53.2674 36.531 50.5149 34.4663 47.0007 34.4663ZM47.0007 37.5997C48.9132 37.5997 50.134 38.5275 50.134 39.1663C50.134 39.8051 48.9132 40.733 47.0007 40.733C45.0882 40.733 43.8673 39.8051 43.8673 39.1663C43.8673 38.5275 45.0882 37.5997 47.0007 37.5997ZM55.5279 49.1065C55.79 49.2353 56.0107 49.4351 56.1649 49.6831C56.3192 49.9311 56.4009 50.2174 56.4007 50.5094V57.5968L55.4323 59.533H42.3007V62.6664H55.4323L56.4007 64.6026V66.9969L55.4323 68.9331H42.3007V72.0664H55.4323L56.4007 74.0026V76.3969L55.4323 78.3331H42.3007V81.4664H55.4323L56.4007 83.4027V89.2998C56.3985 89.649 56.2809 89.9878 56.0662 90.2632C55.8515 90.5387 55.5517 90.7354 55.2135 90.8228C55.0889 90.8505 54.9617 90.8652 54.834 90.8665H39.1673C38.9255 90.8655 38.6872 90.8087 38.4709 90.7006C38.2547 90.5924 38.0663 90.4358 37.9204 90.2429C37.7124 89.9726 37.5999 89.6409 37.6006 89.2998V83.4027L39.002 80.6005C39.1107 80.3829 39.1673 80.143 39.1673 79.8998C39.1673 79.6566 39.1107 79.4167 39.002 79.1991L37.6006 76.3969V74.0026L39.002 71.2004C39.1107 70.9828 39.1673 70.743 39.1673 70.4997C39.1673 70.2565 39.1107 70.0166 39.002 69.7991L37.6006 66.9969V64.6026L39.002 61.8004C39.1107 61.5828 39.1673 61.3429 39.1673 61.0997C39.1673 60.8565 39.1107 60.6166 39.002 60.399L37.6006 57.5968V50.5094C37.6006 50.217 37.6825 49.9304 37.8371 49.6822C37.9916 49.4339 38.2126 49.2339 38.475 49.1049L43.0029 46.8332C43.2628 46.7031 43.4813 46.5032 43.634 46.2559C43.7867 46.0086 43.8675 45.7236 43.8673 45.433V43.2326C44.859 43.6509 45.9244 43.8663 47.0007 43.8663C48.0769 43.8663 49.1423 43.6509 50.134 43.2326V45.433C50.1339 45.7236 50.2147 46.0084 50.3674 46.2557C50.5201 46.5029 50.7386 46.7028 50.9984 46.8328L55.5279 49.1065Z" fill="#0083C3"/>
</svg>
