<svg width="89" height="83" viewBox="0 0 89 83" fill="none" xmlns="http://www.w3.org/2000/svg">
<path d="M53.3572 77.0723C53.3572 77.8585 53.0449 78.6125 52.4889 79.1684C51.933 79.7243 51.1791 80.0366 50.3929 80.0366C49.6067 80.0366 48.8527 79.7243 48.2968 79.1684C47.7409 78.6125 47.4286 77.8585 47.4286 77.0723V71.1438C47.4286 70.7507 47.2724 70.3737 46.9945 70.0957C46.7165 69.8178 46.3395 69.6616 45.9464 69.6616H8.89286V11.858C8.89286 11.0718 9.20517 10.3179 9.76108 9.76195C10.317 9.20604 11.071 8.89373 11.8571 8.89373H47.4286V5.92944H11.8571C10.2848 5.92944 8.77684 6.55406 7.66501 7.66588C6.55319 8.77771 5.92857 10.2857 5.92857 11.858V69.6616H1.48214C1.08905 69.6616 0.712065 69.8178 0.43411 70.0957C0.156154 70.3737 0 70.7507 0 71.1438V77.0723C0 78.6447 0.624616 80.1526 1.73644 81.2645C2.84826 82.3763 4.35622 83.0009 5.92857 83.0009H50.3929C51.9652 83.0009 53.4732 82.3763 54.585 81.2645C55.6968 80.1526 56.3214 78.6447 56.3214 77.0723V57.8045H53.3572V77.0723ZM5.92857 80.0366C5.1424 80.0366 4.38842 79.7243 3.83251 79.1684C3.27659 78.6125 2.96429 77.8585 2.96429 77.0723V72.6259H44.4643V77.0723C44.4627 78.1134 44.7373 79.1363 45.2602 80.0366H5.92857Z" fill="#0083C3"/>
<path d="M63.7319 59.2872V62.2514C68.2284 62.2536 72.6718 61.2808 76.7561 59.4001C80.8403 57.5194 84.4683 54.7756 87.3899 51.3577L85.137 49.4309C82.4937 52.5234 79.2112 55.0059 75.5159 56.7075C71.8205 58.409 67.8002 59.2891 63.7319 59.2872Z" fill="#0083C3"/>
<path d="M67.9238 6.2733C66.5379 6.04813 65.1364 5.93315 63.7323 5.92944C57.2442 5.94146 51.0117 8.46038 46.3373 12.9599C41.6628 17.4593 38.908 23.5912 38.6486 30.0741C38.3891 36.5571 40.645 42.8895 44.945 47.7481C49.2449 52.6068 55.2562 55.6157 61.7226 56.1462C68.189 56.6767 74.6102 54.6876 79.6445 50.5947C84.6788 46.5019 87.9366 40.6218 88.7372 34.1832C89.5378 27.7447 87.8192 21.2458 83.9405 16.0447C80.0619 10.8436 74.3233 7.34257 67.9238 6.2733ZM63.7323 8.89373C64.2214 8.89373 64.7239 8.92189 65.2278 8.95598L64.2585 10.5686L58.9228 11.9025C58.662 11.9675 58.4237 12.1023 58.2336 12.2923L51.6232 18.9026L47.1546 16.3489C49.2286 13.9987 51.7802 12.118 54.639 10.8324C57.4977 9.54681 60.5978 8.88587 63.7323 8.89373ZM41.5002 31.1259H47.4288V37.0545C47.4288 37.4475 47.585 37.8244 47.863 38.1023L54.2259 44.4652L50.0655 48.6255C47.4005 46.5525 45.2437 43.8987 43.7594 40.8661C42.2751 37.8335 41.5024 34.5022 41.5002 31.1259ZM63.7323 53.358C59.8054 53.357 55.95 52.3076 52.5644 50.3182L57.3695 45.513C57.6474 45.2351 57.8034 44.8582 57.8034 44.4652C57.8034 44.0722 57.6474 43.6952 57.3695 43.4173L50.393 36.4408V29.6437C50.393 29.2506 50.2369 28.8737 49.9589 28.5957C49.681 28.3177 49.304 28.1616 48.9109 28.1616H41.7106C42.1555 24.773 43.3852 21.5351 45.3019 18.7055L51.1341 22.0374C51.4159 22.1975 51.7424 22.2609 52.0636 22.2178C52.3849 22.1747 52.6831 22.0275 52.9127 21.7988L60.0344 14.6845L65.5628 13.3016C65.944 13.2065 66.2719 12.964 66.4743 12.6272L68.4011 9.41248C72.0379 10.177 75.4233 11.8463 78.244 14.2659C81.0647 16.6856 83.2297 19.7775 84.5387 23.2557L83.6598 23.9642L79.818 26.5312L76.3898 25.39L70.7088 19.7089C70.542 19.5423 70.3379 19.4179 70.1134 19.3459C69.8888 19.274 69.6504 19.2567 69.4178 19.2954L60.525 20.7776C60.1489 20.8399 59.8113 21.0448 59.5823 21.3497L55.1359 27.2782C55.015 27.4395 54.9282 27.6236 54.8808 27.8196C54.8335 28.0155 54.8266 28.219 54.8606 28.4176C54.8946 28.6163 54.9687 28.8059 55.0785 28.9749C55.1883 29.144 55.3314 29.2888 55.499 29.4007L59.8239 32.2834L62.2502 34.7038V41.5009C62.2502 41.8216 62.3542 42.1336 62.5466 42.3902L66.9931 48.3187C67.1311 48.5028 67.3101 48.6522 67.5159 48.7551C67.7217 48.858 67.9487 48.9116 68.1788 48.9116H68.2558C68.497 48.8977 68.731 48.8251 68.9377 48.7C69.1444 48.575 69.3173 48.4014 69.4416 48.1942L73.4641 41.5009H76.5766L81.1342 44.9202C79.0585 47.5488 76.4146 49.6734 73.4009 51.1347C70.3871 52.596 67.0817 53.3561 63.7323 53.358ZM82.8149 42.4747L77.9609 38.833C77.7044 38.6406 77.3923 38.5366 77.0716 38.5366H72.6252C72.3694 38.5366 72.1181 38.6029 71.8955 38.7288C71.6729 38.8548 71.4867 39.0362 71.355 39.2554L68.0409 44.7764L65.2145 41.0073V34.0902C65.2144 33.6971 65.0582 33.3202 64.7802 33.0423L61.8159 30.078C61.7471 30.009 61.6716 29.9469 61.5906 29.8927L58.4485 27.797L61.5981 23.5981L69.157 22.3383L74.5461 27.7273C74.7089 27.8897 74.9073 28.012 75.1256 28.0845L79.572 29.5667C79.7858 29.6402 80.0137 29.663 80.2378 29.6331C80.4619 29.6033 80.6759 29.5217 80.8629 29.3947L85.4131 26.3534L85.4354 26.3371C85.7827 27.9098 85.9601 29.5153 85.9645 31.1259C85.9621 35.1243 84.8735 39.0469 82.8149 42.4747Z" fill="#0083C3"/>
<path d="M35.5712 26.6777C35.5712 24.3326 34.8758 22.0401 33.5729 20.0902C32.2701 18.1403 30.4182 16.6206 28.2516 15.7231C26.085 14.8257 23.7009 14.5909 21.4009 15.0484C19.1008 15.5059 16.9881 16.6352 15.3298 18.2934C13.6716 19.9517 12.5423 22.0644 12.0848 24.3645C11.6273 26.6646 11.8621 29.0486 12.7595 31.2152C13.6569 33.3819 15.1767 35.2337 17.1266 36.5366C19.0765 37.8394 21.369 38.5349 23.7141 38.5349C26.8577 38.5313 29.8716 37.281 32.0945 35.0581C34.3173 32.8352 35.5677 29.8213 35.5712 26.6777ZM21.1189 35.1822L24.1202 29.1796L28.8631 33.9224C27.7571 34.7141 26.4833 35.2401 25.141 35.4594C23.7986 35.6786 22.4237 35.5853 21.1233 35.1867L21.1189 35.1822ZM32.6069 26.6777C32.6069 28.5231 32.029 30.3221 30.9544 31.8222L25.0095 25.8773L22.355 17.9005C22.8043 17.8266 23.2587 17.7879 23.7141 17.7848C26.0719 17.7872 28.3325 18.7249 29.9997 20.3921C31.6669 22.0593 32.6046 24.3199 32.6069 26.6777ZM14.8212 26.6777C14.8221 25.0646 15.2617 23.482 16.093 22.0996C16.9243 20.7172 18.1159 19.5869 19.5404 18.8298L22.1134 26.5636L18.4732 33.8454C17.3428 33.0228 16.4228 31.9448 15.7882 30.6992C15.1535 29.4536 14.8222 28.0757 14.8212 26.6777Z" fill="#0083C3"/>
<path d="M13.3394 42.9819H16.3036V45.9462H13.3394V42.9819Z" fill="#0083C3"/>
<path d="M19.2681 42.9819H37.0538V45.9462H19.2681V42.9819Z" fill="#0083C3"/>
<path d="M13.3394 48.9114H40.0179V51.8757H13.3394V48.9114Z" fill="#0083C3"/>
<path d="M13.3394 54.8386H42.9822V57.8029H13.3394V54.8386Z" fill="#0083C3"/>
<path d="M13.3394 60.7681H48.9108V63.7324H13.3394V60.7681Z" fill="#0083C3"/>
<path d="M22.2319 0H60.7677V2.96429H22.2319V0Z" fill="#0083C3"/>
<path d="M63.7319 0H66.6962V2.96429H63.7319V0Z" fill="#0083C3"/>
</svg>
