<svg width="85" height="86" viewBox="0 0 85 86" fill="none" xmlns="http://www.w3.org/2000/svg">
<path d="M83.8015 36.9431L83.7886 36.8977C83.6554 36.3467 83.2468 35.8943 82.6975 35.7121C82.4935 35.6444 77.6224 34.0597 70.6674 34.5478C64.2647 34.9969 54.8003 37.3644 46.0705 46.0941C37.3408 54.8239 34.9734 64.2882 34.5247 70.6905C34.0371 77.6457 35.6218 82.5163 35.6895 82.7203C35.8546 83.2178 36.245 83.6081 36.7424 83.7732C36.9193 83.832 40.6041 85.031 46.1146 85.031C46.9595 85.031 47.8476 85.0028 48.7722 84.938C55.1745 84.4891 64.6387 82.1217 73.3686 73.3922C88.8148 57.9456 84.7694 40.3195 83.8015 36.9431ZM66.7462 38.4045C68.059 38.1511 69.3961 37.9724 70.7574 37.8713C74.1214 37.6215 76.9711 37.9131 78.9116 38.2436C78.8288 38.3006 78.7494 38.3647 78.6758 38.4382L66.7462 50.3678V38.4045ZM63.4247 39.2246V53.6893L52.2929 64.8211V45.191C52.2929 45.1367 52.29 45.0832 52.2848 45.0302C55.7297 42.3632 59.4521 40.424 63.4247 39.2246ZM37.8378 70.9227C38.4331 62.432 41.993 54.8686 48.4191 48.4427C48.6023 48.2597 48.7865 48.0795 48.9715 47.901V68.0687C48.9715 68.0924 48.974 68.1154 48.9749 68.1388L38.211 78.9027C37.888 76.9977 37.6067 74.2217 37.8378 70.9227ZM48.682 81.6144C45.3388 81.8625 42.5032 81.5758 40.5633 81.2477L45.7511 76.0599C45.7568 76.0599 45.7621 76.0607 45.7677 76.0607H64.9151C59.998 79.3139 54.5638 81.1776 48.682 81.6144ZM71.02 71.0433C70.4304 71.6328 69.8309 72.198 69.2222 72.7394H49.0718L58.7107 63.1004H77.1654C75.6388 65.7493 73.635 68.4282 71.02 71.0433ZM78.8497 59.7789H62.032L81.0243 40.7867C81.0952 40.7158 81.1568 40.6394 81.2121 40.56C81.901 44.5669 82.3361 51.8511 78.8497 59.7789Z" fill="#0083C3"/>
<path d="M38.9295 46.094C30.1997 37.3643 20.7353 34.9967 14.3326 34.5477C7.37791 34.0599 2.50645 35.6444 2.30251 35.712C1.75314 35.8944 1.3446 36.3468 1.21141 36.8978L1.19845 36.9431C0.230572 40.3198 -3.81483 57.9459 11.6316 73.3923C16.5321 78.2928 22.1449 81.6991 28.3137 83.5163C28.4703 83.5625 28.6284 83.5844 28.7839 83.5844C29.5013 83.5844 30.1631 83.1157 30.3762 82.3927C30.6354 81.5128 30.1322 80.5894 29.2525 80.3303C23.6223 78.6716 18.484 75.5471 13.9804 71.0436C10.0549 67.1181 7.50279 63.0488 5.88274 59.1529H22.3417L30.3574 67.1686C30.6818 67.493 31.1068 67.6551 31.5317 67.6551C31.9567 67.6551 32.3819 67.493 32.706 67.1686C33.3546 66.5201 33.3546 65.4685 32.706 64.8198L30.8751 62.9892V43.6909C32.8643 45.0454 34.7679 46.6301 36.5807 48.4428C37.2292 49.0913 38.2808 49.0913 38.9295 48.4428C39.5782 47.7943 39.578 46.7427 38.9295 46.094ZM14.1003 37.8612C14.8275 37.9122 15.5476 37.9866 16.261 38.0811V48.3752L6.22917 38.3433C6.19097 38.3051 6.15095 38.2694 6.1101 38.2357C8.01563 37.912 10.7959 37.6292 14.1003 37.8612ZM4.70345 55.8316V55.8314C2.82399 49.5003 3.21343 43.9178 3.78356 40.5848C3.81429 40.6213 3.84601 40.6576 3.88038 40.6921L19.0199 55.8317H4.70345V55.8316ZM27.5538 59.6679L19.5824 51.6965V38.6876C22.3575 39.3404 25.0173 40.3412 27.5538 41.6855V59.6679Z" fill="#0083C3"/>
<path d="M31.3515 74.6673C28.1423 73.7218 25.0955 72.2064 22.2957 70.1633C21.5546 69.6226 20.5159 69.785 19.9751 70.5259C19.4344 71.2667 19.5968 72.3057 20.3377 72.8464C23.4466 75.1153 26.8363 76.7998 30.4127 77.8534C30.5693 77.8996 30.7274 77.9215 30.8829 77.9215C31.6003 77.9215 32.2621 77.4528 32.4752 76.7298C32.7344 75.8497 32.2314 74.9264 31.3515 74.6673Z" fill="#0083C3"/>
<path d="M18.3014 66.7322L18.2955 66.7264C17.647 66.0782 16.5986 66.081 15.9497 66.7294C15.3012 67.3779 15.3042 68.4325 15.9527 69.081C16.2771 69.4054 16.7021 69.5674 17.127 69.5674C17.552 69.5674 17.9772 69.4054 18.3014 69.081C18.9499 68.4325 18.9499 67.3809 18.3014 66.7322Z" fill="#0083C3"/>
<path d="M21.2673 21.0911H12.2749V13.867H18.4695C19.3867 13.867 20.1302 13.1235 20.1302 12.2063C20.1302 11.2891 19.3867 10.5455 18.4695 10.5455H12.2749V3.32148H21.2672C22.1844 3.32148 22.9279 2.57797 22.9279 1.66074C22.9279 0.743514 22.1844 0 21.2672 0H10.6144C9.69713 0 8.95361 0.743514 8.95361 1.66074V22.7517C8.95361 23.6689 9.69713 24.4124 10.6144 24.4124H21.2673C22.1846 24.4124 22.9281 23.6689 22.9281 22.7517C22.9281 21.8344 22.1846 21.0911 21.2673 21.0911Z" fill="#0083C3"/>
<path d="M63.7569 0C57.0264 0 51.5508 5.47563 51.5508 12.2061C51.5508 18.9366 57.0264 24.4122 63.7569 24.4122C70.4874 24.4122 75.963 18.9366 75.963 12.2061C75.963 5.47563 70.4874 0 63.7569 0ZM63.7569 21.0909C58.8579 21.0909 54.8721 17.1053 54.8721 12.2061C54.8721 7.30693 58.8577 3.32132 63.7569 3.32132C68.6561 3.32132 72.6417 7.30693 72.6417 12.2061C72.6417 17.1053 68.6559 21.0909 63.7569 21.0909Z" fill="#0083C3"/>
<path d="M45.0799 18.489C41.6159 21.9531 35.979 21.9531 32.515 18.489C29.0509 15.025 29.0509 9.3883 32.515 5.92416C35.979 2.46002 41.6157 2.46002 45.0799 5.92416C45.7284 6.57268 46.78 6.57268 47.4286 5.92416C48.0772 5.27564 48.0772 4.22406 47.4286 3.57537C42.6695 -1.18365 34.9257 -1.18365 30.1666 3.57537C25.4074 8.33456 25.4074 16.0784 30.1666 20.8375C32.5461 23.2171 35.6718 24.4069 38.7976 24.4069C41.9235 24.4069 45.0491 23.217 47.4288 20.8376C48.0773 20.1891 48.0773 19.1375 47.4288 18.4888C46.7801 17.8405 45.7285 17.8405 45.0799 18.489Z" fill="#0083C3"/>
<path d="M42.5108 28.2915C41.5936 28.2915 40.8501 29.035 40.8501 29.9522V34.6487C40.8501 35.5659 41.5936 36.3094 42.5108 36.3094C43.4281 36.3094 44.1716 35.5659 44.1716 34.6487V29.9522C44.1714 29.035 43.4279 28.2915 42.5108 28.2915Z" fill="#0083C3"/>
<path d="M52.2029 32.8683C51.5543 32.2196 50.5028 32.2198 49.8543 32.8683L46.4679 36.2545C45.8194 36.9031 45.8192 37.9546 46.4679 38.6032C46.7922 38.9275 47.2172 39.0896 47.6422 39.0896C48.0672 39.0896 48.4923 38.9273 48.8165 38.6032L52.2028 35.2169C52.8515 34.5682 52.8516 33.5166 52.2029 32.8683Z" fill="#0083C3"/>
<path d="M38.5375 36.2049L35.1456 32.8128C34.4969 32.1641 33.4455 32.1645 32.797 32.8128C32.1485 33.4613 32.1483 34.5129 32.797 35.1614L36.1889 38.5535C36.5132 38.8778 36.9382 39.0399 37.3632 39.0399C37.7882 39.0399 38.2133 38.8777 38.5375 38.5535C39.186 37.905 39.1862 36.8534 38.5375 36.2049Z" fill="#0083C3"/>
</svg>
