<svg width="61" height="69" viewBox="0 0 61 69" fill="none" xmlns="http://www.w3.org/2000/svg">
<path d="M40.9483 18.427H8.16148C7.6052 18.427 7.1543 18.8779 7.1543 19.4342C7.1543 19.9905 7.6052 20.4414 8.16148 20.4414H40.9484C41.5047 20.4414 41.9556 19.9905 41.9556 19.4342C41.9556 18.8779 41.5046 18.427 40.9483 18.427Z" fill="#0083C3"/>
<path d="M8.16148 13.4555H24.5548C25.1111 13.4555 25.562 13.0046 25.562 12.4483C25.562 11.8921 25.1111 11.4412 24.5548 11.4412H8.16148C7.6052 11.4412 7.1543 11.8921 7.1543 12.4483C7.1543 13.0048 7.6052 13.4555 8.16148 13.4555Z" fill="#0083C3"/>
<path d="M40.9483 24.6187H8.16148C7.6052 24.6187 7.1543 25.0696 7.1543 25.6258C7.1543 26.1821 7.6052 26.633 8.16148 26.633H40.9484C41.5047 26.633 41.9556 26.1821 41.9556 25.6258C41.9555 25.0696 41.5046 24.6187 40.9483 24.6187Z" fill="#0083C3"/>
<path d="M15.6303 61.467H5.13767C3.41549 61.467 2.01423 60.0659 2.01423 58.3437V5.13767C2.01423 3.41549 3.41549 2.01423 5.13767 2.01423H35.366C35.4636 2.01423 35.5598 2.02319 35.6548 2.03603V8.31741C35.6548 11.1504 37.9596 13.4551 40.7925 13.4551H47.0738C47.0867 13.5503 47.0956 13.6464 47.0956 13.7441V30.8952C47.0956 31.4515 47.5465 31.9024 48.1027 31.9024C48.659 31.9024 49.1099 31.4515 49.1099 30.8952V13.7442C49.1099 12.6394 48.6796 11.6007 47.8984 10.8193L38.2906 1.21151C37.5094 0.430313 36.4708 0 35.366 0H5.13767C2.30467 0 0 2.30481 0 5.13767V58.3437C0 61.1766 2.30481 63.4813 5.13767 63.4813H15.6303C16.1866 63.4813 16.6375 63.0304 16.6375 62.4741C16.6375 61.9178 16.1866 61.467 15.6303 61.467ZM45.6713 11.4409H40.7926C39.0704 11.4409 37.6692 10.0396 37.6692 8.31741V3.43876L45.6713 11.4409Z" fill="#0083C3"/>
<path d="M60.4718 49.3056L51.938 34.9012C51.316 33.851 49.9625 33.5038 48.9118 34.1263L46.836 35.3561C45.2248 36.3106 44.5438 38.2422 45.097 39.954C44.3976 40.2074 43.6309 40.2034 42.9248 39.9304C41.2859 39.4148 40.0399 38.3775 37.9821 38.898C34.488 39.7876 34.5942 39.7431 34.2781 39.8514C32.2321 38.6866 31.0023 38.34 28.8304 39.1801L26.8944 39.9286C25.9981 40.2749 25.0104 40.1928 24.1822 39.702L23.6538 39.3906C23.9116 37.8459 23.2266 36.2157 21.776 35.3564C21.776 35.3564 21.776 35.3564 21.7759 35.3563L19.7002 34.1266C18.6524 33.506 17.2949 33.8534 16.6742 34.9012L8.14011 49.3057C7.51818 50.3557 7.86425 51.7096 8.91475 52.3318L10.9904 53.5615C11.6184 53.9337 12.3087 54.1106 12.9907 54.1106C13.7512 54.1106 14.5009 53.8902 15.142 53.4751L15.5746 53.7304L14.6613 55.0025C13.5729 56.5186 13.9187 58.6268 15.4351 59.7153C16.1363 60.2186 17.0173 60.4485 17.9283 60.3054C18.0729 61.1504 18.5358 61.9412 19.2854 62.4796C19.9895 62.9851 20.8664 63.2152 21.7791 63.0714C21.924 63.9158 22.3867 64.7059 23.1359 65.2439C24.1428 65.9666 25.3947 66.0502 26.4379 65.6046C26.6661 66.1976 27.0629 66.733 27.6164 67.1304C29.0616 68.1677 31.0524 67.8971 32.1754 66.5533L34.6025 67.991C36.2075 68.9422 38.2784 68.4136 39.2301 66.8067C39.4735 66.3959 39.6245 65.9482 39.6797 65.488L39.6852 65.4914C41.2878 66.4405 43.3634 65.9091 44.3128 64.3069C44.5878 63.8427 44.7385 63.3393 44.7751 62.8348C46.1877 63.1899 47.7273 62.5966 48.5068 61.2808C48.7627 60.8491 48.9109 60.3829 48.9598 59.9136C50.4737 60.5077 52.2433 59.9336 53.0983 58.4904C53.5581 57.7142 53.6882 56.8054 53.4645 55.9313C53.3366 55.4312 53.1012 54.9772 52.7781 54.5938L54.1159 53.8122C55.2476 54.2768 56.539 54.2024 57.6214 53.5614L59.6967 52.3317C60.7472 51.7099 61.0942 50.3562 60.4718 49.3056ZM12.0171 51.8286L9.94146 50.5988C9.84919 50.5441 9.81857 50.4246 9.87313 50.3323L18.4072 35.9275C18.4621 35.8348 18.5821 35.8048 18.6738 35.8593L20.7493 37.0889C21.6716 37.6354 21.9601 38.8183 21.4236 39.7237L14.6519 51.1541C14.1114 52.0666 12.9296 52.369 12.0171 51.8286ZM16.6097 58.079C15.9981 57.6398 15.8582 56.7891 16.2976 56.1772L17.64 54.3073C18.0677 53.7115 18.9199 53.5485 19.5418 53.995C20.1522 54.4332 20.2922 55.2862 19.8542 55.8967L18.5116 57.7666C18.0734 58.3773 17.2199 58.5169 16.6097 58.079ZM20.4602 60.8434C19.8497 60.4051 19.7097 59.5518 20.1479 58.9415L21.4904 57.0717C21.4904 57.0717 21.4904 57.0717 21.4904 57.0715C21.4904 57.0715 21.4904 57.0714 21.4905 57.0714L22.972 55.0078C23.1843 54.7122 23.499 54.5167 23.8582 54.4578C23.9328 54.4455 24.0075 54.4395 24.0817 54.4395C24.3644 54.4395 24.6395 54.5275 24.8738 54.6956C25.1693 54.9079 25.3648 55.2224 25.4236 55.5816C25.4826 55.9409 25.3982 56.3016 25.1859 56.5972L22.3618 60.531C21.9229 61.1428 21.0721 61.2828 20.4602 60.8434ZM24.3107 63.6075C23.7005 63.1695 23.5604 62.3169 23.9978 61.7066C23.9979 61.7063 23.9982 61.706 23.9983 61.7058L26.8223 57.7721C27.2603 57.1618 28.1139 57.0217 28.7241 57.4597C29.3345 57.8979 29.4745 58.7511 29.0363 59.3615L27.7816 61.1094C27.7816 61.1094 27.7816 61.1094 27.7815 61.1095L26.2123 63.2953C25.7741 63.9057 24.9212 64.046 24.3107 63.6075ZM28.7911 65.4941C28.1811 65.056 28.0408 64.2038 28.4779 63.5934L29.4178 62.2842C29.8559 61.6737 30.7095 61.5341 31.3196 61.972C31.9299 62.4101 32.0701 63.2633 31.6319 63.8738L30.6927 65.1817C30.2547 65.7922 29.4013 65.9324 28.7911 65.4941ZM51.3657 57.4639C50.9824 58.1107 50.1448 58.3252 49.4978 57.9421C48.4024 57.2931 41.3361 53.1067 40.5827 52.6604C40.104 52.3769 39.4863 52.5348 39.2028 53.0134C38.9194 53.492 39.0773 54.1098 39.5559 54.3932L46.2958 58.3863L46.2959 58.3864C46.943 58.7697 47.1588 59.6047 46.7741 60.2544C46.3907 60.9014 45.5527 61.1155 44.906 60.7327C42.4132 59.2559 40.3891 58.0567 38.1625 56.7375C37.6836 56.454 37.0661 56.6119 36.7826 57.0905C36.4991 57.5691 36.6571 58.1869 37.1357 58.4704L42.1018 61.4125L42.1028 61.4132C42.7503 61.7976 42.964 62.6323 42.5801 63.2806C42.1967 63.9277 41.359 64.142 40.7119 63.7588L38.0467 62.1799C38.0464 62.1798 38.046 62.1797 38.0458 62.1794C38.0455 62.1793 38.0452 62.1791 38.045 62.179L36.1 61.0266C35.6213 60.743 35.0036 60.9009 34.7201 61.3796C34.4366 61.8582 34.5946 62.476 35.0732 62.7595L37.0185 63.912C37.0188 63.9121 37.0191 63.9124 37.0193 63.9125C37.6664 64.2958 37.8822 65.1307 37.4975 65.7803C37.1141 66.4274 36.2764 66.6418 35.6293 66.2585L33.3599 64.9142C34.3327 63.4131 33.9627 61.3902 32.4944 60.3362C32.0631 60.0268 31.5829 59.8341 31.0918 59.7513C31.6127 58.3583 31.1636 56.732 29.8987 55.8241C29.1499 55.2862 28.2533 55.1005 27.4071 55.2331C27.2565 54.3526 26.775 53.5813 26.0485 53.0599C24.6821 52.0793 22.8253 52.2678 21.6784 53.4281C21.4453 53.0187 21.1236 52.6515 20.7165 52.3594C19.5811 51.5445 18.107 51.5368 16.9829 52.2232L16.5214 51.9508L22.8558 41.2587L23.1573 41.4365C24.4892 42.2255 26.1144 42.39 27.6206 41.8075L29.5567 41.059C30.6645 40.6309 31.2755 40.6029 32.3713 41.12C31.6543 41.9256 31.2287 42.9831 31.2287 44.123V48.5886C31.2287 49.7747 32.1929 50.7403 33.3781 50.7411H33.3811C34.5698 50.7411 35.6877 50.2783 36.5287 49.4378C37.0189 48.9479 37.3808 48.3638 37.5977 47.7262C38.8981 48.4963 49.6421 54.8586 50.8877 55.5966C51.201 55.7822 51.4233 56.0787 51.5136 56.4314C51.6038 56.7838 51.5513 57.1506 51.3657 57.4639ZM58.6705 50.5988L56.5948 51.8286C55.6823 52.3689 54.5005 52.0662 53.9602 51.1543L50.7862 45.7968C50.5026 45.3182 49.8846 45.1602 49.4064 45.4435C48.9278 45.727 48.7697 46.3447 49.0531 46.8233L52.2271 52.181C52.2869 52.2818 52.3517 52.3777 52.4188 52.4712L51.5364 52.9866C51.358 53.0923 51.1865 53.2086 51.0224 53.335L37.3397 45.2322C36.6694 44.8354 35.8195 45.3191 35.8195 46.0987C35.8089 46.1589 35.9235 47.1941 35.1047 48.0126C34.6442 48.4728 34.032 48.7263 33.3809 48.7263C33.3804 48.7263 33.3799 48.7263 33.3793 48.7263C33.304 48.7263 33.2428 48.6643 33.2428 48.588V44.1224C33.2428 42.9559 34.0454 41.9717 35.1308 41.6969L38.4759 40.8503C39.6897 40.5435 40.3758 41.1917 42.1932 41.8068C43.4549 42.2949 44.8267 42.2648 46.0444 41.7448L46.6523 42.7709C46.9359 43.2498 47.5537 43.4076 48.0321 43.1242C48.5107 42.8407 48.6688 42.2229 48.3854 41.7444L47.1881 39.7234C46.6464 38.8091 46.9482 37.6307 47.8624 37.0887L49.9381 35.8592C50.0287 35.8053 50.1487 35.8328 50.2048 35.9275L58.7386 50.332C58.7937 50.425 58.7633 50.5438 58.6705 50.5988Z" fill="#0083C3"/>
</svg>
