<svg width="72" height="73" viewBox="0 0 72 73" fill="none" xmlns="http://www.w3.org/2000/svg">
<path d="M41.8853 63.427H39.4918V51.6991C39.4918 51.3817 39.3657 51.0773 39.1413 50.8529C38.9169 50.6285 38.6125 50.5024 38.2951 50.5024C37.9777 50.5024 37.6733 50.6285 37.4489 50.8529C37.2245 51.0773 37.0984 51.3817 37.0984 51.6991V63.427H5.98361V39.4926H15.9403C16.2577 39.4926 16.5621 39.3665 16.7865 39.1421C17.011 38.9176 17.1371 38.6132 17.1371 38.2958C17.1371 37.9785 17.011 37.6741 16.7865 37.4496C16.5621 37.2252 16.2577 37.0991 15.9403 37.0991H4.78689C4.4695 37.0991 4.16511 37.2252 3.94068 37.4496C3.71625 37.6741 3.59017 37.9785 3.59017 38.2958V63.427H1.19672C0.879331 63.427 0.574941 63.5531 0.350512 63.7775C0.126083 64.0019 0 64.3063 0 64.6237V67.0172C0 68.6041 0.630414 70.1261 1.75256 71.2482C2.8747 72.3704 4.39666 73.0008 5.98361 73.0008H37.0984C38.6853 73.0008 40.2073 72.3704 41.3294 71.2482C42.4516 70.1261 43.082 68.6041 43.082 67.0172V64.6237C43.082 64.3063 42.9559 64.0019 42.7315 63.7775C42.507 63.5531 42.2027 63.427 41.8853 63.427ZM40.6885 67.0172C40.6885 67.9693 40.3103 68.8825 39.637 69.5558C38.9637 70.2291 38.0505 70.6073 37.0984 70.6073H34.7049V69.4106C34.7049 69.0932 34.5788 68.7888 34.3544 68.5644C34.13 68.34 33.8256 68.2139 33.5082 68.2139C33.1908 68.2139 32.8864 68.34 32.662 68.5644C32.4376 68.7888 32.3115 69.0932 32.3115 69.4106V70.6073H10.7705V69.4106C10.7705 69.0932 10.6444 68.7888 10.42 68.5644C10.1956 68.34 9.89116 68.2139 9.57377 68.2139C9.25638 68.2139 8.95199 68.34 8.72756 68.5644C8.50314 68.7888 8.37705 69.0932 8.37705 69.4106V70.6073H5.98361C5.03144 70.6073 4.11827 70.2291 3.44498 69.5558C2.77169 68.8825 2.39344 67.9693 2.39344 67.0172V65.8204H40.6885V67.0172Z" fill="#0083C3"/>
<path d="M62.2297 8.37684H64.6231C64.9405 8.37684 65.2449 8.25076 65.4694 8.02633C65.6938 7.8019 65.8199 7.49751 65.8199 7.18012C65.8199 6.86273 65.6938 6.55834 65.4694 6.33391C65.2449 6.10948 64.9405 5.9834 64.6231 5.9834H62.2297C61.2775 5.9834 60.3644 6.36165 59.6911 7.03493C59.0178 7.70822 58.6395 8.62139 58.6395 9.57356V10.7703H57.4428C57.1254 10.7703 56.821 10.8964 56.5966 11.1208C56.3722 11.3452 56.2461 11.6496 56.2461 11.967C56.2461 12.2844 56.3722 12.5888 56.5966 12.8132C56.821 13.0376 57.1254 13.1637 57.4428 13.1637H58.6395V16.7539C58.6395 17.0713 58.7656 17.3757 58.99 17.6001C59.2145 17.8245 59.5189 17.9506 59.8363 17.9506C60.1536 17.9506 60.458 17.8245 60.6825 17.6001C60.9069 17.3757 61.033 17.0713 61.033 16.7539V13.1637H62.2297C62.5471 13.1637 62.8515 13.0376 63.0759 12.8132C63.3003 12.5888 63.4264 12.2844 63.4264 11.967C63.4264 11.6496 63.3003 11.3452 63.0759 11.1208C62.8515 10.8964 62.5471 10.7703 62.2297 10.7703H61.033V9.57356C61.033 9.25617 61.1591 8.95178 61.3835 8.72735C61.6079 8.50293 61.9123 8.37684 62.2297 8.37684Z" fill="#0083C3"/>
<path d="M68.2135 1.19678H53.8529C52.9007 1.19678 51.9875 1.57503 51.3142 2.24831C50.6409 2.9216 50.2627 3.83477 50.2627 4.78694V7.18039C50.2627 7.49778 50.3888 7.80217 50.6132 8.0266C50.8376 8.25103 51.142 8.37711 51.4594 8.37711C51.7768 8.37711 52.0812 8.25103 52.3056 8.0266C52.5301 7.80217 52.6561 7.49778 52.6561 7.18039V4.78694C52.6561 4.46955 52.7822 4.16516 53.0066 3.94073C53.2311 3.7163 53.5355 3.59022 53.8529 3.59022H68.2135C68.5309 3.59022 68.8353 3.7163 69.0597 3.94073C69.2842 4.16516 69.4102 4.46955 69.4102 4.78694V19.1476C69.4102 19.465 69.2842 19.7694 69.0597 19.9938C68.8353 20.2182 68.5309 20.3443 68.2135 20.3443H53.8529C53.5355 20.3443 53.2311 20.2182 53.0066 19.9938C52.7822 19.7694 52.6561 19.465 52.6561 19.1476V11.9673C52.6561 11.6499 52.5301 11.3455 52.3056 11.1211C52.0812 10.8966 51.7768 10.7706 51.4594 10.7706C51.142 10.7706 50.8376 10.8966 50.6132 11.1211C50.3888 11.3455 50.2627 11.6499 50.2627 11.9673V19.1476C50.2627 20.0998 50.6409 21.0129 51.3142 21.6862C51.9875 22.3595 52.9007 22.7378 53.8529 22.7378H68.2135C69.1657 22.7378 70.0789 22.3595 70.7522 21.6862C71.4254 21.0129 71.8037 20.0998 71.8037 19.1476V4.78694C71.8037 3.83477 71.4254 2.9216 70.7522 2.24831C70.0789 1.57503 69.1657 1.19678 68.2135 1.19678Z" fill="#0083C3"/>
<path d="M56.2461 49.0662C56.2461 50.0129 56.5268 50.9384 57.0528 51.7256C57.5788 52.5128 58.3264 53.1264 59.2011 53.4887C60.0758 53.851 61.0383 53.9458 61.9669 53.7611C62.8954 53.5764 63.7484 53.1205 64.4178 52.451C65.0873 51.7816 65.5432 50.9286 65.7279 50.0001C65.9126 49.0715 65.8178 48.109 65.4555 47.2343C65.0932 46.3596 64.4796 45.612 63.6924 45.086C62.9052 44.56 61.9797 44.2793 61.033 44.2793C59.7634 44.2793 58.5459 44.7836 57.6481 45.6813C56.7504 46.5791 56.2461 47.7966 56.2461 49.0662ZM63.4264 49.0662C63.4264 49.5396 63.2861 50.0023 63.0231 50.3959C62.7601 50.7895 62.3863 51.0963 61.9489 51.2774C61.5116 51.4586 61.0303 51.506 60.566 51.4136C60.1018 51.3213 59.6753 51.0933 59.3406 50.7586C59.0058 50.4239 58.7779 49.9974 58.6855 49.5331C58.5932 49.0688 58.6406 48.5876 58.8217 48.1503C59.0029 47.7129 59.3097 47.3391 59.7033 47.0761C60.0969 46.8131 60.5596 46.6727 61.033 46.6727C61.6678 46.6727 62.2765 46.9249 62.7254 47.3738C63.1743 47.8226 63.4264 48.4314 63.4264 49.0662Z" fill="#0083C3"/>
<path d="M68.2135 38.2959H53.8529C52.9007 38.2959 51.9875 38.6741 51.3142 39.3474C50.6409 40.0207 50.2627 40.9339 50.2627 41.8861V56.2467C50.2627 57.1989 50.6409 58.1121 51.3142 58.7854C51.9875 59.4586 52.9007 59.8369 53.8529 59.8369H68.2135C69.1657 59.8369 70.0789 59.4586 70.7522 58.7854C71.4254 58.1121 71.8037 57.1989 71.8037 56.2467V53.8533C71.8037 53.5359 71.6776 53.2315 71.4532 53.0071C71.2287 52.7826 70.9244 52.6566 70.607 52.6566C70.2896 52.6566 69.9852 52.7826 69.7608 53.0071C69.5363 53.2315 69.4102 53.5359 69.4102 53.8533V56.2467C69.4102 56.5641 69.2842 56.8685 69.0597 57.0929C68.8353 57.3174 68.5309 57.4434 68.2135 57.4434H53.8529C53.5355 57.4434 53.2311 57.3174 53.0066 57.0929C52.7822 56.8685 52.6561 56.5641 52.6561 56.2467V41.8861C52.6561 41.5687 52.7822 41.2643 53.0066 41.0399C53.2311 40.8154 53.5355 40.6893 53.8529 40.6893H68.2135C68.5309 40.6893 68.8353 40.8154 69.0597 41.0399C69.2842 41.2643 69.4102 41.5687 69.4102 41.8861V49.0664C69.4102 49.3838 69.5363 49.6882 69.7608 49.9126C69.9852 50.137 70.2896 50.2631 70.607 50.2631C70.9244 50.2631 71.2287 50.137 71.4532 49.9126C71.6776 49.6882 71.8037 49.3838 71.8037 49.0664V41.8861C71.8037 40.9339 71.4254 40.0207 70.7522 39.3474C70.0789 38.6741 69.1657 38.2959 68.2135 38.2959Z" fill="#0083C3"/>
<path d="M26.8906 15.3772C27.081 15.4952 27.3008 15.5574 27.5248 15.5567C27.7122 15.5556 27.8966 15.5105 28.0634 15.4251L35.2437 11.8349C35.4397 11.7345 35.6042 11.5819 35.7191 11.394C35.834 11.2061 35.8948 10.9901 35.8948 10.7698C35.8948 10.5496 35.834 10.3336 35.7191 10.1457C35.6042 9.95776 35.4397 9.80518 35.2437 9.70476L28.0634 6.11459C27.8812 6.02279 27.6786 5.97908 27.4748 5.98762C27.2709 5.99616 27.0727 6.05666 26.8988 6.16337C26.725 6.27009 26.5813 6.41947 26.4814 6.59735C26.3815 6.77522 26.3287 6.97567 26.3281 7.17967V14.36C26.3277 14.5634 26.3791 14.7635 26.4776 14.9415C26.576 15.1195 26.7181 15.2694 26.8906 15.3772ZM28.7216 9.11836L32.0245 10.7698L28.7216 12.4213V9.11836Z" fill="#0083C3"/>
<path d="M29.918 21.541C32.0482 21.541 34.1305 20.9093 35.9017 19.7258C37.6729 18.5424 39.0534 16.8602 39.8686 14.8922C40.6838 12.9241 40.8971 10.7586 40.4815 8.66928C40.0659 6.58001 39.0401 4.66089 37.5338 3.15461C36.0276 1.64833 34.1084 0.622539 32.0192 0.206957C29.9299 -0.208625 27.7643 0.00466663 25.7963 0.81986C23.8282 1.63505 22.1461 3.01554 20.9626 4.78673C19.7791 6.55793 19.1475 8.6403 19.1475 10.7705C19.1475 13.627 20.2822 16.3665 22.3021 18.3864C24.3219 20.4062 27.0614 21.541 29.918 21.541ZM29.918 2.39345C31.5748 2.39345 33.1944 2.88475 34.572 3.80524C35.9496 4.72572 37.0233 6.03404 37.6573 7.56474C38.2914 9.09545 38.4573 10.7798 38.134 12.4048C37.8108 14.0298 37.013 15.5224 35.8414 16.694C34.6699 17.8655 33.1772 18.6634 31.5522 18.9866C29.9273 19.3098 28.2429 19.1439 26.7122 18.5099C25.1815 17.8758 23.8732 16.8021 22.9527 15.4245C22.0322 14.0469 21.5409 12.4273 21.5409 10.7705C21.5409 8.54877 22.4235 6.41803 23.9945 4.84703C25.5655 3.27603 27.6962 2.39345 29.918 2.39345Z" fill="#0083C3"/>
<path d="M41.8852 26.3276C42.071 26.3276 42.2542 26.2843 42.4204 26.2012C42.5866 26.1181 42.7311 25.9975 42.8426 25.8489L46.4327 21.062C46.6232 20.8081 46.7049 20.4889 46.6601 20.1747C46.6152 19.8605 46.4473 19.577 46.1934 19.3866C45.9395 19.1961 45.6203 19.1144 45.3061 19.1592C44.9919 19.2041 44.7084 19.372 44.518 19.6259L40.9278 24.4128C40.7374 24.6667 40.6556 24.9859 40.7005 25.3001C40.7454 25.6143 40.9133 25.8978 41.1672 26.0882C41.3743 26.2436 41.6263 26.3276 41.8852 26.3276Z" fill="#0083C3"/>
<path d="M44.5177 30.6355C44.6291 30.7842 44.7737 30.9048 44.9399 30.9879C45.106 31.071 45.2893 31.1142 45.475 31.1142C45.734 31.1142 45.9859 31.0302 46.1931 30.8749L50.98 27.2847C51.2339 27.0943 51.4017 26.8108 51.4466 26.4966C51.4915 26.1824 51.4097 25.8632 51.2193 25.6093C51.0289 25.3554 50.7454 25.1875 50.4312 25.1426C50.117 25.0978 49.7978 25.1795 49.5439 25.37L44.757 28.9601C44.5031 29.1506 44.3352 29.4341 44.2904 29.7483C44.2455 30.0625 44.3272 30.3816 44.5177 30.6355Z" fill="#0083C3"/>
<path d="M56.2459 33.269C56.2174 33.1103 56.1572 32.9591 56.0689 32.8242C55.9805 32.6894 55.8659 32.5738 55.7317 32.4844C55.5976 32.395 55.4468 32.3336 55.2884 32.3039C55.13 32.2742 54.9672 32.2769 54.8098 32.3116L48.8262 33.5083C48.669 33.5241 48.5165 33.5706 48.3773 33.6452C48.2381 33.7199 48.115 33.8212 48.015 33.9435C47.813 34.1903 47.7174 34.5073 47.7491 34.8247C47.7809 35.1421 47.9374 35.4339 48.1843 35.6359C48.4311 35.8379 48.7481 35.9335 49.0655 35.9018H49.3049L55.2885 34.7051C55.4471 34.6766 55.5984 34.6164 55.7332 34.5281C55.868 34.4397 55.9836 34.3251 56.073 34.1909C56.1625 34.0568 56.2238 33.906 56.2535 33.7476C56.2832 33.5892 56.2806 33.4264 56.2459 33.269Z" fill="#0083C3"/>
<path d="M1.19672 33.508H15.5574C15.8748 33.508 16.1792 33.382 16.4036 33.1575C16.628 32.9331 16.7541 32.6287 16.7541 32.3113V13.1638C16.7541 12.8464 16.628 12.542 16.4036 12.3176C16.1792 12.0931 15.8748 11.967 15.5574 11.967H1.19672C0.879331 11.967 0.574941 12.0931 0.350512 12.3176C0.126083 12.542 0 12.8464 0 13.1638V32.3113C0 32.6287 0.126083 32.9331 0.350512 33.1575C0.574941 33.382 0.879331 33.508 1.19672 33.508ZM2.39344 14.3605H14.3607V31.1146H2.39344V14.3605Z" fill="#0083C3"/>
<path d="M10.7699 16.7537H8.37641C8.05902 16.7537 7.75463 16.8797 7.5302 17.1042C7.30577 17.3286 7.17969 17.633 7.17969 17.9504C7.17969 18.2678 7.30577 18.5722 7.5302 18.7966C7.75463 19.021 8.05902 19.1471 8.37641 19.1471H10.7699C11.0872 19.1471 11.3916 19.021 11.6161 18.7966C11.8405 18.5722 11.9666 18.2678 11.9666 17.9504C11.9666 17.633 11.8405 17.3286 11.6161 17.1042C11.3916 16.8797 11.0872 16.7537 10.7699 16.7537Z" fill="#0083C3"/>
<path d="M10.7707 21.5405H5.98383C5.66644 21.5405 5.36205 21.6666 5.13762 21.891C4.91319 22.1155 4.78711 22.4199 4.78711 22.7372C4.78711 23.0546 4.91319 23.359 5.13762 23.5835C5.36205 23.8079 5.66644 23.934 5.98383 23.934H10.7707C11.0881 23.934 11.3925 23.8079 11.6169 23.5835C11.8414 23.359 11.9674 23.0546 11.9674 22.7372C11.9674 22.4199 11.8414 22.1155 11.6169 21.891C11.3925 21.6666 11.0881 21.5405 10.7707 21.5405Z" fill="#0083C3"/>
<path d="M10.7707 26.3274H5.98383C5.66644 26.3274 5.36205 26.4535 5.13762 26.6779C4.91319 26.9023 4.78711 27.2067 4.78711 27.5241C4.78711 27.8415 4.91319 28.1459 5.13762 28.3703C5.36205 28.5948 5.66644 28.7208 5.98383 28.7208H10.7707C11.0881 28.7208 11.3925 28.5948 11.6169 28.3703C11.8414 28.1459 11.9674 27.8415 11.9674 27.5241C11.9674 27.2067 11.8414 26.9023 11.6169 26.6779C11.3925 26.4535 11.0881 26.3274 10.7707 26.3274Z" fill="#0083C3"/>
<path d="M40.8324 33.1501C40.7538 33.0134 40.6491 32.8935 40.5242 32.7972C40.3993 32.701 40.2566 32.6303 40.1044 32.5892C39.9521 32.5481 39.7933 32.5373 39.6369 32.5576C39.4805 32.5779 39.3296 32.6288 39.1929 32.7073C39.0562 32.7859 38.9363 32.8906 38.84 33.0156C38.7438 33.1405 38.6731 33.2831 38.632 33.4354C38.5909 33.5876 38.5801 33.7465 38.6004 33.9029C38.6207 34.0593 38.6716 34.2101 38.7501 34.3468L44.0277 43.4778L24.8801 50.6582C24.8801 50.6582 24.8801 50.6582 24.7964 50.6582H24.7006L21.5891 52.4532L19.5188 53.65C19.2463 53.8075 18.9453 53.9098 18.6331 53.9508C18.321 53.9919 18.0038 53.971 17.6998 53.8893C17.089 53.7243 16.5684 53.3242 16.2518 52.7764L13.8583 48.6357C13.5767 48.094 13.5128 47.4651 13.6797 46.8778C13.8465 46.2905 14.2315 45.7891 14.7559 45.4764L18.8965 43.0829L21.8883 48.2647C21.9938 48.4473 22.1456 48.5989 22.3284 48.7039C22.5112 48.809 22.7186 48.8639 22.9295 48.8631C23.1399 48.8639 23.3469 48.8092 23.5295 48.7045C23.7121 48.5998 23.8638 48.4488 23.9694 48.2668C24.075 48.0847 24.1307 47.878 24.131 47.6675C24.1312 47.4571 24.0759 47.2503 23.9706 47.068L20.8831 41.7306L35.9019 29.3445L36.3926 30.1942C36.4712 30.3309 36.5759 30.4509 36.7008 30.5471C36.8257 30.6433 36.9684 30.714 37.1206 30.7552C37.2729 30.7963 37.4317 30.807 37.5881 30.7867C37.7445 30.7665 37.8954 30.7156 38.0321 30.637C38.1688 30.5584 38.2887 30.4537 38.385 30.3288C38.4812 30.2038 38.5519 30.0612 38.593 29.909C38.6342 29.7567 38.6449 29.5979 38.6246 29.4415C38.6043 29.2851 38.5535 29.1342 38.4749 28.9975L37.2782 26.9272C37.1905 26.7772 37.0712 26.6482 36.9286 26.549C36.786 26.4498 36.6235 26.3828 36.4524 26.3527C36.2804 26.3203 36.1034 26.326 35.9339 26.3694C35.7643 26.4129 35.6064 26.4929 35.4711 26.604L18.717 40.4142L13.619 43.3582C12.7041 43.891 11.9917 44.7122 11.5933 45.6931C11.1948 46.6741 11.1328 47.7594 11.417 48.7793L10.2203 49.4614C9.60368 49.8155 9.1061 50.3447 8.79064 50.982C8.47518 51.6192 8.35605 52.3358 8.44834 53.0408C8.54064 53.7458 8.8402 54.4076 9.30906 54.9421C9.77792 55.4767 10.395 55.86 11.0819 56.0434C11.3865 56.1241 11.7003 56.1643 12.0154 56.1631C12.6449 56.1605 13.2632 55.9956 13.8104 55.6844L15.0072 55.0023C15.582 55.5961 16.305 56.0258 17.1014 56.2469C17.5104 56.3612 17.9334 56.4176 18.358 56.4144C19.1992 56.4163 20.0255 56.1932 20.7514 55.7682L21.7926 55.1698L24.186 59.3224C24.6617 60.1448 25.4439 60.7451 26.3614 60.9919C27.2788 61.2386 28.2566 61.1117 29.0806 60.6388C29.4894 60.4033 29.8478 60.0895 30.1352 59.7153C30.4227 59.3412 30.6335 58.9141 30.7558 58.4584C30.8781 58.0027 30.9093 57.5274 30.8477 57.0596C30.7862 56.5918 30.633 56.1408 30.397 55.7323L28.219 51.9387L46.1698 45.2011C46.3326 45.1399 46.4801 45.044 46.602 44.92C46.724 44.796 46.8174 44.6469 46.8759 44.4831C46.9341 44.3212 46.9568 44.1487 46.9423 43.9773C46.9279 43.8059 46.8766 43.6396 46.7921 43.4898L40.8324 33.1501ZM12.5659 53.6021C12.4296 53.6809 12.2791 53.732 12.123 53.7525C11.967 53.7731 11.8084 53.7626 11.6563 53.7218C11.3497 53.6421 11.0872 53.4442 10.9263 53.1713C10.8476 53.035 10.7964 52.8845 10.7759 52.7284C10.7554 52.5724 10.7658 52.4138 10.8067 52.2618C10.8475 52.109 10.9183 51.9658 11.0148 51.8405C11.1114 51.7152 11.2318 51.6102 11.3691 51.5318L12.4103 50.9334L13.607 53.0037L12.5659 53.6021ZM28.3147 56.9529C28.3935 57.0892 28.4446 57.2397 28.4652 57.3957C28.4857 57.5518 28.4752 57.7104 28.4344 57.8624C28.349 58.1666 28.1469 58.4248 27.8719 58.5805C27.5986 58.7375 27.2743 58.7803 26.9696 58.6996C26.6649 58.619 26.4042 58.4213 26.2444 58.1496L23.8509 53.997L25.8375 52.8601H25.9332L28.3147 56.9529Z" fill="#0083C3"/>
</svg>
