<svg width="71" height="71" viewBox="0 0 71 71" fill="none" xmlns="http://www.w3.org/2000/svg">
<path d="M67.7379 44.1744L69.7685 42.1444C71.0464 40.8659 71.0464 38.7861 69.7685 37.5077C69.149 36.8887 68.326 36.5476 67.4498 36.5476C66.7925 36.5476 66.1643 36.7398 65.6304 37.0978L65.2027 35.6617L67.4006 33.4633C68.679 32.1849 68.679 30.105 67.4006 28.8271C66.2239 27.6499 64.3688 27.5595 63.0838 28.5499L60.4793 19.806C61.5195 18.8042 62.5158 17.8296 63.4548 16.8906C66.1606 14.1843 68.3606 11.3204 69.6499 8.82521C71.8283 4.60813 70.9164 2.35393 69.7679 1.20544C68.62 0.0569467 66.3658 -0.854372 62.1482 1.32402C59.6535 2.61275 56.7891 4.81281 54.0833 7.51915C53.1443 8.45808 52.1691 9.45387 51.1679 10.4941L42.4235 7.88952C43.4139 6.60512 43.3234 4.74999 42.1468 3.57281C40.8683 2.2949 38.7885 2.29436 37.5106 3.57281L35.3122 5.77124L33.8756 5.34346C34.2335 4.80902 34.4258 4.18089 34.4258 3.52353C34.4258 2.64795 34.0846 1.82435 33.4657 1.20544C32.1878 -0.0730096 30.1074 -0.0730096 28.8295 1.20544L26.7995 3.23546L16.4523 0.153331C16.0835 0.0439512 15.685 0.144667 15.4137 0.416493L12.7501 3.08006C12.3029 3.52678 12.3619 4.29082 12.872 4.6639L38.9791 23.7734C33.0926 30.4104 27.4222 37.0555 23.419 41.8033L15.7397 38.8495C15.3536 38.7011 14.9166 38.7937 14.6242 39.0861L11.4673 42.2429C11.0591 42.6518 11.0591 43.314 11.4673 43.7223L27.2511 59.506C27.6539 59.9094 28.3276 59.9094 28.731 59.506L31.8873 56.3497C32.1797 56.0573 32.2728 55.6198 32.1239 55.2337L29.1706 47.5549C33.9184 43.5517 40.5629 37.8813 47.2005 31.9943L49.2744 34.8284C49.6426 35.3314 50.3893 35.3964 50.8409 34.9676C51.2172 34.6102 51.2692 34.0107 50.9632 33.5927L48.7708 30.5972C52.2417 27.4994 55.6693 24.3739 58.779 21.4288L68.6368 54.5216L67.2771 55.8808L53.7286 37.3707C53.3875 36.9044 52.7328 36.8032 52.2666 37.1443C51.7998 37.486 51.6986 38.1407 52.0403 38.6069L66.31 58.1019C66.6831 58.612 67.4471 58.671 67.8938 58.2238L70.5574 55.5602C70.8292 55.2889 70.93 54.8899 70.8206 54.5216L67.7379 44.1744ZM38.9905 5.05269C39.4475 4.59567 40.2104 4.59567 40.6675 5.05269C41.1299 5.51511 41.1299 6.26724 40.6675 6.72966L40.1769 7.22025L37.5924 6.45026L38.9905 5.05269ZM30.3094 2.68531C30.7713 2.22289 31.5239 2.22289 31.9864 2.68531C32.4488 3.14774 32.4488 3.89986 31.9864 4.36229L31.6636 4.68448L29.0797 3.91503L30.3094 2.68531ZM15.0926 3.69627L16.4523 2.33714L49.5451 12.1943C46.6 15.3046 43.4745 18.7322 40.3761 22.2031L15.0926 3.69627ZM15.6232 41.0468L21.9938 43.497C20.3959 45.3998 19.1705 46.8721 18.4476 47.7433L13.6869 42.9826L15.6232 41.0468ZM19.934 49.2297C23.5814 44.8291 42.861 21.7006 55.5632 8.99848C58.0832 6.47787 60.834 4.3585 63.1087 3.18348C64.8166 2.30086 67.1017 1.49838 68.2886 2.68531C69.4755 3.87225 68.6725 6.15731 67.7904 7.86516C66.6154 10.1399 64.4955 12.8901 61.9749 15.4107C49.2738 28.1118 26.1448 47.3919 21.7442 51.0399L19.934 49.2297ZM29.9271 55.3507L27.9913 57.2865L23.2306 52.5257C24.1013 51.8034 25.5741 50.578 27.4769 48.9801L29.9271 55.3507ZM66.6116 38.9875C67.074 38.5251 67.8262 38.5251 68.2886 38.9875C68.751 39.45 68.751 40.2021 68.2886 40.6645L67.0589 41.8942L66.2889 39.3103L66.6116 38.9875ZM64.2442 30.3064C64.7061 29.844 65.4588 29.8446 65.9212 30.3064C66.3782 30.7635 66.3782 31.5264 65.9212 31.9834L64.5231 33.3815L63.7531 30.797L64.2442 30.3064Z" fill="#0083C3"/>
<path d="M62.8066 60.2591L53.8781 69.1876C53.4974 69.5688 53.4719 70.198 53.8223 70.6074C54.2138 71.0644 54.9323 71.0931 55.3579 70.6675L64.2865 61.739C64.6953 61.3301 64.6953 60.6679 64.2865 60.2591C63.8782 59.8508 63.2154 59.8508 62.8066 60.2591Z" fill="#0083C3"/>
<path d="M59.8217 57.2737C60.2305 56.8655 60.2305 56.2027 59.8217 55.7944C59.4134 55.3856 58.7507 55.3856 58.3424 55.7944L52.7618 61.3744C52.3812 61.7556 52.3557 62.3848 52.7061 62.7942C53.0976 63.2512 53.8161 63.2799 54.2417 62.8543L59.8217 57.2737Z" fill="#0083C3"/>
<path d="M56.4741 51.6942C56.8829 51.2854 56.8829 50.6226 56.4741 50.2143C56.0653 49.8055 55.403 49.8055 54.9942 50.2143L51.0879 54.1206C50.7073 54.5013 50.6818 55.131 51.0327 55.5404C51.4237 55.9974 52.1422 56.0261 52.5678 55.6005L56.4741 51.6942Z" fill="#0083C3"/>
<path d="M10.715 7.24713C10.3062 6.83885 9.64344 6.83885 9.23516 7.24713L0.306616 16.1762C-0.102205 16.5845 -0.102205 17.2473 0.306616 17.6555C0.70948 18.0584 1.38309 18.0584 1.78649 17.6555L10.715 8.72701C11.1233 8.31818 11.1233 7.65595 10.715 7.24713Z" fill="#0083C3"/>
<path d="M15.1793 11.7107C14.7705 11.3018 14.1083 11.3018 13.7 11.7107L8.11946 17.2912C7.73825 17.6719 7.71334 18.3011 8.06368 18.7104C8.45518 19.1675 9.17319 19.1962 9.59879 18.7705L15.1793 13.1905C15.5882 12.7817 15.5882 12.1189 15.1793 11.7107Z" fill="#0083C3"/>
<path d="M15.3736 20.4431C15.777 20.846 16.4501 20.846 16.8535 20.4431L20.7597 16.5368C21.168 16.128 21.168 15.4658 20.7597 15.0569C20.3509 14.6487 19.6887 14.6487 19.2799 15.0569L15.3736 18.9632C14.9653 19.372 14.9653 20.0343 15.3736 20.4431Z" fill="#0083C3"/>
</svg>
