<svg width="67" height="68" viewBox="0 0 67 68" fill="none" xmlns="http://www.w3.org/2000/svg">
<path d="M61.4177 43.651V33.5003C61.4177 32.8836 60.9177 32.3835 60.301 32.3835H49.1339C48.5172 32.3835 48.0172 32.8836 48.0172 33.5003V43.5506H40.2002V33.5003C40.2002 32.8836 39.7002 32.3835 39.0835 32.3835H27.9164C27.2997 32.3835 26.7997 32.8836 26.7997 33.5003V43.5506H6.69897C3.23107 43.5708 0.351507 46.2339 0.0608796 49.6903C-0.229203 53.1462 2.16616 56.2526 5.58226 56.8508V64.7681H3.34884V67.0015H10.0491V64.7681H7.81568V56.9511H59.1843V64.7681H56.9508V67.0015H63.6511V64.7681H61.4177V56.8508C64.6402 56.3088 67.0001 53.5187 67.0001 50.2509C67.0001 46.9831 64.6402 44.193 61.4177 43.651ZM50.2506 34.617H59.1843V43.5506H50.2506V34.617ZM29.0331 34.617H37.9668V43.5506H29.0331V34.617ZM6.69897 54.7177C4.23218 54.7177 2.23214 52.7177 2.23214 50.2509C2.23214 47.7841 4.23218 45.784 6.69897 45.784C9.16576 45.784 11.1658 47.7841 11.1658 50.2509C11.1658 52.7177 9.16576 54.7177 6.69897 54.7177ZM55.3205 54.7177H11.6794C13.9723 52.1811 13.9723 48.3206 11.6794 45.784H55.3205C53.0276 48.3206 53.0276 52.1811 55.3205 54.7177ZM60.301 54.7177C57.8342 54.7177 55.8341 52.7177 55.8341 50.2509C55.8341 47.7841 57.8342 45.784 60.301 45.784C62.7678 45.784 64.7678 47.7841 64.7678 50.2509C64.7678 52.7177 62.7678 54.7177 60.301 54.7177Z" fill="#0083C3"/>
<path d="M8.93168 50.2527C8.93168 51.4861 7.93166 52.4861 6.69826 52.4861C5.46486 52.4861 4.46484 51.4861 4.46484 50.2527C4.46484 49.0193 5.46486 48.0193 6.69826 48.0193C7.93166 48.0193 8.93168 49.0193 8.93168 50.2527Z" fill="#0083C3"/>
<path d="M20.0996 50.2527C20.0996 51.4861 19.0996 52.4861 17.8662 52.4861C16.6328 52.4861 15.6328 51.4861 15.6328 50.2527C15.6328 49.0193 16.6328 48.0193 17.8662 48.0193C19.0996 48.0193 20.0996 49.0193 20.0996 50.2527Z" fill="#0083C3"/>
<path d="M27.9161 50.2527C27.9161 51.4861 26.916 52.4861 25.6826 52.4861C24.4492 52.4861 23.4492 51.4861 23.4492 50.2527C23.4492 49.0193 24.4492 48.0193 25.6826 48.0193C26.916 48.0193 27.9161 49.0193 27.9161 50.2527Z" fill="#0083C3"/>
<path d="M35.7334 50.2527C35.7334 51.4861 34.7334 52.4861 33.5 52.4861C32.2666 52.4861 31.2666 51.4861 31.2666 50.2527C31.2666 49.0193 32.2666 48.0193 33.5 48.0193C34.7334 48.0193 35.7334 49.0193 35.7334 50.2527Z" fill="#0083C3"/>
<path d="M43.5508 50.2527C43.5508 51.4861 42.5508 52.4861 41.3174 52.4861C40.084 52.4861 39.084 51.4861 39.084 50.2527C39.084 49.0193 40.084 48.0193 41.3174 48.0193C42.5508 48.0193 43.5508 49.0193 43.5508 50.2527Z" fill="#0083C3"/>
<path d="M51.3672 50.2527C51.3672 51.4861 50.3672 52.4861 49.1338 52.4861C47.9004 52.4861 46.9004 51.4861 46.9004 50.2527C46.9004 49.0193 47.9004 48.0193 49.1338 48.0193C50.3672 48.0193 51.3672 49.0193 51.3672 50.2527Z" fill="#0083C3"/>
<path d="M62.5342 50.2527C62.5342 51.4861 61.5342 52.4861 60.3008 52.4861C59.0674 52.4861 58.0674 51.4861 58.0674 50.2527C58.0674 49.0193 59.0674 48.0193 60.3008 48.0193C61.5342 48.0193 62.5342 49.0193 62.5342 50.2527Z" fill="#0083C3"/>
<path d="M6.69972 27.918C6.08302 27.918 5.58301 28.418 5.58301 29.0347V40.2018C5.58301 40.8185 6.08302 41.3185 6.69972 41.3185H17.8668C18.4835 41.3185 18.9835 40.8185 18.9835 40.2018V29.0347C18.9835 28.418 18.4835 27.918 17.8668 27.918H6.69972ZM16.7501 39.0851H7.81642V30.1514H16.7501V39.0851Z" fill="#0083C3"/>
<path d="M5.58239 0V16.3935L0.207685 23.9187C-0.0349594 24.259 -0.0676755 24.7066 0.123714 25.0785C0.314557 25.4498 0.697335 25.6837 1.11556 25.6843H23.4497C23.8679 25.6837 24.2507 25.4498 24.4421 25.0785C24.633 24.7066 24.6008 24.259 24.3576 23.9187L18.9829 16.3935V0H16.7495V2.23342H7.81581V0H5.58239ZM7.81581 8.93367H16.7495V11.1671H7.81581V8.93367ZM7.81581 13.4005H16.7495V15.6339H7.81581V13.4005ZM17.2909 17.8673L21.2801 23.4509H3.28518L7.27435 17.8673H17.2909ZM16.7495 4.46683V6.70025H7.81581V4.46683H16.7495Z" fill="#0083C3"/>
</svg>
