<svg width="591" height="391" viewBox="0 0 591 391" fill="none" xmlns="http://www.w3.org/2000/svg">
<path d="M190.833 240.434L191.073 240.338C207.872 226.015 228.197 220.455 249.307 216.546C258.139 214.944 261.762 216.546 258.796 226.335C254.324 241.075 250.91 256.152 246.213 270.828C241.658 284.683 234.094 297.36 224.061 307.95C215.421 317.291 205.596 325.99 200.546 338.087C195.738 349.638 188.028 355.07 175.06 354.862C154.559 354.525 143.274 369.826 129.858 382.002C134.859 386.36 138.498 377.981 142.858 383.316C147.217 388.651 153.822 387.93 159.881 389.404C177.513 393.698 194.648 387.914 211.975 388.379C218.932 388.555 224.141 386.777 230.296 383.572C255.59 370.899 276.012 351.93 297.907 334.69C319.354 317.803 340.144 300.836 353.897 276.772C358.626 268.52 364.284 267.158 368.884 276.387C371.625 281.882 375.937 285.215 380.105 289.012C393.452 300.996 406.761 313.029 420.033 325.109C422.71 327.544 425.435 330.396 424.025 334.21C422.71 337.766 418.911 336.629 416.01 336.997C397.176 339.352 383.503 350.087 380.217 364.939C383.936 368.816 388.135 370.595 393.377 368.144C410.079 368.784 426.541 364.939 443.34 365.981C451.963 366.493 461.052 364.763 465.78 355.663C470.781 346.05 475.398 336.26 480.207 326.551C484.15 318.636 484.198 311.443 480.623 302.663C474.468 287.474 465.732 273.135 462.414 257.529C485.721 251.265 508.001 263.265 530.618 257.69C531.057 257.656 531.498 257.731 531.901 257.907C532.305 258.083 532.659 258.356 532.932 258.7C533.206 259.045 533.391 259.452 533.471 259.884C533.551 260.317 533.524 260.763 533.391 261.182C528.102 287.698 534.032 313.75 536.341 339.977C536.854 345.761 532.285 348.517 526.867 348.917C521.129 349.318 515.342 349.462 509.588 349.382C496.765 349.206 487.035 356.255 477.177 362.792C473.346 365.34 469.163 371.027 476.776 372.918C494.408 377.276 511.832 384.502 530.634 381.458C543.794 379.343 557.018 378.942 570.274 378.253C574.955 377.997 581.11 377.869 584.107 372.646C586.271 368.865 588.58 365.244 591 361.735V15.6653C586.48 15.2006 581.927 14.8161 577.327 14.5437C544.932 12.541 513.579 23.1634 481.729 27.986C457.093 31.7191 433.434 31.0461 410.272 17.5558C369.606 -6.15635 327.128 -5.29114 285.853 16.7868C265.016 27.9059 245.925 42.005 223.885 51.0253C205.115 58.6997 186.825 67.3995 172.239 82.1555C169.177 85.2477 166.276 86.7057 162.477 82.1555C153.613 71.5491 146.336 76.9645 140.277 85.5041C129.217 101.125 129.056 101.638 114.037 92.0729C107.161 87.699 103.458 89.9901 100.124 95.6297C96.7899 101.269 94.642 107.053 95.3152 113.254C95.7006 116.306 95.0151 119.398 93.3757 122.002C89.4806 124.501 84.8482 127.161 80.2478 129.676C72.4737 133.938 53.2708 142.493 51.6839 151.706C51.2351 154.301 52.5655 156.16 52.293 159.06C51.9724 162.36 50.4977 163.145 47.9812 165.132C42.932 169.137 39.9666 168.881 34.9655 172.021C30.9742 174.553 28.5538 177.373 25.9251 178.654C17.0449 182.692 10.6333 184.775 5.23144 187.226C-0.683306 189.918 -0.939767 193.298 1.30431 197.512C4.18955 202.927 13.775 206.997 12.5247 208.423C11.6177 209.235 10.8394 210.181 10.2165 211.227C9.60479 212.393 9.42321 213.737 9.70358 215.024C11.8194 221.128 22.0781 224.637 28.1531 225.854C29.0946 226.052 30.0475 226.191 31.0063 226.271C24.3863 229.331 22.062 229.475 22.1742 233.753C22.2544 236.429 22.8314 236.06 25.7808 236.829C27.0631 237.166 28.105 238.592 29.8041 239.665C36.889 244.135 57.5345 242.421 65.6132 244.92C71.1432 246.619 83.2452 253.011 85.4573 258.25C86.2912 257.464 86.9187 256.485 87.2846 255.399C88.3067 256.926 89.0151 258.642 89.3684 260.445C89.6248 260.125 93.552 252.739 94.9625 254.662C96.5654 256.921 96.854 257.081 96.9501 259.853C100.669 258.747 103.282 257.962 105.301 254.421C105.926 253.316 106.359 252.483 106.359 252.483C107.198 254.667 108.506 256.641 110.19 258.266C110.19 258.266 109.741 255.783 110.863 255.062C111.926 254.333 113.167 253.906 114.454 253.828C115.736 253.828 122.164 253.62 123.046 253.716C123.927 253.812 127.405 254.549 128.96 254.678C131.962 255.055 134.943 255.59 137.889 256.28C140.263 256.841 142.464 257.974 144.3 259.58C146.689 261.631 149.59 264.691 150.856 265.845C152.122 266.998 152.459 267.88 153.533 268.44C154.607 269.001 177.833 247.82 189.47 231.766C189.999 234.971 190.464 237.855 190.801 240.354" fill="#EFEFEF"/>
</svg>
