<svg width="211" height="192" viewBox="0 0 211 192" fill="none" xmlns="http://www.w3.org/2000/svg">
<path d="M93.0062 117.662L93.1233 117.615C101.31 110.634 111.216 107.925 121.505 106.019C125.809 105.239 127.575 106.019 126.13 110.79C123.95 117.974 122.286 125.322 119.997 132.475C117.777 139.227 114.09 145.406 109.201 150.567C104.99 155.119 100.201 159.359 97.7403 165.255C95.3967 170.885 91.639 173.532 85.319 173.43C75.3273 173.266 69.8276 180.723 63.2889 186.658C65.7262 188.782 67.4996 184.698 69.6245 187.298C71.7494 189.898 74.968 189.547 77.921 190.265C86.5143 192.358 94.8654 189.539 103.31 189.766C106.701 189.852 109.24 188.985 112.24 187.423C124.567 181.247 134.52 172.001 145.191 163.599C155.644 155.369 165.776 147.1 172.479 135.372C174.783 131.35 177.541 130.686 179.783 135.184C181.119 137.862 183.22 139.487 185.252 141.337C191.757 147.178 198.243 153.042 204.712 158.93C206.016 160.117 207.344 161.507 206.657 163.365C206.016 165.099 204.165 164.544 202.751 164.724C193.572 165.872 186.908 171.103 185.306 178.342C187.119 180.232 189.165 181.098 191.72 179.904C199.86 180.216 207.883 178.342 216.07 178.849C220.273 179.099 224.703 178.256 227.007 173.821C229.445 169.136 231.695 164.365 234.038 159.633C235.96 155.775 235.984 152.269 234.241 147.99C231.242 140.588 226.984 133.599 225.367 125.994C236.726 122.94 247.585 128.789 258.607 126.072C258.821 126.055 259.036 126.092 259.233 126.178C259.429 126.263 259.602 126.396 259.735 126.564C259.869 126.732 259.959 126.93 259.998 127.141C260.037 127.352 260.023 127.569 259.959 127.774C257.381 140.697 260.271 153.394 261.396 166.176C261.646 168.995 259.42 170.338 256.779 170.533C253.983 170.729 251.162 170.799 248.358 170.76C242.108 170.674 237.366 174.11 232.562 177.295C230.695 178.537 228.656 181.309 232.367 182.23C240.96 184.354 249.452 187.876 258.615 186.392C265.029 185.362 271.474 185.166 277.935 184.831C280.216 184.706 283.216 184.643 284.676 182.098C285.731 180.255 286.856 178.49 288.036 176.78V8.11623C285.833 7.88978 283.614 7.70237 281.372 7.56962C265.584 6.59356 250.303 11.7706 234.78 14.121C222.773 15.9404 211.243 15.6124 199.954 9.03763C180.135 -2.51897 159.433 -2.0973 139.316 8.66283C129.161 14.0819 119.856 20.9534 109.115 25.3496C99.9668 29.0899 91.0531 33.3299 83.9441 40.5216C82.452 42.0286 81.038 42.7392 79.1865 40.5216C74.8664 35.3523 71.3197 37.9916 68.3667 42.1536C62.9764 49.7669 62.8983 50.0167 55.5783 45.355C52.2269 43.2233 50.4223 44.3399 48.7974 47.0885C47.1725 49.8371 46.1256 52.656 46.4538 55.6779C46.6416 57.1655 46.3075 58.6723 45.5085 59.9413C43.6102 61.1595 41.3525 62.4557 39.1104 63.6816C35.3215 65.7587 25.9626 69.9284 25.1892 74.4183C24.9704 75.6833 25.6188 76.5891 25.486 78.0024C25.3298 79.611 24.6111 79.9936 23.3846 80.9618C20.9238 82.914 19.4785 82.7891 17.0411 84.3195C15.0959 85.5533 13.9163 86.9276 12.6351 87.5522C8.30718 89.52 5.18233 90.5351 2.54965 91.7298C-0.333023 93.0416 -0.458014 94.6892 0.635682 96.7429C2.04186 99.3821 6.71351 101.366 6.10416 102.06C5.6621 102.456 5.28279 102.917 4.97922 103.427C4.68109 103.995 4.59259 104.65 4.72924 105.278C5.76044 108.253 10.7602 109.963 13.721 110.556C14.1799 110.652 14.6443 110.72 15.1115 110.759C11.8851 112.251 10.7524 112.321 10.8071 114.406C10.8461 115.71 11.1274 115.53 12.5648 115.905C13.1898 116.069 13.6975 116.764 14.5256 117.287C17.9786 119.466 28.0406 118.63 31.9779 119.848C34.6731 120.676 40.5712 123.792 41.6493 126.345C42.0557 125.962 42.3616 125.484 42.5399 124.955C43.038 125.7 43.3833 126.536 43.5555 127.415C43.6805 127.259 45.5944 123.659 46.2819 124.596C47.0631 125.697 47.2037 125.775 47.2506 127.126C49.063 126.587 50.3364 126.204 51.3207 124.479C51.6254 123.94 51.8363 123.534 51.8363 123.534C52.2453 124.599 52.8826 125.561 53.7034 126.353C53.7034 126.353 53.4846 125.142 54.0315 124.791C54.5494 124.436 55.1543 124.228 55.7814 124.19C56.4064 124.19 59.539 124.088 59.9687 124.135C60.3984 124.182 62.0936 124.541 62.8514 124.604C64.3145 124.788 65.767 125.048 67.2027 125.384C68.3599 125.658 69.4327 126.21 70.3276 126.993C71.4916 127.993 72.9056 129.484 73.5227 130.046C74.1399 130.608 74.304 131.038 74.8274 131.311C75.3508 131.584 86.6705 121.262 92.3421 113.437C92.5999 114.999 92.8265 116.405 92.9905 117.623" fill="#EFEFEF"/>
</svg>
