<svg width="102" height="88" viewBox="0 0 102 88" fill="none" xmlns="http://www.w3.org/2000/svg">
<path d="M42.9454 54.1131L42.9995 54.0914C46.7799 50.8677 51.3539 49.6165 56.1046 48.7367C58.0922 48.3761 58.9074 48.7367 58.2401 50.9399C57.2337 54.2573 56.4653 57.6505 55.4084 60.9535C54.3834 64.0719 52.681 66.925 50.4232 69.3084C48.4789 71.4107 46.2677 73.3687 45.1314 76.0911C44.0493 78.691 42.3142 79.9134 39.3959 79.8665C34.7823 79.7908 32.2428 83.2345 29.2235 85.975C30.349 86.9558 31.1678 85.0699 32.149 86.2706C33.1302 87.4714 34.6163 87.3091 35.9799 87.6409C39.9478 88.6073 43.804 87.3055 47.7034 87.4101C49.2689 87.4498 50.4413 87.0495 51.8264 86.3283C57.5187 83.4761 62.1143 79.2066 67.0417 75.3267C71.8682 71.526 76.5468 67.7074 79.6418 62.2913C80.7059 60.4342 81.9793 60.1277 83.0146 62.2047C83.6314 63.4416 84.6018 64.1916 85.5396 65.0462C88.5433 67.7434 91.5385 70.4515 94.5253 73.1703C95.1277 73.7184 95.7409 74.3603 95.4235 75.2185C95.1277 76.019 94.2728 75.763 93.6198 75.8459C89.3813 76.376 86.3044 78.792 85.5649 82.1347C86.4018 83.0073 87.3469 83.4075 88.5264 82.8558C92.2852 83.0001 95.9898 82.1347 99.7702 82.369C101.711 82.4844 103.756 82.095 104.82 80.0468C105.946 77.8833 106.985 75.6801 108.067 73.4949C108.954 71.7135 108.965 70.0945 108.161 68.1185C106.775 64.7001 104.809 61.4728 104.063 57.9606C109.308 56.5507 114.322 59.2515 119.412 57.9966C119.51 57.9891 119.609 58.0059 119.7 58.0456C119.791 58.0852 119.871 58.1465 119.932 58.2241C119.994 58.3017 120.035 58.3932 120.054 58.4906C120.072 58.588 120.065 58.6883 120.036 58.7827C118.845 64.7505 120.18 70.6137 120.699 76.5166C120.815 77.8184 119.787 78.4386 118.567 78.5287C117.276 78.6189 115.974 78.6513 114.679 78.6333C111.793 78.5936 109.603 80.1802 107.385 81.6514C106.523 82.2248 105.581 83.5049 107.295 83.9304C111.263 84.9112 115.184 86.5375 119.415 85.8523C122.377 85.3764 125.353 85.2862 128.336 85.1312C129.389 85.0735 130.774 85.0446 131.449 83.8691C131.936 83.0181 132.455 82.2032 133 81.4135V3.52569C131.983 3.42112 130.958 3.33457 129.923 3.27327C122.633 2.82253 115.577 5.21326 108.409 6.29864C102.865 7.13882 97.5409 6.98736 92.3284 3.95118C83.1769 -1.38557 73.6177 -1.19085 64.3291 3.77811C59.6397 6.28061 55.3435 9.45382 50.3835 11.4839C46.1595 13.2112 42.0436 15.1692 38.7611 18.4902C38.0721 19.1862 37.4192 19.5143 36.5642 18.4902C34.5694 16.1031 32.9318 17.3219 31.5682 19.2439C29.0792 22.7597 29.0432 22.875 25.6632 20.7223C24.1157 19.7379 23.2824 20.2535 22.5321 21.5228C21.7818 22.7921 21.2984 24.0938 21.4499 25.4893C21.5367 26.1763 21.3824 26.8721 21.0135 27.4581C20.1369 28.0207 19.0944 28.6192 18.0591 29.1854C16.3096 30.1445 11.9882 32.0701 11.6311 34.1435C11.5301 34.7277 11.8295 35.146 11.7681 35.7986C11.696 36.5415 11.3641 36.7181 10.7978 37.1653C9.66151 38.0667 8.99417 38.0091 7.86871 38.7158C6.97051 39.2856 6.42582 39.9202 5.83423 40.2087C3.83583 41.1174 2.39293 41.5861 1.1773 42.1378C-0.153773 42.7436 -0.211487 43.5045 0.293525 44.4528C0.942827 45.6716 3.09995 46.5875 2.81859 46.9085C2.61446 47.0913 2.43932 47.3041 2.29915 47.5395C2.16148 47.802 2.12062 48.1045 2.18372 48.3941C2.65987 49.7679 4.9685 50.5576 6.33564 50.8317C6.54753 50.8762 6.76197 50.9075 6.97773 50.9255C5.48794 51.6142 4.96489 51.6466 4.99014 52.6094C5.00818 53.2116 5.13804 53.1287 5.80177 53.3017C6.09035 53.3775 6.32482 53.6984 6.70718 53.94C8.30158 54.946 12.9477 54.5602 14.7657 55.1227C16.0102 55.505 18.7337 56.9437 19.2315 58.1228C19.4192 57.9459 19.5604 57.7254 19.6427 57.481C19.8727 57.8248 20.0322 58.2109 20.1117 58.6169C20.1694 58.5448 21.0532 56.8824 21.3706 57.3151C21.7313 57.8236 21.7962 57.8596 21.8179 58.4834C22.6548 58.2346 23.2427 58.058 23.6972 57.2611C23.8379 57.0122 23.9353 56.8247 23.9353 56.8247C24.1242 57.3164 24.4184 57.7607 24.7975 58.1265C24.7975 58.1265 24.6964 57.5675 24.949 57.4053C25.1881 57.2411 25.4674 57.1452 25.757 57.1276C26.0456 57.1276 27.4921 57.0808 27.6905 57.1024C27.8889 57.124 28.6716 57.2899 29.0215 57.3187C29.6971 57.4037 30.3678 57.524 31.0308 57.6793C31.5651 57.8057 32.0604 58.0607 32.4736 58.4221C33.0111 58.8837 33.664 59.5724 33.949 59.8321C34.234 60.0917 34.3097 60.29 34.5514 60.4162C34.7931 60.5424 40.02 55.7754 42.6388 52.1623C42.7579 52.8835 42.8625 53.5325 42.9382 54.095" fill="#EFEFEF"/>
</svg>
