<svg width="109" height="198" viewBox="0 0 109 198" fill="none" xmlns="http://www.w3.org/2000/svg">
<path d="M146.878 49.5797C143.991 46.6063 140.769 43.9763 137.279 41.7421C138.951 42.0518 140.642 42.2516 142.341 42.3405C144.197 42.4428 146.058 42.4428 147.914 42.3405C150.808 41.9903 153.547 40.8377 155.821 39.0128C162.853 32.5472 159.192 25.8772 159.133 21.63C162.188 23.7877 165.031 26.2313 167.624 28.9276C170.273 31.5439 172.671 34.4025 174.787 37.4658C170.542 37.3782 163.918 33.6564 157.383 40.6329C155.55 42.9022 154.384 45.6356 154.012 48.5289C153.91 50.3859 153.91 52.2472 154.012 54.1042C154.087 55.8082 154.277 57.5052 154.581 59.1833C152.386 55.6957 149.802 52.469 146.878 49.5651V49.5797ZM100.616 95.4231C99.1575 87.5417 106.744 84.827 109.618 80.9739C106.781 80.7108 104.124 79.4671 102.104 77.4565C101.156 76.4547 100.434 75.2599 99.9891 73.9536C97.3338 64.4814 107.284 58.366 110.8 63.737C111.076 64.1482 111.283 64.6017 111.412 65.0798C111.591 65.822 111.618 66.5928 111.49 67.3455C111.362 68.0982 111.082 68.817 110.668 69.4583C109.209 71.5308 106.292 71.0054 105.475 70.9908C105.27 73.1947 104.658 75.7488 109.647 76.4202C116.358 77.3251 121.625 69.3853 119.582 62.7008C119.217 61.504 118.24 60.2926 117.963 59.2563C121.07 59.3585 125.447 61.2704 131.647 59.2563C134.354 58.3608 136.868 56.9646 139.059 55.1405C139.872 54.6347 140.497 53.8759 140.838 52.9804C132.085 50.2657 124.79 47.9159 117.496 48.9959C109.837 50.1197 104.731 54.0896 99.6973 59.6796C99.6973 55.5637 99.8432 53.2431 101.463 50.689C102.248 49.5238 103.299 48.5626 104.53 47.8849C105.76 47.2072 107.134 46.8326 108.538 46.7921C106.627 38.2539 100.354 45.9309 101.244 42.2675C102.411 37.3636 101.419 37.1446 99.3617 33.1894C112.492 33.2915 129.634 39.5382 139.175 48.8062C140.766 50.3533 142.093 51.6085 143.45 52.8782C144.705 54.1918 145.959 55.5783 147.477 57.2568C156.653 66.8896 162.766 84.1265 162.766 97.2183C158.827 95.1312 158.623 94.1387 153.706 95.2625C150.03 96.1091 157.762 89.8915 149.242 87.965C149.19 89.3698 148.805 90.742 148.117 91.968C147.429 93.1939 146.46 94.2383 145.288 95.0144C142.72 96.6199 140.401 96.7075 136.287 96.7075C141.918 91.7159 145.93 86.6368 147.112 78.989C148.25 71.6914 145.959 64.3208 143.319 55.5491C142.427 55.9028 141.667 56.5251 141.145 57.3298C139.301 59.5011 137.886 62.002 136.972 64.7003C134.901 70.8887 136.768 75.2818 136.841 78.3905C135.82 78.1132 134.609 77.1208 133.413 76.7413C126.745 74.6396 118.824 79.8501 119.626 86.5784C120.253 91.57 122.806 90.957 125.009 90.7964C125.009 89.9207 124.513 87.0309 126.585 85.6006C127.424 85.0103 128.42 84.6863 129.446 84.6706C130.471 84.655 131.477 84.9485 132.333 85.513C137.716 89.1472 131.531 98.9843 122.121 96.255C120.82 95.7941 119.632 95.0629 118.634 94.1095C116.649 92.0681 115.432 89.4016 115.191 86.5638C111.252 89.4099 108.48 96.9118 100.616 95.4231ZM49.6859 49.5797C52.5664 46.5984 55.7885 43.9677 59.2855 41.7421C57.6127 42.0507 55.9217 42.2506 54.2231 42.3405C52.3668 42.4428 50.5063 42.4428 48.6501 42.3405C45.7507 41.9929 43.0065 40.8402 40.7282 39.0128C33.6963 32.5472 37.3581 25.8772 37.4165 21.63C34.3705 23.7937 31.5328 26.2368 28.9402 28.9276C26.2842 31.5412 23.8809 34.3999 21.7624 37.4658C26.0078 37.3782 32.6313 33.6564 39.1672 40.6329C40.98 42.9133 42.1263 45.6513 42.4789 48.5435C42.5744 50.4007 42.5744 52.2616 42.4789 54.1188C42.3902 55.8217 42.2002 57.5177 41.9099 59.1979C44.1162 55.6981 46.7261 52.4699 49.6859 49.5797ZM81.5047 30.8833C84.5538 30.0514 83.8535 31.1752 85.1228 28.8546C86.392 26.534 87.6613 24.1404 89.0327 21.8051C89.7329 20.6229 90.2727 19.6451 91.0314 18.4629C92.4676 16.1941 94.0928 14.0508 95.8895 12.0556C96.5616 11.4292 97.3869 10.9912 98.2821 10.7858C99.1729 10.9917 99.9934 11.4298 100.66 12.0556C102.457 14.0508 104.082 16.1941 105.518 18.4629C106.292 19.6451 106.817 20.6229 107.517 21.8051C108.903 24.1404 110.172 26.534 111.441 28.8546C112.711 31.1752 111.996 30.0514 115.06 30.8833C116.518 31.292 119.932 33.0142 121.289 33.1456C121.027 32.1531 105.606 7.4727 98.428 6.48023H98.1217C90.9438 7.4727 75.5232 32.1531 75.2752 33.1456C76.6319 33.0142 80.0458 31.292 81.5047 30.8833ZM89.8934 29.6427C91.273 29.5141 92.6395 29.27 93.9784 28.913C95.4015 28.6683 96.8392 28.5172 98.2821 28.4605C99.7202 28.5172 101.153 28.6684 102.571 28.913C103.91 29.27 105.277 29.5141 106.656 29.6427L104.716 25.9794C101.565 20.4186 100.018 17.0033 98.5156 16.2882V16.1568C98.4384 16.1429 98.3593 16.1429 98.2821 16.1568C98.2 16.1429 98.1162 16.1429 98.0341 16.1568V16.2882C96.5752 17.0033 94.9996 20.4186 91.8483 25.9794L89.8934 29.6427ZM98.2821 79.5874L95.6853 83.1486L98.2821 88.7531L100.864 83.1486L98.2821 79.5874ZM95.9479 95.4231C97.4068 87.5417 89.8059 84.827 86.9464 80.9739C89.7828 80.7085 92.4388 79.465 94.4598 77.4565C95.4037 76.4509 96.1245 75.2573 96.5752 73.9536C99.2158 64.4814 89.2807 58.366 85.7501 63.737C85.4799 64.1514 85.2734 64.6041 85.1374 65.0798C84.9617 65.8222 84.9371 66.5925 85.0649 67.3446C85.1927 68.0968 85.4704 68.8156 85.8814 69.4583C87.3403 71.5308 90.2581 71.0054 91.0897 70.9908C91.2794 73.1947 91.8921 75.7488 86.9172 76.4202C80.2063 77.3251 74.925 69.3853 76.9821 62.7008C77.3468 61.504 78.3243 60.2926 78.5869 59.2563C75.494 59.3585 71.1173 61.2704 64.9023 59.2563C62.2006 58.3604 59.6915 56.9642 57.5056 55.1405C56.6909 54.6323 56.0616 53.8747 55.7112 52.9804C64.4646 50.2657 71.7592 47.9159 79.0537 48.9959C86.6984 50.1197 91.8192 54.0896 96.8524 59.6796C96.8524 55.5637 96.7065 53.2431 95.0725 50.689C94.2941 49.5207 93.2462 48.5568 92.0173 47.8786C90.7884 47.2004 89.4145 46.8277 88.0114 46.7921C89.9226 38.2539 96.1959 45.9309 95.306 42.2675C94.1388 37.3636 95.1309 37.1446 97.1734 33.1894C84.0432 33.2915 66.9156 39.5382 57.3598 48.8062C55.7841 50.3533 54.4419 51.6085 53.0997 52.8782C51.8597 54.1918 50.605 55.5783 49.0732 57.2568C39.8966 66.8896 33.7984 84.1265 33.7984 97.2183C37.7229 95.1312 37.9417 94.1387 42.8436 95.2625C46.5201 96.1091 38.8024 89.8915 47.3225 87.965C47.3713 89.3687 47.7541 90.7406 48.4392 91.9666C49.1243 93.1927 50.0918 94.2375 51.2615 95.0144C53.8292 96.6199 56.1489 96.7075 60.2776 96.7075C54.6316 91.7159 50.6196 86.6368 49.4379 78.989C48.3145 71.6914 50.5904 64.3208 53.231 55.5491C54.1273 55.895 54.8891 56.519 55.4048 57.3298C57.2477 59.5039 58.6679 62.0037 59.5919 64.7003C61.6635 70.8887 59.7815 75.2818 59.7086 78.3905C60.7444 78.1132 61.9553 77.1208 63.1516 76.7413C69.8042 74.6396 77.7407 79.8501 76.9383 86.5784C76.311 91.57 73.7579 90.957 71.5403 90.7964C71.5403 89.9207 72.051 87.0309 69.9793 85.6006C69.3335 85.1973 68.614 84.9265 67.8627 84.8037C67.1113 84.681 66.3431 84.7087 65.6026 84.8854C65.1344 85.0352 64.688 85.2463 64.275 85.513C58.877 89.1472 65.0628 98.9843 74.4873 96.255C75.7905 95.7855 76.979 95.0442 77.9741 94.0803C79.9643 92.0424 81.1819 89.374 81.4172 86.5346C85.2687 89.4099 88.0698 96.9118 95.9479 95.4231ZM89.2369 4.93315C95.1691 3.39553 101.395 3.39553 107.327 4.93315C112.506 6.26131 116.241 8.27544 118.78 12.7561C119.524 14.0697 120.37 15.3687 121.158 15.3687C121.419 14.7849 121.864 14.303 122.426 13.9972C122.987 13.6913 123.633 13.5783 124.265 13.6757C125.191 13.6172 126.118 13.7668 126.979 14.1135C128.36 14.7291 129.568 15.6767 130.495 16.872C131.99 18.7562 132.93 21.0208 133.208 23.4106C133.34 24.7534 133.004 25.1474 133.5 26.1983C134.273 25.921 135.105 24.5199 135.659 23.8339C140.167 18.1272 146.922 19.0905 149.402 24.2571C151.036 27.6578 149.898 28.767 148.687 30.5476C147.933 29.8628 147.088 29.2834 146.178 28.8254C142.691 27.3659 140.197 31.0585 142.341 34.8386C145.347 40.1075 161.307 35.6413 154.333 22.7684C145.026 5.42938 119.655 0.729758 102.148 0H98.428H98.2238H94.489C76.9821 0.729758 51.6262 5.42938 42.3184 22.7684C35.4032 35.6413 51.3053 40.1075 54.296 34.8386C56.4552 31.0585 53.9459 27.3951 50.4737 28.8254C49.5613 29.2799 48.7167 29.8596 47.9644 30.5476C46.7535 28.767 45.601 27.6286 47.2349 24.2571C49.7297 19.0905 56.4698 18.1272 60.9924 23.8339C61.5322 24.5199 62.3638 25.921 63.137 26.1983C63.6331 25.1474 63.3121 24.7388 63.4288 23.4106C63.7051 21.0177 64.6507 18.7513 66.157 16.872C67.0645 15.6849 68.2526 14.742 69.6146 14.1281C70.4801 13.7811 71.4121 13.6315 72.3427 13.6902C72.9746 13.5929 73.6209 13.7059 74.1823 14.0118C74.7437 14.3176 75.1892 14.7995 75.4502 15.3833C76.2234 15.3833 77.0696 14.0843 77.8137 12.7708C80.3084 8.29005 84.0578 6.21753 89.2369 4.94776V4.93315ZM165.231 115.856C166.048 112.791 164.94 113.492 167.245 112.222C169.55 110.952 171.928 109.639 174.248 108.238C175.429 107.522 176.407 106.997 177.574 106.209C179.828 104.755 181.956 103.115 183.935 101.305C184.334 101.001 184.657 100.609 184.88 100.16C185.103 99.7107 185.219 99.2159 185.219 98.7143C185.219 98.2127 185.103 97.7179 184.88 97.2685C184.657 96.8191 184.334 96.4273 183.935 96.1237C181.96 94.3042 179.832 92.6586 177.574 91.2051C176.407 90.4315 175.429 89.8915 174.248 89.1764C171.928 87.7169 169.55 86.4909 167.245 85.2065C164.94 83.9221 166.048 84.6373 165.231 81.5723C164.852 80.1128 163.145 76.6829 163.029 75.311C164.035 75.5883 189.289 91.6867 189.522 98.6632C189.289 105.698 164.035 121.797 163.029 122.015C163.145 120.687 164.852 117.257 165.231 115.798V115.856ZM166.413 107.45C166.525 106.064 166.759 104.692 167.113 103.348C167.658 100.278 167.658 97.1359 167.113 94.0658C166.759 92.727 166.525 91.3594 166.413 89.9791L170.06 91.964C176.173 95.4961 179.689 97.0432 179.821 98.707C179.689 100.385 176.173 101.933 170.06 105.465L166.413 107.45ZM118.021 98.6924C117.671 99.1449 117.759 98.8675 116.839 99.2762C114.593 100.254 114.388 101.071 112.886 102.078C111.806 101.83 109.063 100.24 107.05 99.4514C106.233 99.1303 105.358 99.0135 104.701 98.6924C105.358 98.3859 106.233 98.2545 107.05 97.9335C109.063 97.1599 111.806 95.5691 112.886 95.3209C114.345 96.328 114.593 97.1453 116.839 98.1232C117.759 98.4735 117.671 98.167 118.021 98.6486V98.6924ZM146.878 147.79C143.991 150.764 140.769 153.394 137.279 155.628C138.952 155.32 140.643 155.115 142.341 155.015C144.198 154.92 146.058 154.92 147.914 155.015C150.805 155.367 153.542 156.514 155.821 158.328C162.853 164.808 159.192 171.464 159.133 175.711C159.848 175.521 163.773 172.179 167.624 168.413C170.28 165.804 172.679 162.945 174.787 159.875C170.542 159.977 163.918 163.685 157.383 156.708C155.545 154.442 154.378 151.707 154.012 148.812C153.91 146.955 153.91 145.094 154.012 143.237C154.087 141.538 154.277 139.846 154.581 138.172C152.382 141.657 149.798 144.883 146.878 147.79ZM100.616 101.947C99.1575 109.829 106.744 112.543 109.618 116.396C106.784 116.66 104.129 117.898 102.104 119.899C101.155 120.906 100.434 122.106 99.9891 123.417C97.3338 132.889 107.284 139.004 110.8 133.633C111.073 133.221 111.28 132.767 111.412 132.29C111.59 131.548 111.615 130.778 111.487 130.025C111.359 129.273 111.081 128.554 110.668 127.912C109.209 125.854 106.292 126.379 105.475 126.379C105.27 124.176 104.658 121.621 109.647 120.965C116.358 120.06 121.625 127.985 119.582 134.669C119.217 135.866 118.24 137.092 117.963 138.114C121.07 138.026 125.447 136.114 131.647 138.114C134.354 139.015 136.868 140.416 139.059 142.244C139.87 142.746 140.495 143.5 140.838 144.39C132.085 147.105 124.79 149.454 117.496 148.389C109.837 147.265 104.731 143.295 99.6973 137.691C99.6973 141.821 99.8432 144.142 101.463 146.696C102.248 147.861 103.299 148.822 104.53 149.5C105.76 150.178 107.134 150.552 108.538 150.593C106.627 159.131 100.354 151.454 101.244 155.117C102.411 160.021 101.419 160.24 99.3617 164.195C112.492 164.079 129.634 157.832 139.175 148.564C140.766 147.032 142.093 145.762 143.45 144.507C144.705 143.178 145.959 141.792 147.477 140.128C156.653 130.51 162.766 113.258 162.766 100.181C158.827 102.268 158.623 103.261 153.706 102.122C150.03 101.29 157.762 107.493 149.242 109.42C149.195 108.016 148.811 106.644 148.123 105.42C147.435 104.195 146.463 103.154 145.288 102.385C142.72 100.78 140.401 100.677 136.287 100.677C141.918 105.669 145.93 110.763 147.112 118.396C148.25 125.693 145.959 133.064 143.319 141.836C142.425 141.493 141.664 140.874 141.145 140.07C139.312 137.918 137.897 135.443 136.972 132.772C134.901 126.569 136.768 122.176 136.841 119.082C135.82 119.359 134.609 120.337 133.413 120.716C126.745 122.818 118.824 117.608 119.626 110.894C120.253 105.902 122.806 106.515 125.009 106.676C125.009 107.537 124.513 110.427 126.585 111.857C127.228 112.266 127.948 112.54 128.7 112.663C129.452 112.786 130.222 112.755 130.962 112.572C131.437 112.429 131.889 112.217 132.304 111.945C137.687 108.325 131.501 98.4881 122.092 101.203C120.794 101.67 119.607 102.4 118.605 103.348C116.617 105.393 115.4 108.066 115.162 110.909C111.252 107.931 108.48 100.4 100.616 101.889V101.947ZM31.2891 115.798C30.4721 112.733 31.5954 113.434 29.2904 112.164C26.9853 110.894 24.5927 109.58 22.273 108.179C21.0913 107.464 20.1284 106.939 18.9613 106.151C16.7027 104.697 14.5701 103.057 12.5859 101.247C12.1918 100.939 11.8731 100.547 11.6538 100.098C11.4345 99.6487 11.3206 99.1556 11.3206 98.6559C11.3206 98.1563 11.4345 97.6632 11.6538 97.2143C11.8731 96.7653 12.1918 96.3723 12.5859 96.0653C14.5661 94.2459 16.6991 92.6003 18.9613 91.1467C20.1284 90.3732 21.0913 89.8332 22.273 89.118C24.5927 87.6585 26.9853 86.4325 29.2904 85.1481C31.5954 83.8637 30.4721 84.5789 31.2891 81.5139C31.683 80.0544 33.3753 76.6245 33.492 75.2526C32.4854 75.5299 7.23166 91.6284 7.01283 98.6048C7.23166 105.64 32.4854 121.738 33.492 121.957C33.4045 120.687 31.7121 117.257 31.2891 115.798ZM30.1219 107.391C30.0037 106.007 29.7694 104.635 29.4217 103.29C28.8575 100.221 28.8575 97.0758 29.4217 94.0074C29.7691 92.6672 30.0034 91.3002 30.1219 89.9207L26.4601 91.9057C20.3473 95.4377 16.8459 96.9848 16.7 98.6486C16.8459 100.327 20.3473 101.874 26.4601 105.406L30.1219 107.391ZM78.4993 98.634C78.8495 99.0865 78.7765 98.8092 79.6956 99.2178C81.9278 100.196 82.1466 101.013 83.6493 102.02C84.7143 101.772 87.4716 100.181 89.4849 99.393C90.3165 99.0719 91.1773 98.9551 91.8338 98.634C91.1773 98.3275 90.3749 98.1962 89.4849 97.8751C87.4862 97.1015 84.7289 95.5107 83.6493 95.2625C82.1904 96.2696 81.9278 97.0869 79.6956 98.0648C78.8057 98.4735 78.8786 98.167 78.5285 98.6486L78.4993 98.634ZM49.6859 147.79C52.5664 150.772 55.7885 153.403 59.2855 155.628C57.6121 155.321 55.9215 155.116 54.2231 155.015C52.3666 154.92 50.5065 154.92 48.6501 155.015C45.7538 155.365 43.0113 156.511 40.7282 158.328C33.6963 164.808 37.3581 171.464 37.4165 175.711C34.3685 173.55 31.5305 171.107 28.9402 168.413C26.2769 165.807 23.873 162.947 21.7624 159.875C26.0078 159.977 32.6313 163.685 39.1672 156.708C41.0091 154.443 42.1814 151.708 42.5518 148.812C42.6474 146.955 42.6474 145.094 42.5518 143.237C42.4632 141.539 42.2732 139.848 41.9829 138.172C44.1706 141.665 46.7555 144.893 49.6859 147.79ZM81.5047 166.472C84.5538 167.319 83.8535 166.195 85.1228 168.516C86.392 170.836 87.6613 173.23 89.0327 175.55C89.7329 176.747 90.2727 177.725 91.0314 178.893C92.464 181.164 94.0893 183.308 95.8895 185.3C96.5607 185.931 97.3858 186.373 98.2821 186.584C99.1742 186.374 99.9947 185.931 100.66 185.3C102.46 183.308 104.086 181.164 105.518 178.893C106.292 177.725 106.817 176.747 107.517 175.55C108.903 173.23 110.172 170.836 111.441 168.516C112.711 166.195 111.996 167.319 115.06 166.472C116.518 166.078 119.932 164.341 121.289 164.225C121.027 165.217 105.606 189.883 98.428 190.875H98.1217C90.9438 189.883 75.5232 165.217 75.2752 164.225C76.6319 164.283 80.0458 166.02 81.5047 166.414V166.472ZM89.8934 167.727C91.273 167.856 92.6395 168.1 93.9784 168.457C95.4025 168.695 96.8397 168.846 98.2821 168.91C99.7197 168.846 101.152 168.695 102.571 168.457C103.91 168.1 105.277 167.856 106.656 167.727L104.716 171.391C101.565 176.952 100.018 180.367 98.5156 181.082V181.213H98.2821H98.0341V181.082C96.5752 180.367 94.9996 176.952 91.8483 171.391L89.8934 167.727ZM98.2821 117.783L95.6853 114.222L98.2821 108.632L100.864 114.222L98.2821 117.783ZM95.9479 101.947C97.4068 109.829 89.8059 112.543 86.9464 116.396C89.7796 116.663 92.4339 117.9 94.4598 119.899C95.404 120.91 96.1248 122.109 96.5752 123.417C99.2158 132.889 89.2807 139.004 85.7501 133.633C85.4825 133.217 85.2761 132.765 85.1374 132.29C84.9634 131.548 84.9396 130.778 85.0674 130.026C85.1951 129.274 85.4719 128.555 85.8814 127.912C87.3403 125.854 90.2581 126.379 91.0897 126.379C91.2794 124.176 91.8921 121.621 86.9172 120.965C80.2063 120.06 74.925 127.985 76.9821 134.669C77.3468 135.866 78.3243 137.092 78.5869 138.114C75.494 138.026 71.1173 136.114 64.9023 138.114C62.1998 139.015 59.6907 140.416 57.5056 142.244C56.6891 142.744 56.0587 143.498 55.7112 144.39C64.4646 147.105 71.7592 149.454 79.0537 148.389C86.6984 147.265 91.8192 143.295 96.8524 137.691C96.8524 141.821 96.7065 144.142 95.0725 146.696C94.2941 147.864 93.2462 148.828 92.0173 149.506C90.7884 150.184 89.4145 150.557 88.0114 150.593C89.9226 159.131 96.1959 151.454 95.306 155.117C94.1388 160.021 95.1309 160.24 97.1734 164.195C84.0432 164.079 66.9156 157.832 57.3598 148.564C55.7841 147.032 54.4419 145.762 53.0997 144.507C51.8597 143.178 50.605 141.792 49.0732 140.128C39.8966 130.51 33.7984 113.258 33.7984 100.181C37.7229 102.268 37.9417 103.261 42.8436 102.122C46.5201 101.29 38.8024 107.493 47.3225 109.42C47.3676 108.017 47.749 106.646 48.4345 105.422C49.12 104.198 50.0896 103.156 51.2615 102.385C53.8292 100.78 56.1489 100.677 60.2776 100.677C54.6316 105.669 50.6196 110.763 49.4379 118.396C48.3145 125.693 50.5904 133.064 53.231 141.836C54.1294 141.501 54.8931 140.881 55.4048 140.07C57.2369 137.915 58.6563 135.441 59.5919 132.772C61.6635 126.569 59.7815 122.176 59.7086 119.082C60.7444 119.359 61.9553 120.337 63.1516 120.716C69.8042 122.818 77.7407 117.608 76.9383 110.894C76.311 105.902 73.7579 106.515 71.5403 106.676C71.5403 107.537 72.051 110.427 69.9793 111.857C69.3351 112.264 68.6156 112.537 67.8637 112.66C67.1117 112.783 66.3427 112.753 65.6026 112.572C65.132 112.429 64.6848 112.217 64.275 111.945C58.877 108.325 65.0628 98.4881 74.4873 101.203C75.7851 101.67 76.9723 102.4 77.9741 103.348C79.9674 105.39 81.1852 108.064 81.4172 110.909C85.2687 107.931 88.0698 100.4 95.9479 101.889V101.947ZM89.2369 192.437C95.1666 193.994 101.398 193.994 107.327 192.437C112.506 191.109 116.241 189.095 118.78 184.614C119.524 183.301 120.37 182.016 121.158 182.002C121.419 182.585 121.864 183.067 122.426 183.373C122.987 183.679 123.633 183.792 124.265 183.695C125.19 183.765 126.119 183.62 126.979 183.271C128.337 182.644 129.527 181.704 130.451 180.527C131.947 178.638 132.887 176.369 133.165 173.974C133.296 172.631 132.96 172.252 133.456 171.187C134.23 171.464 135.061 172.865 135.616 173.551C140.124 179.258 146.878 178.309 149.359 173.142C150.992 169.742 149.855 168.618 148.644 166.837C147.893 167.532 147.048 168.116 146.134 168.574C142.648 170.033 140.153 166.326 142.297 162.561C145.303 157.292 161.263 161.758 154.29 174.631C144.982 191.955 119.611 196.67 102.104 197.385H98.3843H98.18H94.4452C76.9383 196.67 51.5825 191.955 42.2746 174.631C35.3594 161.758 51.2615 157.292 54.2523 162.561C56.4115 166.326 53.9021 169.99 50.4299 168.574C49.509 168.098 48.6635 167.488 47.9206 166.764C46.7097 168.545 45.5572 169.683 47.1912 173.069C49.6859 178.236 56.4261 179.185 60.9487 173.478C61.4885 172.792 62.32 171.391 63.0933 171.114C63.5893 172.179 63.2683 172.573 63.385 173.901C63.6617 176.298 64.6072 178.569 66.1132 180.454C67.0288 181.634 68.2148 182.575 69.5708 183.198C70.4358 183.547 71.3692 183.692 72.299 183.622C72.9308 183.719 73.5771 183.606 74.1385 183.3C74.6999 182.994 75.1454 182.512 75.4064 181.929C76.1797 181.929 77.0258 183.228 77.7699 184.541C80.3084 189.007 84.0578 191.021 89.2369 192.35V192.437ZM5.45179 107.931C4.01247 101.886 4.01247 95.5866 5.45179 89.5412C6.75022 84.36 8.71974 80.5944 13.184 78.0111C14.497 77.2667 15.7809 76.4056 15.7809 75.6321C15.1946 75.3764 14.7086 74.935 14.3975 74.376C14.0865 73.8169 13.9677 73.1711 14.0594 72.5379C13.9848 71.6088 14.1246 70.6751 14.4678 69.8086C15.0754 68.4424 16.0068 67.2451 17.1814 66.3204C19.048 64.7954 21.3099 63.8335 23.7027 63.5473C25.0449 63.4013 25.4388 63.7224 26.4747 63.2262C26.1975 62.4526 24.7969 61.6353 24.0966 61.0953C18.3631 56.6292 19.2531 49.8716 24.403 47.3321C27.7877 45.6682 28.911 46.8067 30.7055 48.0035C30.0179 48.7584 29.4429 49.6089 28.9986 50.5284C27.5397 54.0167 31.2891 56.4978 35.0385 54.3085C40.2759 51.2582 35.6804 35.3349 22.8712 42.4135C5.62687 51.8712 1.13343 77.2813 0.564453 94.8101V102.546C1.13343 120.06 5.62687 145.47 22.8712 154.928C35.6804 161.948 40.2759 146.083 35.0385 143.032C31.2891 140.858 27.598 143.324 28.9986 146.827C29.4466 147.745 30.0211 148.595 30.7055 149.352C28.911 150.549 27.7877 151.687 24.403 150.009C19.2531 147.484 18.3631 140.726 24.0966 136.26C24.7969 135.72 26.1975 134.903 26.4747 134.129C25.4388 133.619 25.0158 133.94 23.7027 133.808C21.3134 133.509 19.055 132.549 17.1814 131.035C16.0102 130.107 15.0794 128.911 14.4678 127.547C14.1256 126.68 13.9859 125.747 14.0594 124.818C13.9677 124.185 14.0865 123.539 14.3975 122.98C14.7086 122.421 15.1946 121.979 15.7809 121.724C15.7809 120.95 14.497 120.089 13.184 119.33C8.71974 116.805 6.75022 113.039 5.45179 107.844V107.931ZM191.098 89.4099C192.537 95.4553 192.537 101.754 191.098 107.8C189.814 112.996 187.83 116.761 183.366 119.33C182.067 120.089 180.783 120.95 180.783 121.724C181.37 121.979 181.856 122.421 182.167 122.98C182.478 123.539 182.597 124.185 182.505 124.818C182.571 125.746 182.431 126.678 182.096 127.547C181.485 128.911 180.554 130.107 179.383 131.035C177.504 132.54 175.248 133.499 172.862 133.808C171.519 133.94 171.125 133.619 170.075 134.129C170.352 134.903 171.767 135.72 172.453 136.26C178.201 140.726 177.297 147.484 172.161 150.009C168.762 151.687 167.639 150.549 165.844 149.352C166.533 148.598 167.108 147.748 167.551 146.827C169.01 143.324 165.261 140.858 161.511 143.032C156.274 146.083 160.869 162.006 173.679 154.928C190.937 145.47 195.416 120.06 196 102.546V94.6787C195.416 77.1646 190.937 51.7398 173.679 42.2822C160.869 35.2619 156.274 51.1268 161.511 54.1772C165.261 56.3665 168.952 53.8853 167.551 50.3971C167.112 49.4748 166.536 48.6236 165.844 47.8721C167.639 46.6753 168.762 45.5369 172.161 47.2007C177.297 49.7403 178.201 56.4978 172.453 60.9639C171.767 61.504 170.352 62.3213 170.075 63.0948C171.125 63.5911 171.534 63.27 172.862 63.4159C175.253 63.7084 177.513 64.6696 179.383 66.189C180.557 67.1137 181.489 68.3111 182.096 69.6772C182.433 70.5455 182.572 71.4778 182.505 72.4065C182.597 73.0398 182.478 73.6856 182.167 74.2446C181.856 74.8037 181.37 75.245 180.783 75.5007C180.783 76.2743 182.067 77.1354 183.366 77.8797C187.83 80.5069 189.814 84.2724 191.098 89.4099Z" fill="#EEEEEE"/>
</svg>
