<svg width="319" height="405" viewBox="0 0 319 405" fill="none" xmlns="http://www.w3.org/2000/svg">
<path d="M300.211 101.729C294.286 95.6281 287.677 90.2319 280.514 85.6477C283.946 86.283 287.416 86.6932 290.902 86.8755C294.71 87.0855 298.528 87.0855 302.337 86.8755C308.275 86.1569 313.895 83.792 318.561 80.0477C332.989 66.7813 325.476 53.0956 325.356 44.3811C331.625 48.8084 337.458 53.8221 342.778 59.3545C348.212 64.7228 353.133 70.588 357.476 76.8733C348.765 76.6936 335.174 69.0572 321.764 83.3718C318.005 88.0281 315.611 93.6365 314.849 99.573C314.638 103.383 314.638 107.202 314.849 111.013C315.001 114.509 315.391 117.991 316.017 121.434C311.512 114.278 306.21 107.657 300.211 101.699V101.729ZM205.29 195.792C202.296 179.621 217.862 174.051 223.759 166.145C217.938 165.605 212.487 163.053 208.343 158.927C206.396 156.872 204.915 154.421 204.002 151.74C198.554 132.305 218.969 119.757 226.184 130.777C226.75 131.621 227.175 132.552 227.441 133.533C227.808 135.055 227.862 136.637 227.6 138.181C227.337 139.726 226.764 141.201 225.914 142.517C222.921 146.769 216.934 145.691 215.258 145.661C214.839 150.183 213.581 155.424 223.819 156.801C237.589 158.658 248.395 142.367 244.204 128.651C243.456 126.196 241.45 123.71 240.881 121.584C247.257 121.793 256.238 125.716 268.96 121.584C274.513 119.746 279.671 116.882 284.166 113.139C285.836 112.101 287.119 110.544 287.818 108.707C269.858 103.137 254.891 98.3152 239.923 100.531C224.208 102.837 213.731 110.983 203.404 122.452C203.404 114.007 203.703 109.246 207.026 104.005C208.637 101.614 210.794 99.6421 213.319 98.2516C215.843 96.8611 218.663 96.0925 221.544 96.0093C217.622 78.4905 204.751 94.2424 206.577 86.7258C208.971 76.6637 206.936 76.2145 202.715 68.0989C229.656 68.3085 264.829 81.1257 284.406 100.142C287.669 103.316 290.393 105.892 293.177 108.497C295.751 111.192 298.325 114.037 301.439 117.481C320.267 137.246 332.81 172.613 332.81 199.475C324.727 195.193 324.308 193.157 314.22 195.462C306.677 197.199 322.542 184.442 305.061 180.489C304.955 183.371 304.164 186.187 302.753 188.703C301.342 191.218 299.352 193.361 296.948 194.953C291.68 198.248 286.92 198.427 278.479 198.427C290.034 188.185 298.265 177.764 300.69 162.072C303.025 147.098 298.325 131.975 292.907 113.977C291.078 114.703 289.519 115.98 288.447 117.631C284.665 122.086 281.76 127.217 279.886 132.754C275.635 145.451 279.467 154.465 279.616 160.844C277.521 160.275 275.036 158.239 272.582 157.46C258.902 153.148 242.648 163.839 244.294 177.644C245.581 187.886 250.82 186.628 255.34 186.299C255.34 184.502 254.322 178.573 258.573 175.638C260.293 174.427 262.338 173.762 264.442 173.73C266.546 173.698 268.61 174.3 270.367 175.458C281.412 182.915 268.72 203.099 249.413 197.499C246.744 196.553 244.306 195.053 242.258 193.097C238.185 188.908 235.689 183.437 235.194 177.614C227.112 183.454 221.424 198.846 205.29 195.792ZM100.789 101.729C106.699 95.612 113.31 90.2142 120.486 85.6477C117.053 86.2809 113.584 86.6911 110.098 86.8755C106.29 87.0855 102.472 87.0855 98.6635 86.8755C92.7145 86.1623 87.0838 83.7971 82.4092 80.0477C67.9808 66.7813 75.4943 53.0956 75.6141 44.3811C69.3642 48.8205 63.5417 53.8334 58.2222 59.3545C52.7726 64.7171 47.8414 70.5828 43.4945 76.8733C52.2054 76.6936 65.7956 69.0572 79.2062 83.3718C82.9258 88.0507 85.2778 93.6686 86.0013 99.6029C86.1972 103.414 86.1972 107.232 86.0013 111.043C85.8193 114.537 85.4295 118.017 84.8338 121.464C89.3607 114.283 94.7158 107.659 100.789 101.729ZM166.076 63.3673C172.332 61.6603 170.895 63.9662 173.499 59.2047C176.104 54.4432 178.708 49.5319 181.522 44.7404C182.959 42.3147 184.066 40.3083 185.623 37.8826C188.57 33.2276 191.904 28.8298 195.591 24.736C196.97 23.4508 198.663 22.5521 200.5 22.1307C202.328 22.553 204.011 23.4519 205.379 24.736C209.066 28.8298 212.4 33.2276 215.347 37.8826C216.934 40.3083 218.012 42.3147 219.448 44.7404C222.292 49.5319 224.896 54.4432 227.501 59.2047C230.105 63.9662 228.638 61.6603 234.924 63.3673C237.918 64.2058 244.923 67.7395 247.706 68.0091C247.168 65.9727 215.527 15.3327 200.799 13.2963H200.171C185.443 15.3327 153.802 65.9727 153.294 68.0091C156.077 67.7395 163.082 64.2058 166.076 63.3673ZM183.288 60.8219C186.119 60.5579 188.922 60.057 191.669 59.3245C194.59 58.8225 197.539 58.5124 200.5 58.3962C203.451 58.5125 206.391 58.8226 209.301 59.3245C212.048 60.057 214.852 60.5579 217.682 60.8219L213.701 53.3052C207.235 41.8955 204.062 34.8879 200.979 33.4206V33.151C200.821 33.1224 200.658 33.1224 200.5 33.151C200.332 33.1226 200.16 33.1226 199.991 33.151V33.4206C196.998 34.8879 193.765 41.8955 187.299 53.3052L183.288 60.8219ZM200.5 163.3L195.172 170.607L200.5 182.106L205.798 170.607L200.5 163.3ZM195.711 195.792C198.704 179.621 183.108 174.051 177.241 166.145C183.061 165.6 188.51 163.049 192.657 158.927C194.594 156.864 196.073 154.415 196.998 151.74C202.416 132.305 182.031 119.757 174.786 130.777C174.232 131.628 173.808 132.557 173.529 133.533C173.169 135.056 173.118 136.636 173.381 138.18C173.643 139.723 174.212 141.198 175.056 142.517C178.049 146.769 184.036 145.691 185.742 145.661C186.132 150.183 187.389 155.424 177.181 156.801C163.411 158.658 152.575 142.367 156.796 128.651C157.544 126.196 159.55 123.71 160.089 121.584C153.743 121.793 144.762 125.716 132.01 121.584C126.467 119.746 121.319 116.881 116.834 113.139C115.162 112.096 113.871 110.542 113.152 108.707C131.112 103.137 146.079 98.3152 161.047 100.531C176.732 102.837 187.239 110.983 197.566 122.452C197.566 114.007 197.267 109.246 193.914 104.005C192.317 101.608 190.167 99.6302 187.646 98.2386C185.124 96.8471 182.305 96.0825 179.426 96.0093C183.348 78.4905 196.219 94.2424 194.393 86.7258C191.999 76.6637 194.034 76.2145 198.225 68.0989C171.284 68.3085 136.141 81.1257 116.534 100.142C113.301 103.316 110.547 105.892 107.793 108.497C105.249 111.192 102.675 114.037 99.5316 117.481C80.7029 137.246 68.1904 172.613 68.1904 199.475C76.2427 195.193 76.6917 193.157 86.7496 195.462C94.2931 197.199 78.4578 184.442 95.9395 180.489C96.0396 183.369 96.8251 186.184 98.2308 188.7C99.6364 191.215 101.622 193.359 104.022 194.953C109.29 198.248 114.05 198.427 122.521 198.427C110.937 188.185 102.705 177.764 100.28 162.072C97.975 147.098 102.645 131.975 108.063 113.977C109.902 114.687 111.465 115.967 112.523 117.631C116.304 122.092 119.218 127.221 121.114 132.754C125.365 145.451 121.503 154.465 121.354 160.844C123.479 160.275 125.964 158.239 128.418 157.46C142.068 153.148 158.352 163.839 156.706 177.644C155.419 187.886 150.18 186.628 145.63 186.299C145.63 184.502 146.678 178.573 142.427 175.638C141.102 174.81 139.626 174.255 138.084 174.003C136.543 173.751 134.967 173.808 133.447 174.17C132.486 174.478 131.571 174.911 130.723 175.458C119.647 182.915 132.34 203.099 151.677 197.499C154.351 196.535 156.79 195.014 158.831 193.037C162.915 188.855 165.413 183.38 165.896 177.554C173.799 183.454 179.546 198.846 195.711 195.792ZM181.941 10.122C194.113 6.96704 206.887 6.96704 219.059 10.122C229.686 12.8471 237.349 16.9798 242.558 26.1734C244.084 28.8686 245.821 31.5339 247.437 31.5339C247.973 30.3361 248.887 29.3474 250.039 28.7198C251.191 28.0922 252.517 27.8604 253.813 28.0601C255.713 27.9401 257.615 28.2471 259.381 28.9585C262.215 30.2217 264.693 32.166 266.595 34.6185C269.664 38.4845 271.592 43.131 272.163 48.0346C272.432 50.7897 271.744 51.5983 272.761 53.7544C274.348 53.1854 276.054 50.3106 277.192 48.9031C286.441 37.1939 300.301 39.1703 305.39 49.7715C308.742 56.7491 306.408 59.025 303.923 62.6786C302.374 61.2733 300.642 60.0846 298.774 59.1449C291.62 56.1502 286.501 63.7267 290.902 71.4829C297.068 82.2937 329.816 73.13 315.508 46.7169C296.41 11.1402 244.354 1.49734 208.433 0H200.799H200.38H192.717C156.796 1.49734 104.77 11.1402 85.672 46.7169C71.4831 73.13 104.112 82.2937 110.248 71.4829C114.678 63.7267 109.53 56.2101 102.405 59.1449C100.533 60.0774 98.8001 61.2668 97.2566 62.6786C94.772 59.025 92.4072 56.6892 95.7599 49.7715C100.879 39.1703 114.708 37.1939 123.988 48.9031C125.095 50.3106 126.802 53.1854 128.388 53.7544C129.406 51.5983 128.747 50.7597 128.987 48.0346C129.554 43.1247 131.494 38.4745 134.585 34.6185C136.447 32.1828 138.885 30.2482 141.679 28.9884C143.455 28.2765 145.367 27.9696 147.277 28.09C148.573 27.8903 149.899 28.1221 151.051 28.7497C152.203 29.3773 153.117 30.366 153.653 31.5639C155.239 31.5639 156.976 28.8986 158.502 26.2034C163.621 17.0098 171.314 12.7573 181.941 10.1519V10.122ZM337.869 237.717C339.545 231.429 337.27 232.866 342 230.261C346.729 227.655 351.608 224.96 356.368 222.085C358.793 220.618 360.798 219.54 363.193 217.923C367.818 214.94 372.184 211.574 376.244 207.86C377.063 207.237 377.727 206.434 378.184 205.511C378.641 204.589 378.879 203.574 378.879 202.545C378.879 201.516 378.641 200.5 378.184 199.578C377.727 198.656 377.063 197.852 376.244 197.229C372.192 193.496 367.825 190.12 363.193 187.137C360.798 185.55 358.793 184.442 356.368 182.975C351.608 179.98 346.729 177.464 342 174.829C337.27 172.194 339.545 173.661 337.869 167.372C337.09 164.378 333.588 157.34 333.348 154.525C335.414 155.094 387.23 188.126 387.709 202.44C387.23 216.874 335.414 249.906 333.348 250.355C333.588 247.63 337.09 240.592 337.869 237.598V237.717ZM340.293 220.468C340.522 217.626 341.003 214.81 341.73 212.053C342.848 205.754 342.848 199.306 341.73 193.007C341.004 190.26 340.523 187.454 340.293 184.622L347.777 188.695C360.319 195.942 367.533 199.116 367.803 202.53C367.533 205.974 360.319 209.148 347.777 216.395L340.293 220.468ZM241.001 202.5C240.283 203.428 240.462 202.859 238.576 203.698C233.967 205.704 233.547 207.381 230.464 209.448C228.249 208.939 222.621 205.674 218.491 204.057C216.814 203.398 215.018 203.159 213.671 202.5C215.018 201.871 216.814 201.602 218.491 200.943C222.621 199.356 228.249 196.091 230.464 195.582C233.458 197.649 233.967 199.326 238.576 201.332C240.462 202.051 240.283 201.422 241.001 202.41V202.5ZM300.211 303.241C294.286 309.342 287.677 314.738 280.514 319.322C283.948 318.69 287.417 318.27 290.902 318.065C294.711 317.869 298.527 317.869 302.337 318.065C308.269 318.787 313.885 321.14 318.561 324.862C332.989 338.159 325.476 351.815 325.356 360.529C326.823 360.14 334.875 353.282 342.778 345.556C348.227 340.201 353.149 334.335 357.476 328.037C348.765 328.246 335.174 335.853 321.764 321.538C317.994 316.889 315.599 311.277 314.849 305.337C314.638 301.527 314.638 297.708 314.849 293.898C315.001 290.411 315.391 286.939 316.017 283.506C311.503 290.656 306.202 297.275 300.211 303.241ZM205.29 209.178C202.296 225.349 217.862 230.919 223.759 238.825C217.944 239.367 212.497 241.906 208.343 246.013C206.395 248.079 204.915 250.54 204.002 253.23C198.554 272.665 218.969 285.213 226.184 274.193C226.745 273.346 227.169 272.416 227.441 271.437C227.805 269.914 227.857 268.333 227.595 266.789C227.332 265.246 226.761 263.771 225.914 262.453C222.921 258.231 216.934 259.309 215.258 259.309C214.839 254.787 213.581 249.546 223.819 248.199C237.589 246.342 248.395 262.603 244.204 276.319C243.456 278.774 241.45 281.29 240.881 283.386C247.257 283.206 256.238 279.283 268.96 283.386C274.514 285.235 279.672 288.109 284.166 291.861C285.831 292.891 287.113 294.437 287.818 296.263C269.858 301.833 254.891 306.655 239.923 304.469C224.208 302.163 213.731 294.017 203.404 282.518C203.404 290.993 203.703 295.754 207.026 300.995C208.637 303.386 210.794 305.358 213.319 306.748C215.843 308.139 218.663 308.908 221.544 308.991C217.622 326.51 204.751 310.758 206.577 318.274C208.971 328.336 206.936 328.785 202.715 336.901C229.656 336.661 264.829 323.844 284.406 304.828C287.669 301.684 290.393 299.078 293.177 296.503C295.751 293.778 298.325 290.933 301.439 287.519C320.267 267.784 332.81 232.387 332.81 205.555C324.727 209.837 324.308 211.873 314.22 209.537C306.677 207.831 322.542 220.558 305.061 224.511C304.965 221.63 304.178 218.815 302.766 216.303C301.354 213.791 299.359 211.655 296.948 210.077C291.68 206.782 286.92 206.573 278.479 206.573C290.034 216.815 298.265 227.266 300.69 242.928C303.025 257.901 298.325 273.025 292.907 291.023C291.074 290.319 289.512 289.05 288.447 287.399C284.687 282.984 281.783 277.906 279.886 272.426C275.635 259.698 279.467 250.684 279.616 244.336C277.521 244.905 275.036 246.911 272.582 247.69C258.902 252.002 242.648 241.311 244.294 227.535C245.581 217.294 250.82 218.551 255.34 218.881C255.34 220.648 254.322 226.577 258.573 229.512C259.893 230.35 261.369 230.912 262.913 231.165C264.456 231.417 266.035 231.354 267.553 230.979C268.528 230.684 269.455 230.251 270.307 229.692C281.353 222.265 268.66 202.081 249.353 207.651C246.69 208.609 244.254 210.107 242.199 212.053C238.119 216.249 235.622 221.732 235.134 227.565C227.112 221.456 221.424 206.004 205.29 209.058V209.178ZM63.0417 237.598C61.3653 231.309 63.6703 232.746 58.9406 230.141C54.211 227.535 49.3018 224.84 44.5422 221.965C42.1176 220.498 40.1419 219.42 37.7472 217.803C33.113 214.821 28.7372 211.455 24.6659 207.741C23.8574 207.111 23.2033 206.304 22.7534 205.383C22.3035 204.462 22.0697 203.45 22.0697 202.425C22.0697 201.4 22.3035 200.388 22.7534 199.467C23.2033 198.546 23.8574 197.74 24.6659 197.11C28.7289 193.376 33.1055 190 37.7472 187.018C40.1419 185.43 42.1176 184.322 44.5422 182.855C49.3018 179.86 54.211 177.345 58.9406 174.709C63.6703 172.074 61.3653 173.541 63.0417 167.253C63.8499 164.258 67.3223 157.22 67.5617 154.405C65.4963 154.974 13.68 188.006 13.231 202.32C13.68 216.755 65.4963 249.786 67.5617 250.235C67.3821 247.63 63.9097 240.592 63.0417 237.598ZM60.6469 220.348C60.4043 217.508 59.9237 214.693 59.2101 211.933C58.0526 205.637 58.0526 199.183 59.2101 192.887C59.923 190.137 60.4036 187.332 60.6469 184.502L53.1334 188.575C40.5909 195.822 33.4067 198.996 33.1073 202.41C33.4067 205.854 40.5909 209.028 53.1334 216.276L60.6469 220.348ZM159.909 202.38C160.628 203.309 160.478 202.74 162.364 203.578C166.944 205.585 167.393 207.262 170.476 209.328C172.661 208.819 178.319 205.555 182.45 203.937C184.156 203.279 185.922 203.039 187.269 202.38C185.922 201.751 184.276 201.482 182.45 200.823C178.349 199.236 172.691 195.972 170.476 195.462C167.482 197.529 166.944 199.206 162.364 201.212C160.538 202.051 160.687 201.422 159.969 202.41L159.909 202.38ZM100.789 303.241C106.699 309.358 113.31 314.756 120.486 319.322C117.052 318.692 113.583 318.272 110.098 318.065C106.289 317.869 102.473 317.869 98.6635 318.065C92.7208 318.781 87.0937 321.135 82.4092 324.862C67.9808 338.159 75.4943 351.815 75.6141 360.529C69.36 356.095 63.5371 351.082 58.2222 345.556C52.7575 340.207 47.8251 334.34 43.4945 328.037C52.2054 328.246 65.7956 335.853 79.2062 321.538C82.9855 316.891 85.391 311.28 86.1509 305.337C86.3471 301.526 86.3471 297.708 86.1509 293.898C85.9691 290.413 85.5793 286.943 84.9835 283.506C89.4723 290.673 94.7761 297.295 100.789 303.241ZM166.076 341.573C172.332 343.31 170.895 341.004 173.499 345.765C176.104 350.527 178.708 355.438 181.522 360.2C182.959 362.655 184.066 364.662 185.623 367.057C188.562 371.718 191.897 376.116 195.591 380.204C196.968 381.498 198.661 382.407 200.5 382.839C202.33 382.407 204.014 381.498 205.379 380.204C209.073 376.116 212.408 371.718 215.347 367.057C216.934 364.662 218.012 362.655 219.448 360.2C222.292 355.438 224.896 350.527 227.501 345.765C230.105 341.004 228.638 343.31 234.924 341.573C237.918 340.764 244.923 337.201 247.706 336.961C247.168 338.997 215.527 389.607 200.799 391.644H200.171C185.443 389.607 153.802 338.997 153.294 336.961C156.077 337.081 163.082 340.644 166.076 341.453V341.573ZM183.288 344.148C186.119 344.412 188.922 344.913 191.669 345.646C194.592 346.133 197.54 346.443 200.5 346.574C203.45 346.443 206.389 346.133 209.301 345.646C212.048 344.913 214.852 344.412 217.682 344.148L213.701 351.665C207.235 363.075 204.062 370.082 200.979 371.549V371.819H200.5H199.991V371.549C196.998 370.082 193.765 363.075 187.299 351.665L183.288 344.148ZM200.5 241.67L195.172 234.363L200.5 222.894L205.798 234.363L200.5 241.67ZM195.711 209.178C198.704 225.349 183.108 230.919 177.241 238.825C183.054 239.372 188.5 241.911 192.657 246.013C194.595 248.087 196.073 250.546 196.998 253.23C202.416 272.665 182.031 285.213 174.786 274.193C174.237 273.339 173.814 272.411 173.529 271.437C173.172 269.914 173.123 268.334 173.386 266.791C173.648 265.248 174.216 263.773 175.056 262.453C178.049 258.231 184.036 259.309 185.742 259.309C186.132 254.787 187.389 249.546 177.181 248.199C163.411 246.342 152.575 262.603 156.796 276.319C157.544 278.774 159.55 281.29 160.089 283.386C153.743 283.206 144.762 279.283 132.01 283.386C126.465 285.235 121.317 288.11 116.834 291.861C115.158 292.886 113.865 294.433 113.152 296.263C131.112 301.833 146.079 306.655 161.047 304.469C176.732 302.163 187.239 294.017 197.566 282.518C197.566 290.993 197.267 295.754 193.914 300.995C192.317 303.392 190.167 305.37 187.646 306.761C185.124 308.153 182.305 308.917 179.426 308.991C183.348 326.51 196.219 310.758 194.393 318.274C191.999 328.336 194.034 328.785 198.225 336.901C171.284 336.661 136.141 323.844 116.534 304.828C113.301 301.684 110.547 299.078 107.793 296.503C105.249 293.778 102.675 290.933 99.5316 287.519C80.7029 267.784 68.1904 232.387 68.1904 205.555C76.2427 209.837 76.6917 211.873 86.7496 209.537C94.2931 207.831 78.4578 220.558 95.9395 224.511C96.032 221.633 96.8146 218.82 98.2211 216.308C99.6277 213.796 101.617 211.659 104.022 210.077C109.29 206.782 114.05 206.573 122.521 206.573C110.937 216.815 102.705 227.266 100.28 242.928C97.975 257.901 102.645 273.025 108.063 291.023C109.906 290.336 111.473 289.063 112.523 287.399C116.282 282.978 119.195 277.903 121.114 272.426C125.365 259.698 121.503 250.684 121.354 244.336C123.479 244.905 125.964 246.911 128.418 247.69C142.068 252.002 158.352 241.311 156.706 227.535C155.419 217.294 150.18 218.551 145.63 218.881C145.63 220.648 146.678 226.577 142.427 229.512C141.106 230.347 139.629 230.907 138.087 231.16C136.544 231.412 134.966 231.35 133.447 230.979C132.482 230.684 131.564 230.251 130.723 229.692C119.647 222.265 132.34 202.081 151.677 207.651C154.34 208.609 156.776 210.107 158.831 212.053C162.921 216.242 165.42 221.729 165.896 227.565C173.799 221.456 179.546 206.004 195.711 209.058V209.178ZM181.941 394.848C194.107 398.043 206.893 398.043 219.059 394.848C229.686 392.123 237.349 387.99 242.558 378.797C244.084 376.101 245.821 373.466 247.437 373.436C247.973 374.634 248.887 375.623 250.039 376.25C251.191 376.878 252.517 377.11 253.813 376.91C255.711 377.054 257.617 376.757 259.381 376.041C262.167 374.754 264.608 372.825 266.505 370.411C269.575 366.535 271.503 361.878 272.073 356.965C272.342 354.21 271.654 353.432 272.672 351.246C274.258 351.815 275.964 354.689 277.102 356.097C286.352 367.806 300.211 365.86 305.3 355.258C308.653 348.281 306.318 345.975 303.833 342.321C302.294 343.746 300.56 344.946 298.685 345.885C291.53 348.88 286.411 341.273 290.812 333.547C296.978 322.736 329.726 331.9 315.418 358.313C296.32 393.86 244.264 403.533 208.343 405H200.71H200.29H192.627C156.706 403.533 104.68 393.86 85.5822 358.313C71.3933 331.9 104.022 322.736 110.158 333.547C114.589 341.273 109.44 348.79 102.315 345.885C100.426 344.907 98.691 343.656 97.1668 342.172C94.6822 345.825 92.3174 348.161 95.6701 355.109C100.789 365.71 114.618 367.656 123.898 355.947C125.006 354.54 126.712 351.665 128.298 351.096C129.316 353.282 128.658 354.091 128.897 356.816C129.465 361.734 131.405 366.394 134.495 370.262C136.373 372.681 138.807 374.612 141.589 375.892C143.364 376.607 145.279 376.904 147.187 376.76C148.483 376.96 149.809 376.728 150.961 376.1C152.113 375.473 153.027 374.484 153.563 373.286C155.15 373.286 156.886 375.952 158.412 378.647C163.621 387.811 171.314 391.943 181.941 394.668V394.848ZM10.028 221.456C7.07474 209.052 7.07474 196.127 10.028 183.723C12.6921 173.092 16.7333 165.366 25.8932 160.065C28.5872 158.538 31.2215 156.771 31.2215 155.184C30.0186 154.659 29.0213 153.754 28.3831 152.607C27.7449 151.46 27.5011 150.135 27.6892 148.835C27.5363 146.929 27.8231 145.013 28.5274 143.235C29.774 140.432 31.6851 137.975 34.0952 136.078C37.925 132.949 42.5661 130.976 47.4758 130.388C50.2298 130.089 51.038 130.748 53.1633 129.729C52.5946 128.142 49.7209 126.465 48.284 125.357C36.5199 116.193 38.3458 102.328 48.9127 97.1173C55.8574 93.7034 58.1624 96.0393 61.8443 98.4949C60.4333 100.044 59.2537 101.789 58.342 103.676C55.3485 110.833 63.0416 115.924 70.7348 111.432C81.4812 105.173 72.0519 72.5011 45.7696 87.0253C10.3872 106.431 1.16744 158.568 0 194.534V210.406C1.16744 246.342 10.3872 298.479 45.7696 317.885C72.0519 332.289 81.4812 299.737 70.7348 293.478C63.0416 289.016 55.4683 294.077 58.342 301.264C59.2611 303.147 60.4401 304.891 61.8443 306.445C58.1624 308.901 55.8574 311.237 48.9127 307.793C38.3458 302.612 36.5199 288.747 48.284 279.583C49.7209 278.475 52.5946 276.798 53.1633 275.211C51.038 274.163 50.1699 274.821 47.4758 274.552C42.5733 273.938 37.9393 271.967 34.0952 268.862C31.6919 266.958 29.7822 264.503 28.5274 261.705C27.8251 259.926 27.5385 258.011 27.6892 256.105C27.5011 254.805 27.7449 253.48 28.3831 252.333C29.0213 251.186 30.0186 250.281 31.2215 249.756C31.2215 248.169 28.5872 246.402 25.8932 244.845C16.7333 239.664 12.6921 231.938 10.028 221.277V221.456ZM390.942 183.454C393.895 195.858 393.895 208.783 390.942 221.187C388.308 231.848 384.237 239.574 375.077 244.845C372.413 246.402 369.779 248.169 369.779 249.756C370.981 250.281 371.979 251.186 372.617 252.333C373.255 253.48 373.499 254.805 373.311 256.105C373.446 258.01 373.16 259.922 372.473 261.705C371.218 264.503 369.308 266.958 366.905 268.862C363.05 271.95 358.421 273.918 353.524 274.552C350.77 274.821 349.962 274.163 347.807 275.211C348.376 276.798 351.279 278.475 352.686 279.583C364.48 288.747 362.624 302.612 352.087 307.793C345.113 311.237 342.808 308.901 339.126 306.445C340.54 304.899 341.72 303.153 342.628 301.264C345.622 294.077 337.928 289.016 330.235 293.478C319.489 299.737 328.918 332.409 355.201 317.885C390.613 298.479 399.803 246.342 401 210.406V194.265C399.803 158.329 390.613 106.161 355.201 86.7558C328.918 72.3514 319.489 104.903 330.235 111.162C337.928 115.654 345.502 110.563 342.628 103.406C341.726 101.514 340.546 99.7673 339.126 98.2253C342.808 95.7697 345.113 93.4339 352.087 96.8478C362.624 102.059 364.48 115.924 352.686 125.088C351.279 126.196 348.376 127.873 347.807 129.46C349.962 130.478 350.8 129.819 353.524 130.119C358.43 130.719 363.068 132.691 366.905 135.809C369.315 137.706 371.226 140.163 372.473 142.966C373.163 144.747 373.449 146.66 373.311 148.566C373.499 149.865 373.255 151.19 372.617 152.337C371.979 153.484 370.981 154.39 369.779 154.915C369.779 156.502 372.413 158.269 375.077 159.796C384.237 165.186 388.308 172.913 390.942 183.454Z" fill="#EEEEEE"/>
</svg>
