<svg width="41" height="90" viewBox="0 0 41 90" fill="none" xmlns="http://www.w3.org/2000/svg">
<path d="M67.3791 22.6065C66.0493 21.2507 64.5659 20.0515 62.9583 19.0328C63.7286 19.174 64.5074 19.2651 65.2896 19.3057C66.1445 19.3523 67.0013 19.3523 67.8561 19.3057C69.1889 19.146 70.4502 18.6204 71.4975 17.7884C74.7357 14.8403 73.0494 11.799 73.0226 9.86246C74.4295 10.8463 75.7387 11.9605 76.9327 13.1899C78.1524 14.3828 79.2568 15.6862 80.2314 17.083C78.2764 17.043 75.2262 15.346 72.2163 18.5271C71.3727 19.5618 70.8354 20.8081 70.6644 22.1273C70.6171 22.9741 70.6171 23.8227 70.6644 24.6695C70.6985 25.4464 70.7861 26.2202 70.9264 26.9853C69.9155 25.3951 68.7254 23.9239 67.3791 22.5998V22.6065ZM46.075 43.5093C45.4031 39.9157 48.8967 38.6779 50.2202 36.921C48.9137 36.8011 47.6903 36.234 46.7602 35.3172C46.3233 34.8605 45.991 34.3157 45.7861 33.7201C44.5633 29.4011 49.1453 26.6127 50.7644 29.0617C50.8916 29.2491 50.9869 29.4559 51.0466 29.6739C51.129 30.0123 51.1412 30.3638 51.0823 30.707C51.0234 31.0502 50.8947 31.3779 50.7039 31.6704C50.0321 32.6153 48.6884 32.3758 48.3122 32.3691C48.2181 33.374 47.936 34.5386 50.2337 34.8447C53.3241 35.2573 55.7495 31.6371 54.8089 28.5892C54.6409 28.0435 54.1908 27.4911 54.0632 27.0186C55.4942 27.0652 57.5097 27.937 60.365 27.0186C61.6113 26.6103 62.769 25.9737 63.778 25.142C64.1527 24.9114 64.4406 24.5653 64.5976 24.157C60.5666 22.9192 57.2074 21.8478 53.8482 22.3403C50.321 22.8527 47.9695 24.6628 45.6517 27.2116C45.6517 25.335 45.7189 24.2768 46.4646 23.1122C46.8262 22.581 47.3104 22.1427 47.877 21.8337C48.4437 21.5247 49.0765 21.3539 49.7231 21.3354C48.8429 17.4423 45.954 20.9428 46.3638 19.2724C46.9013 17.0364 46.4445 16.9366 45.4972 15.1331C51.5438 15.1797 59.4379 18.0279 63.8317 22.2538C64.564 22.9592 65.1754 23.5315 65.8002 24.1105C66.378 24.7094 66.9558 25.3416 67.6545 26.1069C71.8804 30.4991 74.6954 38.3585 74.6954 44.3279C72.8815 43.3762 72.7874 42.9237 70.5233 43.4361C68.8303 43.8221 72.391 40.9871 68.4675 40.1087C68.4437 40.7492 68.2661 41.3749 67.9495 41.9339C67.6329 42.4929 67.1863 42.9691 66.6468 43.323C65.4643 44.055 64.3961 44.0949 62.5015 44.0949C65.0948 41.819 66.9424 39.5031 67.4866 36.016C68.0106 32.6885 66.9558 29.3279 65.7398 25.3283C65.3292 25.4896 64.9793 25.7733 64.7387 26.1402C63.8898 27.1302 63.2378 28.2706 62.8173 29.5009C61.8632 32.3225 62.7232 34.3256 62.7568 35.7431C62.2865 35.6167 61.7289 35.1642 61.178 34.9911C58.1076 34.0328 54.4595 36.4086 54.8291 39.4765C55.118 41.7524 56.2937 41.4729 57.3082 41.3997C57.3082 41.0004 57.0797 39.6828 58.0337 39.0306C58.4199 38.7615 58.8789 38.6137 59.3511 38.6066C59.8232 38.5995 60.2865 38.7333 60.6808 38.9907C63.1599 40.6477 60.3113 45.1331 55.9779 43.8886C55.379 43.6785 54.8317 43.3451 54.3722 42.9104C53.458 41.9796 52.8977 40.7637 52.7867 39.4698C50.9727 40.7675 49.6962 44.1881 46.075 43.5093ZM22.6209 22.6065C23.9474 21.2471 25.4313 20.0476 27.0417 19.0328C26.2713 19.1735 25.4926 19.2647 24.7104 19.3057C23.8555 19.3523 22.9988 19.3523 22.1439 19.3057C20.8087 19.1472 19.545 18.6216 18.4958 17.7884C15.2575 14.8403 16.9439 11.799 16.9707 9.86246C15.568 10.849 14.2612 11.963 13.0673 13.1899C11.8442 14.3816 10.7375 15.6851 9.76187 17.083C11.7169 17.043 14.7671 15.346 17.7769 18.5271C18.6118 19.5668 19.1397 20.8152 19.302 22.134C19.346 22.9808 19.346 23.8293 19.302 24.6761C19.2612 25.4526 19.1737 26.2259 19.04 26.992C20.056 25.3962 21.2579 23.9243 22.6209 22.6065ZM37.2738 14.0816C38.678 13.7023 38.3555 14.2147 38.94 13.1566C39.5245 12.0985 40.109 11.0071 40.7405 9.94232C41.063 9.40327 41.3116 8.9574 41.6609 8.41836C42.3224 7.38391 43.0708 6.40661 43.8982 5.49689C44.2077 5.21129 44.5877 5.01159 45 4.91792C45.4102 5.01179 45.7881 5.21154 46.0951 5.49689C46.9225 6.40661 47.6709 7.38391 48.3323 8.41836C48.6884 8.9574 48.9303 9.40327 49.2528 9.94232C49.891 11.0071 50.4755 12.0985 51.06 13.1566C51.6445 14.2147 51.3153 13.7023 52.7262 14.0816C53.398 14.268 54.9701 15.0532 55.595 15.1131C55.474 14.6606 48.3727 3.40727 45.0672 2.95474H44.9261C41.6206 3.40727 34.5193 14.6606 34.405 15.1131C35.0299 15.0532 36.602 14.268 37.2738 14.0816ZM41.1369 13.516C41.7722 13.4573 42.4015 13.346 43.0181 13.1832C43.6735 13.0717 44.3355 13.0027 45 12.9769C45.6623 13.0028 46.3221 13.0717 46.9752 13.1832C47.5918 13.346 48.221 13.4573 48.8564 13.516L47.9628 11.8456C46.5117 9.31011 45.7995 7.75288 45.1075 7.42679V7.3669C45.072 7.36054 45.0355 7.36054 45 7.3669C44.9622 7.36057 44.9236 7.36057 44.8858 7.3669V7.42679C44.2139 7.75288 43.4884 9.31011 42.0372 11.8456L41.1369 13.516ZM45 36.2888L43.8041 37.9126L45 40.4681L46.1892 37.9126L45 36.2888ZM43.9251 43.5093C44.5969 39.9157 41.0966 38.6779 39.7798 36.921C41.086 36.8 42.3091 36.233 43.2398 35.3172C43.6744 34.8587 44.0064 34.3145 44.2139 33.7201C45.43 29.4011 40.8547 26.6127 39.2289 29.0617C39.1044 29.2506 39.0093 29.457 38.9467 29.6739C38.8658 30.0124 38.8545 30.3636 38.9133 30.7066C38.9722 31.0496 39.1001 31.3773 39.2893 31.6704C39.9612 32.6153 41.3049 32.3758 41.6878 32.3691C41.7752 33.374 42.0573 34.5386 39.7663 34.8447C36.6759 35.2573 34.2438 31.6371 35.1911 28.5892C35.3591 28.0435 35.8092 27.4911 35.9301 27.0186C34.5058 27.0652 32.4903 27.937 29.6282 27.0186C28.3841 26.6101 27.2286 25.9735 26.222 25.142C25.8468 24.9102 25.557 24.5648 25.3956 24.157C29.4267 22.9192 32.7859 21.8478 36.1451 22.3403C39.6656 22.8527 42.0237 24.6628 44.3416 27.2116C44.3416 25.335 44.2744 24.2768 43.5219 23.1122C43.1634 22.5795 42.6809 22.14 42.115 21.8308C41.549 21.5216 40.9163 21.3517 40.2702 21.3354C41.1503 17.4423 44.0393 20.9428 43.6294 19.2724C43.092 17.0364 43.5488 16.9366 44.4894 15.1331C38.4428 15.1797 30.5554 18.0279 26.1548 22.2538C25.4292 22.9592 24.8111 23.5315 24.193 24.1105C23.622 24.7094 23.0442 25.3416 22.3388 26.1069C18.1129 30.4991 15.3046 38.3585 15.3046 44.3279C17.1118 43.3762 17.2126 42.9237 19.47 43.4361C21.163 43.8221 17.609 40.9871 21.5325 40.1087C21.555 40.7487 21.7313 41.3743 22.0468 41.9333C22.3623 42.4923 22.8079 42.9687 23.3465 43.323C24.529 44.055 25.5972 44.0949 27.4985 44.0949C24.8985 41.819 23.0509 39.5031 22.5067 36.016C21.9894 32.6885 23.0375 29.3279 24.2535 25.3283C24.6662 25.486 25.0171 25.7705 25.2546 26.1402C26.1032 27.1315 26.7572 28.2714 27.1827 29.5009C28.1368 32.3225 27.2701 34.3256 27.2365 35.7431C27.7135 35.6167 28.2711 35.1642 28.822 34.9911C31.8856 34.0328 35.5405 36.4086 35.1709 39.4765C34.8821 41.7524 33.7063 41.4729 32.6851 41.3997C32.6851 41.0004 32.9203 39.6828 31.9663 39.0306C31.6688 38.8468 31.3375 38.7233 30.9915 38.6673C30.6455 38.6113 30.2917 38.624 29.9507 38.7045C29.7351 38.7728 29.5296 38.8691 29.3394 38.9907C26.8535 40.6477 29.7022 45.1331 34.0423 43.8886C34.6424 43.6745 35.1897 43.3365 35.648 42.8971C36.5645 41.9678 37.1252 40.7511 37.2335 39.4565C39.0072 40.7675 40.2971 44.1881 43.9251 43.5093ZM40.8346 2.24933C43.5664 1.54823 46.4336 1.54823 49.1654 2.24933C51.5505 2.85492 53.2704 3.77329 54.4394 5.81632C54.782 6.41525 55.1717 7.00754 55.5345 7.00754C55.6547 6.74136 55.8599 6.52165 56.1184 6.38218C56.3769 6.24271 56.6745 6.1912 56.9655 6.23558C57.3919 6.20891 57.8189 6.27713 58.2151 6.43522C58.8512 6.71593 59.4074 7.14799 59.8343 7.69299C60.523 8.5521 60.9558 9.58468 61.0839 10.6744C61.1444 11.2866 60.9898 11.4663 61.2183 11.9454C61.5744 11.819 61.9573 11.1801 62.2126 10.8673C64.2886 8.26531 67.3992 8.70452 68.5414 11.0603C69.2938 12.6109 68.7698 13.1167 68.2122 13.9286C67.8646 13.6163 67.4758 13.3521 67.0566 13.1433C65.4509 12.4778 64.302 14.1615 65.2896 15.8851C66.6736 18.2875 74.0236 16.2511 70.8122 10.3815C66.5258 2.47559 54.8425 0.332742 46.7804 0H45.0672H44.9731H43.2532C35.1911 0.332742 23.5145 2.47559 19.2281 10.3815C16.0436 16.2511 23.3667 18.2875 24.744 15.8851C25.7383 14.1615 24.5827 12.4911 22.9837 13.1433C22.5635 13.3505 22.1746 13.6148 21.8282 13.9286C21.2705 13.1167 20.7398 12.5976 21.4922 11.0603C22.6411 8.70452 25.745 8.26531 27.8277 10.8673C28.0763 11.1801 28.4592 11.819 28.8153 11.9454C29.0437 11.4663 28.8959 11.2799 28.9497 10.6744C29.0769 9.58326 29.5124 8.54988 30.206 7.69299C30.624 7.15173 31.1711 6.72181 31.7983 6.44188C32.1969 6.28367 32.6261 6.21546 33.0546 6.24223C33.3456 6.19785 33.6432 6.24936 33.9018 6.38883C34.1603 6.5283 34.3655 6.74801 34.4857 7.01419C34.8417 7.01419 35.2314 6.42192 35.5741 5.82298C36.7229 3.77995 38.4495 2.83496 40.8346 2.25599V2.24933ZM75.8308 52.8261C76.2071 51.4286 75.6965 51.748 76.758 51.169C77.8195 50.5901 78.9146 49.9911 79.9828 49.3523C80.527 49.0262 80.9772 48.7866 81.5146 48.4272C82.5526 47.7645 83.5325 47.0166 84.4439 46.1912C84.6277 46.0528 84.7766 45.8741 84.8792 45.6692C84.9818 45.4643 85.0351 45.2387 85.0351 45.01C85.0351 44.7813 84.9818 44.5557 84.8792 44.3507C84.7766 44.1458 84.6277 43.9672 84.4439 43.8287C83.5344 42.9991 82.5543 42.2488 81.5146 41.5861C80.9772 41.2334 80.527 40.9871 79.9828 40.661C78.9146 39.9956 77.8195 39.4365 76.758 38.8509C75.6965 38.2653 76.2071 38.5914 75.8308 37.1939C75.6562 36.5284 74.8701 34.9645 74.8164 34.3389C75.2799 34.4654 86.9095 41.8057 87.017 44.9867C86.9095 48.1943 75.2799 55.5346 74.8164 55.6344C74.8701 55.0288 75.6562 53.4649 75.8308 52.7995V52.8261ZM76.375 48.9929C76.4263 48.3613 76.5343 47.7355 76.6975 47.1229C76.9483 45.723 76.9483 44.2903 76.6975 42.8904C76.5345 42.28 76.4265 41.6564 76.375 41.0271L78.0546 41.9321C80.8697 43.5426 82.4888 44.248 82.5493 45.0066C82.4888 45.7719 80.8697 46.4774 78.0546 48.0878L76.375 48.9929ZM54.09 45C53.9288 45.2063 53.9691 45.0798 53.5458 45.2662C52.5112 45.7121 52.4171 46.0847 51.7251 46.5439C51.228 46.4308 49.9649 45.7054 49.0378 45.346C48.6615 45.1996 48.2584 45.1464 47.9561 45C48.2584 44.8602 48.6615 44.8003 49.0378 44.6539C49.9649 44.3012 51.228 43.5759 51.7251 43.4627C52.397 43.9219 52.5112 44.2946 53.5458 44.7405C53.9691 44.9002 53.9288 44.7604 54.09 44.98V45ZM67.3791 67.3869C66.0493 68.7426 64.5659 69.9418 62.9583 70.9605C63.7289 70.8201 64.5075 70.7267 65.2896 70.681C66.1446 70.6376 67.0012 70.6376 67.8561 70.681C69.1875 70.8415 70.448 71.3644 71.4975 72.1917C74.7357 75.1464 73.0494 78.181 73.0226 80.1176C73.3518 80.0311 75.159 78.5071 76.9327 76.7901C78.1558 75.6003 79.2605 74.2966 80.2314 72.8971C78.2764 72.9436 75.2262 74.634 72.2163 71.453C71.3702 70.4197 70.8327 69.1727 70.6644 67.8527C70.617 67.006 70.617 66.1573 70.6644 65.3106C70.6985 64.5358 70.786 63.7643 70.9264 63.0013C69.9134 64.5901 68.7235 66.0612 67.3791 67.3869ZM46.075 46.484C45.4031 50.0776 48.8967 51.3154 50.2202 53.0723C48.9152 53.1926 47.6925 53.757 46.7602 54.6695C46.3231 55.1287 45.9909 55.6756 45.7861 56.2733C44.5633 60.5923 49.1453 63.3806 50.7644 60.9317C50.8903 60.7435 50.9856 60.5369 51.0466 60.3194C51.1282 59.981 51.14 59.6296 51.0811 59.2865C51.0222 58.9435 50.8939 58.6157 50.7039 58.323C50.0321 57.3846 48.6884 57.6242 48.3122 57.6242C48.2181 56.6193 47.936 55.4547 50.2337 55.1553C53.3241 54.7427 55.7495 58.3562 54.8089 61.4042C54.6409 61.9499 54.1908 62.5089 54.0632 62.9747C55.4942 62.9348 57.5097 62.063 60.365 62.9747C61.6116 63.3855 62.7693 64.0243 63.778 64.858C64.1515 65.0869 64.4393 65.4304 64.5976 65.8363C60.5666 67.0741 57.2074 68.1455 53.8482 67.6597C50.321 67.1473 47.9695 65.3372 45.6517 62.7817C45.6517 64.665 45.7189 65.7232 46.4646 66.8877C46.8262 67.419 47.3104 67.8573 47.877 68.1663C48.4437 68.4753 49.0765 68.6461 49.7231 68.6646C48.8429 72.5577 45.954 69.0572 46.3638 70.7276C46.9013 72.9636 46.4445 73.0634 45.4972 74.8669C51.5438 74.8137 59.4379 71.9654 63.8317 67.7396C64.564 67.0408 65.1754 66.4618 65.8002 65.8895C66.378 65.2839 66.9558 64.6517 67.6545 63.8931C71.8804 59.5075 74.6954 51.6415 74.6954 45.6788C72.8815 46.6304 72.7874 47.083 70.5233 46.5639C68.8303 46.1846 72.391 49.0129 68.4675 49.8913C68.4459 49.2512 68.2693 48.6256 67.9524 48.0673C67.6355 47.5091 67.1877 47.0345 66.6468 46.6837C65.4643 45.9516 64.3961 45.9051 62.5015 45.9051C65.0948 48.181 66.9424 50.5035 67.4866 53.984C68.0106 57.3114 66.9558 60.6721 65.7398 64.6717C65.3283 64.5153 64.9777 64.2333 64.7387 63.8665C63.8948 62.8854 63.2431 61.757 62.8173 60.539C61.8632 57.7107 62.7232 55.7076 62.7568 54.2968C62.2865 54.4232 61.7289 54.8691 61.178 55.0421C58.1076 56.0004 54.4595 53.6247 54.8291 50.5634C55.118 48.2875 56.2937 48.567 57.3082 48.6402C57.3082 49.0328 57.0797 50.3505 58.0337 51.0027C58.3301 51.1889 58.6614 51.3139 59.0078 51.3699C59.3542 51.426 59.7085 51.412 60.0493 51.3287C60.2681 51.2632 60.4762 51.1668 60.6674 51.0426C63.1465 49.3922 60.2979 44.9068 55.9645 46.1446C55.3668 46.3575 54.8201 46.6905 54.3588 47.1229C53.4432 48.0554 52.8828 49.2738 52.7732 50.5701C50.9727 49.2125 49.6962 45.7786 46.075 46.4574V46.484ZM14.149 52.7995C13.7728 51.4019 14.2901 51.7214 13.2286 51.1424C12.1671 50.5634 11.0652 49.9645 9.99701 49.3256C9.45282 48.9995 9.00941 48.76 8.47193 48.4006C7.43184 47.738 6.44974 46.99 5.53598 46.1646C5.35453 46.0246 5.20773 45.8454 5.10675 45.6407C5.00578 45.436 4.95329 45.2112 4.95329 44.9834C4.95329 44.7555 5.00578 44.5307 5.10675 44.326C5.20773 44.1213 5.35453 43.9421 5.53598 43.8021C6.44789 42.9725 7.43016 42.2222 8.47193 41.5594C9.00941 41.2067 9.45282 40.9605 9.99701 40.6344C11.0652 39.9689 12.1671 39.4099 13.2286 38.8243C14.2901 38.2387 13.7728 38.5648 14.149 37.1672C14.3304 36.5018 15.1097 34.9379 15.1635 34.3123C14.6999 34.4388 3.07032 41.7791 2.96954 44.9601C3.07032 48.1677 14.6999 55.508 15.1635 55.6078C15.1232 55.0288 14.3438 53.4649 14.149 52.7995ZM13.6115 48.9663C13.5571 48.3351 13.4492 47.7096 13.289 47.0963C13.0293 45.6972 13.0293 44.2629 13.289 42.8638C13.449 42.2527 13.5569 41.6294 13.6115 41.0004L11.9252 41.9055C9.11018 43.516 7.49776 44.2214 7.43058 44.98C7.49776 45.7453 9.11018 46.4508 11.9252 48.0612L13.6115 48.9663ZM35.8898 44.9734C36.0511 45.1797 36.0175 45.0532 36.4407 45.2396C37.4687 45.6854 37.5694 46.0581 38.2614 46.5173C38.7519 46.4042 40.0216 45.6788 40.9488 45.3194C41.3317 45.173 41.7281 45.1198 42.0305 44.9734C41.7281 44.8336 41.3586 44.7737 40.9488 44.6273C40.0284 44.2746 38.7586 43.5492 38.2614 43.4361C37.5896 43.8953 37.4687 44.268 36.4407 44.7138C36.0309 44.9002 36.0645 44.7604 35.9033 44.98L35.8898 44.9734ZM22.6209 67.3869C23.9474 68.7462 25.4313 69.9457 27.0417 70.9605C26.271 70.8205 25.4925 70.7271 24.7104 70.681C23.8554 70.6376 22.9988 70.6376 22.1439 70.681C20.8102 70.8403 19.5472 71.3633 18.4958 72.1917C15.2575 75.1464 16.9439 78.181 16.9707 80.1176C15.5671 79.1322 14.2602 78.0181 13.0673 76.7901C11.8408 75.6016 10.7338 74.2977 9.76187 72.8971C11.7169 72.9436 14.7671 74.634 17.7769 71.453C18.6252 70.4203 19.1651 69.1732 19.3356 67.8527C19.3796 67.0059 19.3796 66.1574 19.3356 65.3106C19.2948 64.5363 19.2073 63.7652 19.0736 63.0013C20.0811 64.594 21.2715 66.0656 22.6209 67.3869ZM37.2738 75.9051C38.678 76.291 38.3555 75.7786 38.94 76.8367C39.5245 77.8949 40.109 78.9862 40.7405 80.0443C41.063 80.59 41.3116 81.0359 41.6609 81.5683C42.3207 82.6039 43.0692 83.5814 43.8982 84.4898C44.2073 84.7773 44.5873 84.9792 45 85.0754C45.4108 84.9793 45.7886 84.7773 46.0951 84.4898C46.9241 83.5814 47.6726 82.6039 48.3323 81.5683C48.6884 81.0359 48.9303 80.59 49.2528 80.0443C49.891 78.9862 50.4755 77.8949 51.06 76.8367C51.6445 75.7786 51.3153 76.291 52.7262 75.9051C53.398 75.7254 54.9701 74.9334 55.595 74.8802C55.474 75.3327 48.3727 86.5794 45.0672 87.0319H44.9261C41.6206 86.5794 34.5193 75.3327 34.405 74.8802C35.0299 74.9068 36.602 75.6987 37.2738 75.8784V75.9051ZM41.1369 76.4774C41.7722 76.536 42.4015 76.6473 43.0181 76.8101C43.6739 76.9184 44.3358 76.9873 45 77.0164C45.662 76.9872 46.3216 76.9183 46.9752 76.8101C47.5918 76.6473 48.221 76.536 48.8564 76.4774L47.9628 78.1477C46.5117 80.6832 45.7995 82.2404 45.1075 82.5665V82.6264H45H44.8858V82.5665C44.2139 82.2404 43.4884 80.6832 42.0372 78.1477L41.1369 76.4774ZM45 53.7045L43.8041 52.0807L45 49.5319L46.1892 52.0807L45 53.7045ZM43.9251 46.484C44.5969 50.0776 41.0966 51.3154 39.7798 53.0723C41.0845 53.1937 42.3068 53.7579 43.2398 54.6695C43.6746 55.1304 44.0065 55.6769 44.2139 56.2733C45.43 60.5923 40.8547 63.3806 39.2289 60.9317C39.1056 60.7421 39.0106 60.5359 38.9467 60.3194C38.8666 59.9808 38.8556 59.6298 38.9145 59.2869C38.9733 58.9441 39.1008 58.6163 39.2893 58.323C39.9612 57.3846 41.3049 57.6242 41.6878 57.6242C41.7752 56.6193 42.0573 55.4547 39.7663 55.1553C36.6759 54.7427 34.2438 58.3562 35.1911 61.4042C35.3591 61.9499 35.8092 62.5089 35.9301 62.9747C34.5058 62.9348 32.4903 62.063 29.6282 62.9747C28.3837 63.3855 27.2283 64.0244 26.222 64.858C25.846 65.0858 25.5557 65.4295 25.3956 65.8363C29.4267 67.0741 32.7859 68.1455 36.1451 67.6597C39.6656 67.1473 42.0237 65.3372 44.3416 62.7817C44.3416 64.665 44.2744 65.7232 43.5219 66.8877C43.1634 67.4204 42.6809 67.8599 42.115 68.1692C41.549 68.4784 40.9163 68.6483 40.2702 68.6646C41.1503 72.5577 44.0393 69.0572 43.6294 70.7276C43.092 72.9636 43.5488 73.0634 44.4894 74.8669C38.4428 74.8137 30.5554 71.9654 26.1548 67.7396C25.4292 67.0408 24.8111 66.4618 24.193 65.8895C23.622 65.2839 23.0442 64.6517 22.3388 63.8931C18.1129 59.5075 15.3046 51.6415 15.3046 45.6788C17.1118 46.6304 17.2126 47.083 19.47 46.5639C21.163 46.1846 17.609 49.0129 21.5325 49.8913C21.5533 49.2518 21.729 48.6266 22.0446 48.0684C22.3603 47.5101 22.8068 47.0352 23.3465 46.6837C24.529 45.9516 25.5972 45.9051 27.4985 45.9051C24.8985 48.181 23.0509 50.5035 22.5067 53.984C21.9894 57.3114 23.0375 60.6721 24.2535 64.6717C24.6672 64.5191 25.0189 64.2362 25.2546 63.8665C26.0982 62.8841 26.7519 61.7561 27.1827 60.539C28.1368 57.7107 27.2701 55.7076 27.2365 54.2968C27.7135 54.4232 28.2711 54.8691 28.822 55.0421C31.8856 56.0004 35.5405 53.6247 35.1709 50.5634C34.8821 48.2875 33.7063 48.567 32.6851 48.6402C32.6851 49.0328 32.9203 50.3505 31.9663 51.0027C31.6696 51.1882 31.3383 51.3128 30.992 51.3688C30.6457 51.4248 30.2916 51.4112 29.9507 51.3287C29.734 51.2632 29.5281 51.1668 29.3394 51.0426C26.8535 49.3922 29.7022 44.9068 34.0423 46.1446C34.6399 46.3575 35.1866 46.6905 35.648 47.1229C36.5659 48.0538 37.1267 49.2731 37.2335 50.5701C39.0072 49.2125 40.2971 45.7786 43.9251 46.4574V46.484ZM40.8346 87.744C43.5653 88.454 46.4347 88.454 49.1654 87.744C51.5505 87.1384 53.2704 86.22 54.4394 84.177C54.782 83.5781 55.1717 82.9924 55.5345 82.9858C55.6547 83.252 55.8599 83.4717 56.1184 83.6111C56.3769 83.7506 56.6745 83.8021 56.9655 83.7578C57.3915 83.7898 57.8192 83.7238 58.2151 83.5648C58.8404 83.2787 59.3884 82.8499 59.8141 82.3137C60.5031 81.4521 60.9358 80.4174 61.0638 79.3256C61.1242 78.7134 60.9697 78.5404 61.1981 78.0546C61.5542 78.181 61.9371 78.8199 62.1924 79.1326C64.2684 81.7347 67.3791 81.3021 68.5212 78.9463C69.2737 77.3957 68.7496 76.8833 68.192 76.0714C67.8464 76.388 67.4574 76.6547 67.0364 76.8633C65.4307 77.5288 64.2819 75.8385 65.2695 74.1216C66.6535 71.7192 74.0034 73.7555 70.792 79.6251C66.5057 87.5244 54.8223 89.6739 46.7602 90H45.047H44.953H43.2331C35.1709 89.6739 23.4943 87.5244 19.208 79.6251C16.0234 73.7555 23.3465 71.7192 24.7238 74.1216C25.7181 75.8385 24.5626 77.5089 22.9636 76.8633C22.5395 76.6461 22.1501 76.368 21.808 76.0381C21.2504 76.85 20.7196 77.3691 21.4721 78.913C22.6209 81.2689 25.7248 81.7014 27.8076 79.0994C28.0561 78.7866 28.4391 78.1477 28.7952 78.0213C29.0236 78.5071 28.8758 78.6868 28.9295 79.2924C29.057 80.3854 29.4923 81.4209 30.1859 82.2804C30.6075 82.818 31.1537 83.2472 31.7781 83.5315C32.1765 83.6903 32.6063 83.7564 33.0345 83.7245C33.3255 83.7688 33.6231 83.7173 33.8816 83.5779C34.1402 83.4384 34.3453 83.2187 34.4655 82.9525C34.8216 82.9525 35.2113 83.5448 35.5539 84.1437C36.7229 86.1801 38.4495 87.0985 40.8346 87.7041V87.744ZM2.25067 49.2125C1.58785 46.456 1.58785 43.5839 2.25067 40.8274C2.84861 38.4649 3.75559 36.748 5.81143 35.5701C6.41609 35.2307 7.00732 34.8381 7.00732 34.4854C6.73734 34.3688 6.51352 34.1675 6.37028 33.9126C6.22704 33.6577 6.17233 33.3633 6.21454 33.0745C6.18022 32.6509 6.24458 32.2252 6.40266 31.8301C6.68244 31.2072 7.11138 30.6612 7.65228 30.2396C8.51185 29.5442 9.55349 29.1057 10.6554 28.9751C11.2735 28.9086 11.4549 29.055 11.9319 28.8287C11.8043 28.476 11.1593 28.1034 10.8368 27.8571C8.19648 25.8208 8.6063 22.7396 10.9779 21.5816C12.5366 20.823 13.0539 21.3421 13.8803 21.8878C13.5636 22.232 13.2988 22.6198 13.0942 23.039C12.4224 24.6295 14.149 25.7609 15.8756 24.7626C18.2875 23.3718 16.1712 16.1114 10.2725 19.3389C2.33129 23.6513 0.262019 35.2373 0 43.2298V46.7569C0.262019 54.7427 2.33129 66.3287 10.2725 70.6411C16.1712 73.842 18.2875 66.6082 15.8756 65.2174C14.149 64.2258 12.4492 65.3505 13.0942 66.9476C13.3005 67.366 13.5651 67.7535 13.8803 68.0989C13.0539 68.6446 12.5366 69.1637 10.9779 68.3984C8.6063 67.2471 8.19648 64.1659 10.8368 62.1295C11.1593 61.8833 11.8043 61.5106 11.9319 61.1579C11.4549 60.925 11.2601 61.0714 10.6554 61.0115C9.55511 60.875 8.51507 60.4371 7.65228 59.7471C7.11291 59.324 6.68429 58.7784 6.40266 58.1566C6.24504 57.7614 6.1807 57.3357 6.21454 56.9121C6.17233 56.6234 6.22704 56.329 6.37028 56.0741C6.51352 55.8191 6.73734 55.6179 7.00732 55.5013C7.00732 55.1486 6.41609 54.756 5.81143 54.4099C3.75559 53.2586 2.84861 51.5417 2.25067 49.1726V49.2125ZM87.7426 40.7675C88.4054 43.524 88.4054 46.3961 87.7426 49.1526C87.1514 51.5217 86.2377 53.2387 84.1819 54.4099C83.5839 54.756 82.9927 55.1486 82.9927 55.5013C83.2627 55.6179 83.4865 55.8191 83.6297 56.0741C83.773 56.329 83.8277 56.6234 83.7855 56.9121C83.8158 57.3356 83.7516 57.7605 83.5973 58.1566C83.3157 58.7784 82.8871 59.324 82.3477 59.7471C81.4826 60.4332 80.4437 60.8706 79.3446 61.0115C78.7265 61.0714 78.5451 60.925 78.0614 61.1579C78.189 61.5106 78.8407 61.8833 79.1565 62.1295C81.8035 64.1659 81.387 67.2471 79.0221 68.3984C77.4567 69.1637 76.9394 68.6446 76.113 68.0989C76.4304 67.7552 76.6952 67.3673 76.8991 66.9476C77.5709 65.3505 75.8443 64.2258 74.1176 65.2174C71.7057 66.6082 73.822 73.8687 79.7208 70.6411C87.6687 66.3287 89.7313 54.7427 90 46.7569V43.1699C89.7313 35.1841 87.6687 23.5914 79.7208 19.2791C73.822 16.0781 71.7057 23.3119 74.1176 24.7027C75.8443 25.701 77.544 24.5697 76.8991 22.9791C76.6967 22.5586 76.4317 22.1705 76.113 21.8279C76.9394 21.2822 77.4567 20.7631 79.0221 21.5217C81.387 22.6797 81.8035 25.7609 79.1565 27.7972C78.8407 28.0435 78.189 28.4161 78.0614 28.7689C78.5451 28.9951 78.7332 28.8487 79.3446 28.9153C80.4457 29.0486 81.4866 29.4869 82.3477 30.1797C82.8886 30.6013 83.3176 31.1472 83.5973 31.7702C83.7523 32.1661 83.8165 32.5911 83.7855 33.0146C83.8277 33.3034 83.773 33.5978 83.6297 33.8527C83.4865 34.1076 83.2627 34.3089 82.9927 34.4255C82.9927 34.7782 83.5839 35.1708 84.1819 35.5102C86.2377 36.7081 87.1514 38.425 87.7426 40.7675Z" fill="#EEEEEE"/>
</svg>
