<svg width="591" height="630" viewBox="0 0 591 630" fill="none" xmlns="http://www.w3.org/2000/svg">
<path d="M572.211 101.729C566.286 95.6281 559.677 90.2319 552.514 85.6477C555.946 86.283 559.416 86.6932 562.902 86.8755C566.71 87.0855 570.528 87.0855 574.337 86.8755C580.275 86.1569 585.895 83.792 590.561 80.0477C604.989 66.7813 597.476 53.0956 597.356 44.3811C603.625 48.8084 609.458 53.8221 614.778 59.3545C620.212 64.7228 625.133 70.588 629.476 76.8733C620.765 76.6936 607.174 69.0572 593.764 83.3718C590.005 88.0281 587.611 93.6365 586.849 99.573C586.638 103.383 586.638 107.202 586.849 111.013C587.001 114.509 587.391 117.991 588.017 121.434C583.512 114.278 578.21 107.657 572.211 101.699V101.729ZM477.29 195.792C474.296 179.621 489.862 174.051 495.759 166.145C489.938 165.605 484.487 163.053 480.343 158.927C478.396 156.872 476.915 154.421 476.002 151.74C470.554 132.305 490.969 119.757 498.184 130.777C498.75 131.621 499.175 132.552 499.441 133.533C499.808 135.055 499.862 136.637 499.6 138.181C499.337 139.726 498.764 141.201 497.914 142.517C494.921 146.769 488.934 145.691 487.258 145.661C486.839 150.183 485.581 155.424 495.819 156.801C509.589 158.658 520.395 142.367 516.204 128.651C515.456 126.196 513.45 123.71 512.881 121.584C519.257 121.793 528.238 125.716 540.96 121.584C546.513 119.746 551.671 116.882 556.166 113.139C557.836 112.101 559.119 110.544 559.818 108.707C541.858 103.137 526.891 98.3152 511.923 100.531C496.208 102.837 485.731 110.983 475.404 122.452C475.404 114.007 475.703 109.246 479.026 104.005C480.637 101.614 482.794 99.6421 485.319 98.2516C487.843 96.8611 490.663 96.0925 493.544 96.0093C489.622 78.4905 476.751 94.2424 478.577 86.7258C480.971 76.6637 478.936 76.2145 474.715 68.0989C501.656 68.3085 536.829 81.1257 556.406 100.142C559.669 103.316 562.393 105.892 565.177 108.497C567.751 111.192 570.325 114.037 573.439 117.481C592.267 137.246 604.81 172.613 604.81 199.475C596.727 195.193 596.308 193.157 586.22 195.462C578.677 197.199 594.542 184.442 577.061 180.489C576.955 183.371 576.164 186.187 574.753 188.703C573.342 191.218 571.352 193.361 568.948 194.953C563.68 198.248 558.92 198.427 550.479 198.427C562.034 188.185 570.265 177.764 572.69 162.072C575.025 147.098 570.325 131.975 564.907 113.977C563.078 114.703 561.519 115.98 560.447 117.631C556.665 122.086 553.76 127.217 551.886 132.754C547.635 145.451 551.467 154.465 551.616 160.844C549.521 160.275 547.036 158.239 544.582 157.46C530.902 153.148 514.648 163.839 516.294 177.644C517.581 187.886 522.82 186.628 527.34 186.299C527.34 184.502 526.322 178.573 530.573 175.638C532.293 174.427 534.338 173.762 536.442 173.73C538.546 173.698 540.61 174.3 542.367 175.458C553.412 182.915 540.72 203.099 521.413 197.499C518.744 196.553 516.306 195.053 514.258 193.097C510.185 188.908 507.689 183.437 507.194 177.614C499.112 183.454 493.424 198.846 477.29 195.792ZM372.789 101.729C378.699 95.612 385.31 90.2142 392.486 85.6477C389.053 86.2809 385.584 86.6911 382.098 86.8755C378.29 87.0855 374.472 87.0855 370.663 86.8755C364.714 86.1623 359.084 83.7971 354.409 80.0477C339.981 66.7813 347.494 53.0956 347.614 44.3811C341.364 48.8205 335.542 53.8334 330.222 59.3545C324.773 64.7171 319.841 70.5828 315.495 76.8733C324.205 76.6936 337.796 69.0572 351.206 83.3718C354.926 88.0507 357.278 93.6686 358.001 99.6029C358.197 103.414 358.197 107.232 358.001 111.043C357.819 114.537 357.429 118.017 356.834 121.464C361.361 114.283 366.716 107.659 372.789 101.729ZM438.076 63.3673C444.332 61.6603 442.895 63.9662 445.499 59.2047C448.104 54.4432 450.708 49.5319 453.522 44.7404C454.959 42.3147 456.066 40.3083 457.623 37.8826C460.57 33.2276 463.904 28.8298 467.591 24.736C468.97 23.4508 470.663 22.5521 472.5 22.1307C474.328 22.553 476.011 23.4519 477.379 24.736C481.066 28.8298 484.4 33.2276 487.347 37.8826C488.934 40.3083 490.012 42.3147 491.448 44.7404C494.292 49.5319 496.896 54.4432 499.501 59.2047C502.105 63.9662 500.638 61.6603 506.924 63.3673C509.918 64.2058 516.923 67.7395 519.706 68.0091C519.168 65.9727 487.527 15.3327 472.799 13.2963H472.171C457.443 15.3327 425.802 65.9727 425.294 68.0091C428.077 67.7395 435.082 64.2058 438.076 63.3673ZM455.288 60.8219C458.119 60.5579 460.922 60.057 463.669 59.3245C466.59 58.8225 469.539 58.5124 472.5 58.3962C475.451 58.5125 478.391 58.8226 481.301 59.3245C484.048 60.057 486.852 60.5579 489.682 60.8219L485.701 53.3052C479.235 41.8955 476.062 34.8879 472.979 33.4206V33.151C472.821 33.1224 472.658 33.1224 472.5 33.151C472.332 33.1226 472.16 33.1226 471.991 33.151V33.4206C468.998 34.8879 465.765 41.8955 459.299 53.3052L455.288 60.8219ZM472.5 163.3L467.172 170.607L472.5 182.106L477.798 170.607L472.5 163.3ZM467.711 195.792C470.704 179.621 455.108 174.051 449.241 166.145C455.061 165.6 460.51 163.049 464.657 158.927C466.594 156.864 468.073 154.415 468.998 151.74C474.416 132.305 454.031 119.757 446.786 130.777C446.232 131.628 445.808 132.557 445.529 133.533C445.169 135.056 445.118 136.636 445.381 138.18C445.643 139.723 446.212 141.198 447.056 142.517C450.049 146.769 456.036 145.691 457.742 145.661C458.132 150.183 459.389 155.424 449.181 156.801C435.411 158.658 424.575 142.367 428.796 128.651C429.544 126.196 431.55 123.71 432.089 121.584C425.743 121.793 416.762 125.716 404.01 121.584C398.467 119.746 393.319 116.881 388.834 113.139C387.162 112.096 385.871 110.542 385.152 108.707C403.112 103.137 418.079 98.3152 433.047 100.531C448.732 102.837 459.239 110.983 469.566 122.452C469.566 114.007 469.267 109.246 465.914 104.005C464.317 101.608 462.167 99.6302 459.646 98.2386C457.124 96.8471 454.305 96.0825 451.426 96.0093C455.348 78.4905 468.219 94.2424 466.393 86.7258C463.999 76.6637 466.034 76.2145 470.225 68.0989C443.284 68.3085 408.141 81.1257 388.534 100.142C385.301 103.316 382.547 105.892 379.793 108.497C377.249 111.192 374.675 114.037 371.532 117.481C352.703 137.246 340.19 172.613 340.19 199.475C348.243 195.193 348.692 193.157 358.75 195.462C366.293 197.199 350.458 184.442 367.939 180.489C368.04 183.369 368.825 186.184 370.231 188.7C371.636 191.215 373.622 193.359 376.022 194.953C381.29 198.248 386.05 198.427 394.521 198.427C382.937 188.185 374.705 177.764 372.28 162.072C369.975 147.098 374.645 131.975 380.063 113.977C381.902 114.687 383.465 115.967 384.523 117.631C388.304 122.092 391.218 127.221 393.114 132.754C397.365 145.451 393.503 154.465 393.354 160.844C395.479 160.275 397.964 158.239 400.418 157.46C414.068 153.148 430.352 163.839 428.706 177.644C427.419 187.886 422.18 186.628 417.63 186.299C417.63 184.502 418.678 178.573 414.427 175.638C413.102 174.81 411.626 174.255 410.084 174.003C408.543 173.751 406.967 173.808 405.447 174.17C404.486 174.478 403.571 174.911 402.723 175.458C391.647 182.915 404.34 203.099 423.677 197.499C426.351 196.535 428.79 195.014 430.831 193.037C434.915 188.855 437.413 183.38 437.896 177.554C445.799 183.454 451.546 198.846 467.711 195.792ZM453.941 10.122C466.113 6.96704 478.887 6.96704 491.059 10.122C501.686 12.8471 509.349 16.9798 514.558 26.1734C516.084 28.8686 517.821 31.5339 519.437 31.5339C519.973 30.3361 520.887 29.3474 522.039 28.7198C523.191 28.0922 524.517 27.8604 525.813 28.0601C527.713 27.9401 529.615 28.2471 531.381 28.9585C534.215 30.2217 536.693 32.166 538.595 34.6185C541.664 38.4845 543.592 43.131 544.163 48.0346C544.432 50.7897 543.744 51.5983 544.761 53.7544C546.348 53.1854 548.054 50.3106 549.192 48.9031C558.441 37.1939 572.301 39.1703 577.39 49.7715C580.742 56.7491 578.408 59.025 575.923 62.6786C574.374 61.2733 572.642 60.0846 570.774 59.1449C563.62 56.1502 558.501 63.7267 562.902 71.4829C569.068 82.2937 601.816 73.13 587.508 46.7169C568.41 11.1402 516.354 1.49734 480.433 0H472.799H472.38H464.717C428.796 1.49734 376.77 11.1402 357.672 46.7169C343.483 73.13 376.112 82.2937 382.248 71.4829C386.678 63.7267 381.53 56.2101 374.405 59.1449C372.533 60.0774 370.8 61.2668 369.257 62.6786C366.772 59.025 364.407 56.6892 367.76 49.7715C372.879 39.1703 386.708 37.1939 395.988 48.9031C397.095 50.3106 398.802 53.1854 400.388 53.7544C401.406 51.5983 400.747 50.7597 400.987 48.0346C401.554 43.1247 403.494 38.4745 406.585 34.6185C408.447 32.1828 410.885 30.2482 413.679 28.9884C415.455 28.2765 417.367 27.9696 419.277 28.09C420.573 27.8903 421.899 28.1221 423.051 28.7497C424.203 29.3773 425.117 30.366 425.653 31.5639C427.239 31.5639 428.976 28.8986 430.502 26.2034C435.621 17.0098 443.314 12.7573 453.941 10.1519V10.122ZM609.869 237.717C611.545 231.429 609.27 232.866 614 230.261C618.729 227.655 623.608 224.96 628.368 222.085C630.793 220.618 632.798 219.54 635.193 217.923C639.818 214.94 644.184 211.574 648.244 207.86C649.063 207.237 649.727 206.434 650.184 205.511C650.641 204.589 650.879 203.574 650.879 202.545C650.879 201.516 650.641 200.5 650.184 199.578C649.727 198.656 649.063 197.852 648.244 197.229C644.192 193.496 639.825 190.12 635.193 187.137C632.798 185.55 630.793 184.442 628.368 182.975C623.608 179.98 618.729 177.464 614 174.829C609.27 172.194 611.545 173.661 609.869 167.372C609.09 164.378 605.588 157.34 605.348 154.525C607.414 155.094 659.23 188.126 659.709 202.44C659.23 216.874 607.414 249.906 605.348 250.355C605.588 247.63 609.09 240.592 609.869 237.598V237.717ZM612.293 220.468C612.522 217.626 613.003 214.81 613.73 212.053C614.848 205.754 614.848 199.306 613.73 193.007C613.004 190.26 612.523 187.454 612.293 184.622L619.777 188.695C632.319 195.942 639.533 199.116 639.803 202.53C639.533 205.974 632.319 209.148 619.777 216.395L612.293 220.468ZM513.001 202.5C512.283 203.428 512.462 202.859 510.576 203.698C505.967 205.704 505.547 207.381 502.464 209.448C500.249 208.939 494.621 205.674 490.491 204.057C488.814 203.398 487.018 203.159 485.671 202.5C487.018 201.871 488.814 201.602 490.491 200.943C494.621 199.356 500.249 196.091 502.464 195.582C505.458 197.649 505.967 199.326 510.576 201.332C512.462 202.051 512.283 201.422 513.001 202.41V202.5ZM572.211 303.241C566.286 309.342 559.677 314.738 552.514 319.322C555.948 318.69 559.417 318.27 562.902 318.065C566.711 317.869 570.527 317.869 574.337 318.065C580.269 318.787 585.885 321.14 590.561 324.862C604.989 338.159 597.476 351.815 597.356 360.529C598.823 360.14 606.875 353.282 
614.778 345.556C620.227 340.201 625.149 334.335 629.476 328.037C620.765 328.246 607.174 335.853 593.764 321.538C589.994 316.889 587.599 311.277 586.849 305.337C586.638 301.527 586.638 297.708 586.849 293.898C587.001 290.411 587.391 286.939 588.017 283.506C583.503 290.656 578.202 297.275 572.211 303.241ZM477.29 209.178C474.296 225.349 489.862 230.919 495.759 238.825C489.944 239.367 484.497 241.906 480.343 246.013C478.395 248.079 476.915 250.54 476.002 253.23C470.554 272.665 490.969 285.213 498.184 274.193C498.745 273.346 499.169 272.416 499.441 271.437C499.805 269.914 499.857 268.333 499.595 266.789C499.332 265.246 498.761 263.771 497.914 262.453C494.921 258.231 488.934 259.309 487.258 259.309C486.839 254.787 485.581 249.546 495.819 248.199C509.589 246.342 520.395 262.603 516.204 276.319C515.456 278.774 513.45 281.29 512.881 283.386C519.257 283.206 528.238 279.283 540.96 283.386C546.514 285.235 551.672 288.109 556.166 291.861C557.831 292.891 559.113 294.437 559.818 296.263C541.858 301.833 526.891 306.655 511.923 304.469C496.208 302.163 485.731 294.017 475.404 282.518C475.404 290.993 475.703 295.754 479.026 300.995C480.637 303.386 482.794 305.358 485.319 306.748C487.843 308.139 490.663 308.908 493.544 308.991C489.622 326.51 476.751 310.758 478.577 318.274C480.971 328.336 478.936 328.785 474.715 336.901C501.656 336.661 536.829 323.844 556.406 304.828C559.669 301.684 562.393 299.078 565.177 296.503C567.751 293.778 570.325 290.933 573.439 287.519C592.267 267.784 604.81 232.387 604.81 205.555C596.727 209.837 596.308 211.873 586.22 209.537C578.677 207.831 594.542 220.558 577.061 224.511C576.965 221.63 576.178 218.815 574.766 216.303C573.354 213.791 571.359 211.655 568.948 210.077C563.68 206.782 558.92 206.573 550.479 206.573C562.034 216.815 570.265 227.266 572.69 242.928C575.025 257.901 570.325 273.025 564.907 291.023C563.074 290.319 561.512 289.05 560.447 287.399C556.687 282.984 553.783 277.906 551.886 272.426C547.635 259.698 551.467 250.684 551.616 244.336C549.521 244.905 547.036 246.911 544.582 247.69C530.902 252.002 514.648 241.311 516.294 227.535C517.581 217.294 522.82 218.551 527.34 218.881C527.34 220.648 526.322 226.577 530.573 229.512C531.893 230.35 533.369 230.912 534.913 231.165C536.456 231.417 538.035 231.354 539.553 230.979C540.528 230.684 541.455 230.251 542.307 229.692C553.353 222.265 540.66 202.081 521.353 207.651C518.69 208.609 516.254 210.107 514.199 212.053C510.119 216.249 507.622 221.732 507.134 227.565C499.112 221.456 493.424 206.004 477.29 209.058V209.178ZM335.042 237.598C333.365 231.309 335.67 232.746 330.941 230.141C326.211 227.535 321.302 224.84 316.542 221.965C314.118 220.498 312.142 219.42 309.747 217.803C305.113 214.821 300.737 211.455 296.666 207.741C295.857 207.111 295.203 206.304 294.753 205.383C294.304 204.462 294.07 203.45 294.07 202.425C294.07 201.4 294.304 200.388 294.753 199.467C295.203 198.546 295.857 197.74 296.666 197.11C300.729 193.376 305.105 190 309.747 187.018C312.142 185.43 314.118 184.322 316.542 182.855C321.302 179.86 326.211 177.345 330.941 174.709C335.67 172.074 333.365 173.541 335.042 167.253C335.85 164.258 339.322 157.22 339.562 154.405C337.496 154.974 285.68 188.006 285.231 202.32C285.68 216.755 337.496 249.786 339.562 250.235C339.382 247.63 335.91 240.592 335.042 237.598ZM332.647 220.348C332.404 217.508 331.924 214.693 331.21 211.933C330.053 205.637 330.053 199.183 331.21 192.887C331.923 190.137 332.404 187.332 332.647 184.502L325.133 188.575C312.591 195.822 305.407 198.996 305.107 202.41C305.407 205.854 312.591 209.028 325.133 216.276L332.647 220.348ZM431.909 202.38C432.628 203.309 432.478 202.74 434.364 203.578C438.944 205.585 439.393 207.262 442.476 209.328C444.661 208.819 450.319 205.555 454.45 203.937C456.156 203.279 457.922 203.039 459.269 202.38C457.922 201.751 456.276 201.482 454.45 200.823C450.349 199.236 444.691 195.972 442.476 195.462C439.482 197.529 438.944 199.206 434.364 201.212C432.538 202.051 432.687 201.422 431.969 202.41L431.909 202.38ZM372.789 303.241C378.699 309.358 385.31 314.756 392.486 319.322C389.052 318.692 385.583 318.272 382.098 318.065C378.289 317.869 374.473 317.869 370.663 318.065C364.721 318.781 359.094 321.135 354.409 324.862C339.981 338.159 347.494 351.815 347.614 360.529C341.36 356.095 335.537 351.082 330.222 345.556C324.757 340.207 319.825 334.34 315.495 328.037C324.205 328.246 337.796 335.853 351.206 321.538C354.986 316.891 357.391 311.28 358.151 305.337C358.347 301.526 358.347 297.708 358.151 293.898C357.969 290.413 357.579 286.943 356.984 283.506C361.472 290.673 366.776 297.295 372.789 303.241ZM438.076 341.573C444.332 343.31 442.895 341.004 445.499 345.765C448.104 350.527 450.708 355.438 453.522 360.2C454.959 362.655 456.066 364.662 457.623 367.057C460.562 371.718 463.897 376.116 467.591 380.204C468.968 381.498 470.661 382.407 472.5 382.839C474.33 382.407 476.014 381.498 477.379 380.204C481.073 376.116 484.408 371.718 487.347 367.057C488.934 364.662 490.012 362.655 491.448 360.2C494.292 355.438 496.896 350.527 499.501 345.765C502.105 341.004 500.638 343.31 506.924 341.573C509.918 340.764 516.923 337.201 519.706 336.961C519.168 338.997 487.527 389.607 472.799 391.644H472.171C457.443 389.607 425.802 338.997 425.294 336.961C428.077 337.081 435.082 340.644 438.076 341.453V341.573ZM455.288 344.148C458.119 344.412 460.922 344.913 463.669 345.646C466.592 346.133 469.54 346.443 472.5 346.574C475.45 346.443 478.389 346.133 481.301 345.646C484.048 344.913 486.852 344.412 489.682 344.148L485.701 351.665C479.235 363.075 476.062 370.082 472.979 371.549V371.819H472.5H471.991V371.549C468.998 370.082 465.765 363.075 459.299 351.665L455.288 344.148ZM472.5 241.67L467.172 234.363L472.5 222.894L477.798 234.363L472.5 241.67ZM467.711 209.178C470.704 225.349 455.108 230.919 449.241 238.825C455.054 239.372 460.5 241.911 464.657 246.013C466.595 248.087 468.073 250.546 468.998 253.23C474.416 272.665 454.031 285.213 446.786 274.193C446.237 273.339 445.814 272.411 445.529 271.437C445.172 269.914 445.123 268.334 445.386 266.791C445.648 265.248 446.216 263.773 447.056 262.453C450.049 258.231 456.036 259.309 457.742 259.309C458.132 254.787 459.389 249.546 449.181 248.199C435.411 246.342 424.575 262.603 428.796 276.319C429.544 278.774 431.55 281.29 432.089 283.386C425.743 283.206 416.762 279.283 404.01 283.386C398.465 285.235 393.317 288.11 388.834 291.861C387.158 292.886 385.865 294.433 385.152 296.263C403.112 301.833 418.079 306.655 433.047 304.469C448.732 302.163 459.239 294.017 469.566 282.518C469.566 290.993 469.267 295.754 465.914 300.995C464.317 303.392 462.167 305.37 459.646 306.761C457.124 308.153 454.305 308.917 451.426 308.991C455.348 326.51 468.219 310.758 466.393 318.274C463.999 328.336 466.034 328.785 470.225 336.901C443.284 336.661 408.141 323.844 388.534 304.828C385.301 301.684 382.547 299.078 379.793 296.503C377.249 293.778 374.675 290.933 371.532 287.519C352.703 267.784 340.19 232.387 340.19 205.555C348.243 209.837 348.692 211.873 358.75 209.537C366.293 207.831 350.458 220.558 367.939 224.511C368.032 221.633 368.815 218.82 370.221 216.308C371.628 213.796 373.617 211.659 376.022 210.077C381.29 206.782 386.05 206.573 394.521 206.573C382.937 216.815 374.705 227.266 372.28 242.928C369.975 257.901 374.645 273.025 380.063 291.023C381.906 290.336 383.473 289.063 384.523 287.399C388.282 282.978 391.195 277.903 393.114 272.426C397.365 259.698 393.503 250.684 393.354 244.336C395.479 244.905 397.964 246.911 400.418 247.69C414.068 252.002 430.352 241.311 428.706 227.535C427.419 217.294 422.18 218.551 417.63 218.881C417.63 220.648 418.678 226.577 414.427 229.512C413.106 230.347 411.629 230.907 410.087 231.16C408.544 231.412 406.966 231.35 405.447 230.979C404.482 230.684 403.564 230.251 402.723 229.692C391.647 222.265 404.34 202.081 423.677 207.651C426.34 208.609 428.776 210.107 430.831 212.053C434.921 216.242 437.42 221.729 437.896 227.565C445.799 221.456 451.546 206.004 467.711 209.058V209.178ZM453.941 394.848C466.107 398.043 478.893 398.043 491.059 394.848C501.686 392.123 509.349 387.99 514.558 378.797C516.084 376.101 517.821 373.466 519.437 373.436C519.973 374.634 520.887 375.623 522.039 376.25C523.191 376.878 524.517 377.11 525.813 376.91C527.711 377.054 529.617 376.757 531.381 376.041C534.167 374.754 536.608 372.825 538.505 370.411C541.575 366.535 543.503 361.878 544.073 356.965C544.342 354.21 543.654 353.432 544.672 351.246C546.258 351.815 547.964 354.689 549.102 356.097C558.352 367.806 572.211 365.86 577.3 355.258C580.653 348.281 578.318 345.975 575.833 342.321C574.294 343.746 572.56 344.946 570.685 345.885C563.53 348.88 558.411 341.273 562.812 333.547C568.978 322.736 601.726 331.9 587.418 358.313C568.32 393.86 516.264 403.533 480.343 405H472.71H472.29H464.627C428.706 403.533 376.68 393.86 357.582 358.313C343.393 331.9 376.022 322.736 382.158 333.547C386.589 341.273 381.44 348.79 374.315 345.885C372.426 344.907 370.691 343.656 369.167 342.172C366.682 345.825 364.317 348.161 367.67 355.109C372.789 365.71 386.618 367.656 395.898 355.947C397.006 354.54 398.712 351.665 400.298 351.096C401.316 353.282 400.658 354.091 400.897 356.816C401.465 361.734 403.405 366.394 406.495 370.262C408.373 372.681 410.807 374.612 413.589 375.892C415.364 376.607 417.279 376.904 419.187 376.76C420.483 376.96 421.809 376.728 422.961 376.1C424.113 375.473 425.027 374.484 425.563 373.286C427.15 373.286 428.886 375.952 430.412 378.647C435.621 387.811 443.314 391.943 453.941 394.668V394.848ZM282.028 221.456C279.075 209.052 279.075 196.127 282.028 183.723C284.692 173.092 288.733 165.366 297.893 160.065C300.587 158.538 303.221 156.771 303.221 155.184C302.019 154.659 301.021 153.754 300.383 152.607C299.745 151.46 299.501 150.135 299.689 148.835C299.536 146.929 299.823 145.013 300.527 143.235C301.774 140.432 303.685 137.975 306.095 136.078C309.925 132.949 314.566 130.976 319.476 130.388C322.23 130.089 323.038 130.748 325.163 129.729C324.595 128.142 321.721 126.465 320.284 125.357C308.52 116.193 310.346 102.328 320.913 97.1173C327.857 93.7034 330.162 96.0393 333.844 
98.4949C332.433 100.044 331.254 101.789 330.342 103.676C327.349 110.833 335.042 115.924 342.735 111.432C353.481 105.173 344.052 72.5011 317.77 87.0253C282.387 106.431 273.167 158.568 272 194.534V210.406C273.167 246.342 282.387 298.479 317.77 317.885C344.052 332.289 353.481 299.737 342.735 293.478C335.042 289.016 327.468 294.077 330.342 301.264C331.261 303.147 332.44 304.891 333.844 306.445C330.162 308.901 327.857 311.237 320.913 307.793C310.346 302.612 308.52 288.747 320.284 279.583C321.721 278.475 324.595 276.798 325.163 275.211C323.038 274.163 322.17 274.821 319.476 274.552C314.573 273.938 309.939 271.967 306.095 268.862C303.692 266.958 301.782 264.503 300.527 261.705C299.825 259.926 299.538 258.011 299.689 256.105C299.501 254.805 299.745 253.48 300.383 252.333C301.021 251.186 302.019 250.281 303.221 249.756C303.221 248.169 300.587 246.402 297.893 244.845C288.733 239.664 284.692 231.938 282.028 221.277V221.456ZM662.942 183.454C665.895 195.858 665.895 208.783 662.942 221.187C660.308 231.848 656.237 239.574 647.077 244.845C644.413 246.402 641.779 248.169 641.779 249.756C642.981 250.281 643.979 251.186 644.617 252.333C645.255 253.48 645.499 254.805 645.311 256.105C645.446 258.01 645.16 259.922 644.473 261.705C643.218 264.503 641.308 266.958 638.905 268.862C635.05 271.95 630.421 273.918 625.524 274.552C622.77 274.821 621.962 274.163 619.807 275.211C620.376 276.798 623.279 278.475 624.686 279.583C636.48 288.747 634.624 302.612 624.087 307.793C617.113 311.237 614.808 308.901 611.126 306.445C612.54 304.899 613.72 303.153 614.628 301.264C617.622 294.077 609.928 289.016 602.235 293.478C591.489 299.737 600.918 332.409 627.201 317.885C662.613 298.479 671.803 246.342 673 210.406V194.265C671.803 158.329 662.613 106.161 627.201 86.7558C600.918 72.3514 591.489 104.903 602.235 111.162C609.928 115.654 617.502 110.563 614.628 103.406C613.726 101.514 612.546 99.7673 611.126 98.2253C614.808 95.7697 617.113 93.4339 624.087 96.8478C634.624 102.059 636.48 115.924 624.686 125.088C623.279 126.196 620.376 127.873 619.807 129.46C621.962 130.478 622.8 129.819 625.524 130.119C630.43 130.719 635.068 132.691 638.905 135.809C641.315 137.706 643.226 140.163 644.473 142.966C645.163 144.747 645.449 146.66 645.311 148.566C645.499 149.865 645.255 151.19 644.617 152.337C643.979 153.484 642.981 154.39 641.779 154.915C641.779 156.502 644.413 158.269 647.077 159.796C656.237 165.186 660.308 172.913 662.942 183.454Z" fill="#EEEEEE"/>
<path d="M190.833 479.434L191.073 479.338C207.872 465.015 228.197 459.455 249.307 455.546C258.139 453.944 261.762 455.546 258.796 465.335C254.324 480.075 250.91 495.152 246.213 509.828C241.658 523.683 234.094 536.36 224.061 546.95C215.421 556.291 205.596 564.99 200.546 577.087C195.738 588.638 188.028 594.07 175.06 593.862C154.559 593.525 143.274 608.826 129.858 621.002C134.859 625.36 138.498 616.981 142.858 622.316C147.217 627.651 153.822 626.93 159.881 628.404C177.513 632.698 194.648 626.914 211.975 627.379C218.932 627.555 224.141 625.777 230.296 622.572C255.59 609.899 276.012 590.93 297.907 573.69C319.354 556.803 340.144 539.836 353.897 515.772C358.626 507.52 364.284 506.158 368.884 515.387C371.625 520.882 375.937 524.215 380.105 528.012C393.452 539.996 406.761 552.029 420.033 564.109C422.71 566.544 425.435 569.396 424.025 573.21C422.71 576.766 418.911 575.629 416.01 575.997C397.176 578.352 383.503 589.087 380.217 603.939C383.936 607.816 388.135 609.595 393.377 607.144C410.079 607.784 426.541 603.939 443.34 604.981C451.963 605.493 461.052 603.763 465.78 594.663C470.781 585.05 475.398 575.26 480.207 565.551C484.15 557.636 484.198 550.443 480.623 541.663C474.468 526.474 465.732 512.135 462.414 496.529C485.721 490.265 508.001 502.265 530.618 496.69C531.057 496.656 531.498 496.731 531.901 496.907C532.305 497.083 532.659 497.356 532.932 497.7C533.206 498.045 533.391 498.452 533.471 498.884C533.551 499.317 533.524 499.763 533.391 500.182C528.102 526.698 534.032 552.75 536.341 578.977C536.854 584.761 532.285 587.517 526.867 587.917C521.129 588.318 515.342 588.462 509.588 588.382C496.765 588.206 487.035 595.255 477.177 601.792C473.346 604.34 469.163 610.027 476.776 611.918C494.408 616.276 511.832 623.502 530.634 620.458C543.794 618.343 557.018 617.942 570.274 617.253C574.955 616.997 581.11 616.869 584.107 611.646C586.271 607.865 588.58 604.244 591 600.735V254.665C586.48 254.201 581.927 253.816 577.327 253.544C544.932 251.541 513.579 262.163 481.729 266.986C457.093 270.719 433.434 270.046 410.272 256.556C369.606 232.844 327.128 233.709 285.853 255.787C265.016 266.906 245.925 281.005 223.885 290.025C205.115 297.7 186.825 306.399 172.239 321.155C169.177 324.248 166.276 325.706 162.477 321.155C153.613 310.549 146.336 315.964 140.277 324.504C129.217 340.125 129.056 340.638 114.037 331.073C107.161 326.699 103.458 328.99 100.124 334.63C96.7899 340.269 94.642 346.053 95.3152 352.254C95.7006 355.306 95.0151 358.398 93.3757 361.002C89.4806 363.501 84.8482 366.161 80.2478 368.676C72.4737 372.938 53.2708 381.493 51.6839 390.706C51.2351 393.301 52.5655 395.16 52.293 398.06C51.9724 401.36 50.4977 402.145 47.9812 404.132C42.932 408.137 39.9666 407.881 34.9655 411.021C30.9742 413.553 28.5538 416.373 25.9251 417.654C17.0449 421.692 10.6333 423.775 5.23144 426.226C-0.683306 428.918 -0.939767 432.298 1.30431 436.512C4.18955 441.927 13.775 445.997 12.5247 447.423C11.6177 448.235 10.8394 449.181 10.2165 450.227C9.60479 451.393 9.42321 452.737 9.70358 454.024C11.8194 460.128 22.0781 463.637 28.1531 464.854C29.0946 465.052 30.0475 465.191 31.0063 465.271C24.3863 468.331 22.062 468.475 22.1742 472.753C22.2544 475.429 22.8314 475.06 25.7808 475.829C27.0631 476.166 28.105 477.592 29.8041 478.665C36.889 483.135 57.5345 481.421 65.6132 483.92C71.1432 485.619 83.2452 492.011 85.4573 497.25C86.2912 496.464 86.9187 495.485 87.2846 494.399C88.3067 495.926 89.0151 497.642 89.3684 499.445C89.6248 499.125 93.552 491.739 94.9625 493.662C96.5654 495.921 96.854 496.081 96.9501 498.853C100.669 497.747 103.282 496.962 105.301 493.421C105.926 492.316 106.359 491.483 106.359 491.483C107.198 493.667 108.506 495.641 110.19 497.266C110.19 497.266 109.741 494.783 110.863 494.062C111.926 493.333 113.167 492.906 114.454 492.828C115.736 492.828 122.164 492.62 123.046 492.716C123.927 492.812 127.405 493.549 128.96 493.678C131.962 494.055 134.943 494.59 137.889 495.28C140.263 495.841 142.464 496.974 144.3 498.58C146.689 500.631 149.59 503.691 150.856 504.845C152.122 505.998 152.459 506.88 153.533 507.44C154.607 508.001 177.833 486.82 189.47 470.766C189.999 473.971 190.464 476.855 190.801 479.354" fill="#EFEFEF"/>
</svg>
