<svg width="211" height="327" viewBox="0 0 211 327" fill="none" xmlns="http://www.w3.org/2000/svg">
<path d="M248.878 49.5797C245.991 46.6063 242.769 43.9763 239.279 41.7421C240.951 42.0518 242.642 42.2516 244.341 42.3405C246.197 42.4428 248.058 42.4428 249.914 42.3405C252.808 41.9903 255.547 40.8377 257.821 39.0128C264.853 32.5472 261.192 25.8772 261.133 21.63C264.188 23.7877 267.031 26.2313 269.624 28.9276C272.273 31.5439 274.671 34.4025 276.787 37.4658C272.542 37.3782 265.918 33.6564 259.383 40.6329C257.55 42.9022 256.384 45.6356 256.012 48.5289C255.91 50.3859 255.91 52.2472 256.012 54.1042C256.087 55.8082 256.277 57.5052 256.581 59.1833C254.386 55.6957 251.802 52.469 248.878 49.5651V49.5797ZM202.616 95.4231C201.157 87.5417 208.744 84.827 211.618 80.9739C208.781 80.7108 206.124 79.4671 204.104 77.4565C203.156 76.4547 202.434 75.2599 201.989 73.9536C199.334 64.4814 209.284 58.366 212.8 63.737C213.076 64.1482 213.283 64.6017 213.412 65.0798C213.591 65.822 213.618 66.5928 213.49 67.3455C213.362 68.0982 213.082 68.817 212.668 69.4583C211.209 71.5308 208.292 71.0054 207.475 70.9908C207.27 73.1947 206.658 75.7488 211.647 76.4202C218.358 77.3251 223.625 69.3853 221.582 62.7008C221.217 61.504 220.24 60.2926 219.963 59.2563C223.07 59.3585 227.447 61.2704 233.647 59.2563C236.354 58.3608 238.868 56.9646 241.059 55.1405C241.872 54.6347 242.497 53.8759 242.838 52.9804C234.085 50.2657 226.79 47.9159 219.496 48.9959C211.837 50.1197 206.731 54.0896 201.697 59.6796C201.697 55.5637 201.843 53.2431 203.463 50.689C204.248 49.5238 205.299 48.5626 206.53 47.8849C207.76 47.2072 209.134 46.8326 210.538 46.7921C208.627 38.2539 202.354 45.9309 203.244 42.2675C204.411 37.3636 203.419 37.1446 201.362 33.1894C214.492 33.2915 231.634 39.5382 241.175 48.8062C242.766 50.3533 244.093 51.6085 245.45 52.8782C246.705 54.1918 247.959 55.5783 249.477 57.2568C258.653 66.8896 264.766 84.1265 264.766 97.2183C260.827 95.1312 260.623 94.1387 255.706 95.2625C252.03 96.1091 259.762 89.8915 251.242 87.965C251.19 89.3698 250.805 90.742 250.117 91.968C249.429 93.1939 248.46 94.2383 247.288 95.0144C244.72 96.6199 242.401 96.7075 238.287 96.7075C243.918 91.7159 247.93 86.6368 249.112 78.989C250.25 71.6914 247.959 64.3208 245.319 55.5491C244.427 55.9028 243.667 56.5251 243.145 57.3298C241.301 59.5011 239.886 62.002 238.972 64.7003C236.901 70.8887 238.768 75.2818 238.841 78.3905C237.82 78.1132 236.609 77.1208 235.413 76.7413C228.745 74.6396 220.824 79.8501 221.626 86.5784C222.253 91.57 224.806 90.957 227.009 90.7964C227.009 89.9207 226.513 87.0309 228.585 85.6006C229.424 85.0103 230.42 84.6863 231.446 84.6706C232.471 84.655 233.477 84.9485 234.333 85.513C239.716 89.1472 233.531 98.9843 224.121 96.255C222.82 95.7941 221.632 95.0629 220.634 94.1095C218.649 92.0681 217.432 89.4016 217.191 86.5638C213.252 89.4099 210.48 96.9118 202.616 95.4231ZM151.686 49.5797C154.566 46.5984 157.789 43.9677 161.286 41.7421C159.613 42.0507 157.922 42.2506 156.223 42.3405C154.367 42.4428 152.506 42.4428 150.65 42.3405C147.751 41.9929 145.007 40.8402 142.728 39.0128C135.696 32.5472 139.358 25.8772 139.416 21.63C136.37 23.7937 133.533 26.2368 130.94 28.9276C128.284 31.5412 125.881 34.3999 123.762 37.4658C128.008 37.3782 134.631 33.6564 141.167 40.6329C142.98 42.9133 144.126 45.6513 144.479 48.5435C144.574 50.4007 144.574 52.2616 144.479 54.1188C144.39 55.8217 144.2 57.5177 143.91 59.1979C146.116 55.6981 148.726 52.4699 151.686 49.5797ZM183.505 30.8833C186.554 30.0514 185.854 31.1752 187.123 28.8546C188.392 26.534 189.661 24.1404 191.033 21.8051C191.733 20.6229 192.273 19.6451 193.031 18.4629C194.468 16.1941 196.093 14.0508 197.89 12.0556C198.562 11.4292 199.387 10.9912 200.282 10.7858C201.173 10.9917 201.993 11.4298 202.66 12.0556C204.457 14.0508 206.082 16.1941 207.518 18.4629C208.292 19.6451 208.817 20.6229 209.517 21.8051C210.903 24.1404 212.172 26.534 213.441 28.8546C214.711 31.1752 213.996 30.0514 217.06 30.8833C218.518 31.292 221.932 33.0142 223.289 33.1456C223.027 32.1531 207.606 7.4727 200.428 6.48023H200.122C192.944 7.4727 177.523 32.1531 177.275 33.1456C178.632 33.0142 182.046 31.292 183.505 30.8833ZM191.893 29.6427C193.273 29.5141 194.639 29.27 195.978 28.913C197.402 28.6683 198.839 28.5172 200.282 28.4605C201.72 28.5172 203.153 28.6684 204.571 28.913C205.91 29.27 207.277 29.5141 208.656 29.6427L206.716 25.9794C203.565 20.4186 202.018 17.0033 200.516 16.2882V16.1568C200.438 16.1429 200.359 16.1429 200.282 16.1568C200.2 16.1429 200.116 16.1429 200.034 16.1568V16.2882C198.575 17.0033 197 20.4186 193.848 25.9794L191.893 29.6427ZM200.282 79.5874L197.685 83.1486L200.282 88.7531L202.864 83.1486L200.282 79.5874ZM197.948 95.4231C199.407 87.5417 191.806 84.827 188.946 80.9739C191.783 80.7085 194.439 79.465 196.46 77.4565C197.404 76.4509 198.125 75.2573 198.575 73.9536C201.216 64.4814 191.281 58.366 187.75 63.737C187.48 64.1514 187.273 64.6041 187.137 65.0798C186.962 65.8222 186.937 66.5925 187.065 67.3446C187.193 68.0968 187.47 68.8156 187.881 69.4583C189.34 71.5308 192.258 71.0054 193.09 70.9908C193.279 73.1947 193.892 75.7488 188.917 76.4202C182.206 77.3251 176.925 69.3853 178.982 62.7008C179.347 61.504 180.324 60.2926 180.587 59.2563C177.494 59.3585 173.117 61.2704 166.902 59.2563C164.201 58.3604 161.691 56.9642 159.506 55.1405C158.691 54.6323 158.062 53.8747 157.711 52.9804C166.465 50.2657 173.759 47.9159 181.054 48.9959C188.698 50.1197 193.819 54.0896 198.852 59.6796C198.852 55.5637 198.707 53.2431 197.073 50.689C196.294 49.5207 195.246 48.5568 194.017 47.8786C192.788 47.2004 191.414 46.8277 190.011 46.7921C191.923 38.2539 198.196 45.9309 197.306 42.2675C196.139 37.3636 197.131 37.1446 199.173 33.1894C186.043 33.2915 168.916 39.5382 159.36 48.8062C157.784 50.3533 156.442 51.6085 155.1 52.8782C153.86 54.1918 152.605 55.5783 151.073 57.2568C141.897 66.8896 135.798 84.1265 135.798 97.2183C139.723 95.1312 139.942 94.1387 144.844 95.2625C148.52 96.1091 140.802 89.8915 149.322 87.965C149.371 89.3687 149.754 90.7406 150.439 91.9666C151.124 93.1927 152.092 94.2375 153.262 95.0144C155.829 96.6199 158.149 96.7075 162.278 96.7075C156.632 91.7159 152.62 86.6368 151.438 78.989C150.315 71.6914 152.59 64.3208 155.231 55.5491C156.127 55.895 156.889 56.519 157.405 57.3298C159.248 59.5039 160.668 62.0037 161.592 64.7003C163.664 70.8887 161.782 75.2818 161.709 78.3905C162.744 78.1132 163.955 77.1208 165.152 76.7413C171.804 74.6396 179.741 79.8501 178.938 86.5784C178.311 91.57 175.758 90.957 173.54 90.7964C173.54 89.9207 174.051 87.0309 171.979 85.6006C171.333 85.1973 170.614 84.9265 169.863 84.8037C169.111 84.681 168.343 84.7087 167.603 84.8854C167.134 85.0352 166.688 85.2463 166.275 85.513C160.877 89.1472 167.063 98.9843 176.487 96.255C177.79 95.7855 178.979 95.0442 179.974 94.0803C181.964 92.0424 183.182 89.374 183.417 86.5346C187.269 89.4099 190.07 96.9118 197.948 95.4231ZM191.237 4.93315C197.169 3.39553 203.395 3.39553 209.327 4.93315C214.506 6.26131 218.241 8.27544 220.78 12.7561C221.524 14.0697 222.37 15.3687 223.158 15.3687C223.419 14.7849 223.864 14.303 224.426 13.9972C224.987 13.6913 225.633 13.5783 226.265 13.6757C227.191 13.6172 228.118 13.7668 228.979 14.1135C230.36 14.7291 231.568 15.6767 232.495 16.872C233.99 18.7562 234.93 21.0208 235.208 23.4106C235.34 24.7534 235.004 25.1474 235.5 26.1983C236.273 25.921 237.105 24.5199 237.659 23.8339C242.167 18.1272 248.922 19.0905 251.402 24.2571C253.036 27.6578 251.898 28.767 250.687 30.5476C249.933 29.8628 249.088 29.2834 248.178 28.8254C244.691 27.3659 242.197 31.0585 244.341 34.8386C247.347 40.1075 263.307 35.6413 256.333 22.7684C247.026 5.42938 221.655 0.729758 204.148 0H200.428H200.224H196.489C178.982 0.729758 153.626 5.42938 144.318 22.7684C137.403 35.6413 153.305 40.1075 156.296 34.8386C158.455 31.0585 155.946 27.3951 152.474 28.8254C151.561 29.2799 150.717 29.8596 149.964 30.5476C148.753 28.767 147.601 27.6286 149.235 24.2571C151.73 19.0905 158.47 18.1272 162.992 23.8339C163.532 24.5199 164.364 25.921 165.137 26.1983C165.633 25.1474 165.312 24.7388 165.429 23.4106C165.705 21.0177 166.651 18.7513 168.157 16.872C169.064 15.6849 170.253 14.742 171.615 14.1281C172.48 13.7811 173.412 13.6315 174.343 13.6902C174.975 13.5929 175.621 13.7059 176.182 14.0118C176.744 14.3176 177.189 14.7995 177.45 15.3833C178.223 15.3833 179.07 14.0843 179.814 12.7708C182.308 8.29005 186.058 6.21753 191.237 4.94776V4.93315ZM267.231 115.856C268.048 112.791 266.94 113.492 269.245 112.222C271.55 110.952 273.928 109.639 276.248 108.238C277.429 107.522 278.407 106.997 279.574 106.209C281.828 104.755 283.956 103.115 285.935 101.305C286.334 101.001 286.657 100.609 286.88 100.16C287.103 99.7107 287.219 99.2159 287.219 98.7143C287.219 98.2127 287.103 97.7179 286.88 97.2685C286.657 96.8191 286.334 96.4273 285.935 96.1237C283.96 94.3042 281.832 92.6586 279.574 91.2051C278.407 90.4315 277.429 89.8915 276.248 89.1764C273.928 87.7169 271.55 86.4909 269.245 85.2065C266.94 83.9221 268.048 84.6373 267.231 81.5723C266.852 80.1128 265.145 76.6829 265.029 75.311C266.035 75.5883 291.289 91.6867 291.522 98.6632C291.289 105.698 266.035 121.797 265.029 122.015C265.145 120.687 266.852 117.257 267.231 115.798V115.856ZM268.413 107.45C268.525 106.064 268.759 104.692 269.113 103.348C269.658 100.278 269.658 97.1359 269.113 94.0658C268.759 92.727 268.525 91.3594 268.413 89.9791L272.06 91.964C278.173 95.4961 281.689 97.0432 281.821 98.707C281.689 100.385 278.173 101.933 272.06 105.465L268.413 107.45ZM220.021 98.6924C219.671 99.1449 219.759 98.8675 218.839 99.2762C216.593 100.254 216.388 101.071 214.886 102.078C213.806 101.83 211.063 100.24 209.05 99.4514C208.233 99.1303 207.358 99.0135 206.701 98.6924C207.358 98.3859 208.233 98.2545 209.05 97.9335C211.063 97.1599 213.806 95.5691 214.886 95.3209C216.345 96.328 216.593 97.1453 218.839 98.1232C219.759 98.4735 219.671 98.167 220.021 98.6486V98.6924ZM248.878 147.79C245.991 150.764 242.769 153.394 239.279 155.628C240.952 155.32 242.643 155.115 244.341 155.015C246.198 154.92 248.058 154.92 249.914 155.015C252.805 155.367 255.542 156.514 257.821 158.328C264.853 164.808 261.192 171.464 261.133 175.711C261.848 175.521 265.773 172.179 269.624 168.413C272.28 165.804 274.679 162.945 276.787 159.875C272.542 159.977 265.918 163.685 259.383 156.708C257.545 154.442 256.378 151.707 256.012 148.812C255.91 146.955 255.91 145.094 256.012 143.237C256.087 141.538 256.277 139.846 256.581 138.172C254.382 141.657 251.798 144.883 248.878 147.79ZM202.616 101.947C201.157 109.829 208.744 112.543 211.618 116.396C208.784 116.66 206.129 117.898 204.104 119.899C203.155 120.906 202.434 122.106 201.989 123.417C199.334 132.889 209.284 139.004 212.8 133.633C213.073 133.221 213.28 132.767 213.412 132.29C213.59 131.548 213.615 130.778 213.487 130.025C213.359 129.273 213.081 128.554 212.668 127.912C211.209 125.854 208.292 126.379 207.475 126.379C207.27 124.176 206.658 121.621 211.647 120.965C218.358 120.06 223.625 127.985 221.582 134.669C221.217 135.866 220.24 137.092 219.963 138.114C223.07 138.026 227.447 136.114 233.647 138.114C236.354 139.015 238.868 140.416 241.059 142.244C241.87 142.746 242.495 143.5 242.838 144.39C234.085 147.105 226.79 149.454 219.496 148.389C211.837 147.265 206.731 143.295 201.697 137.691C201.697 141.821 201.843 144.142 203.463 146.696C204.248 147.861 205.299 148.822 206.53 149.5C207.76 150.178 209.134 150.552 210.538 150.593C208.627 159.131 202.354 151.454 203.244 155.117C204.411 160.021 203.419 160.24 201.362 164.195C214.492 164.079 231.634 157.832 241.175 148.564C242.766 147.032 244.093 145.762 245.45 144.507C246.705 143.178 247.959 141.792 249.477 140.128C258.653 130.51 264.766 113.258 264.766 100.181C260.827 102.268 260.623 103.261 255.706 102.122C252.03 101.29 259.762 107.493 251.242 109.42C251.195 108.016 250.811 106.644 250.123 105.42C249.435 104.195 248.463 103.154 247.288 102.385C244.72 100.78 242.401 100.677 238.287 100.677C243.918 105.669 247.93 110.763 249.112 118.396C250.25 125.693 247.959 133.064 245.319 141.836C244.425 141.493 243.664 140.874 243.145 140.07C241.312 137.918 239.897 135.443 238.972 132.772C236.901 126.569 238.768 122.176 238.841 119.082C237.82 119.359 236.609 120.337 235.413 120.716C228.745 122.818 220.824 117.608 221.626 110.894C222.253 105.902 224.806 106.515 227.009 106.676C227.009 107.537 226.513 110.427 228.585 111.857C229.228 112.266 229.948 112.54 230.7 112.663C231.452 112.786 232.222 112.755 232.962 112.572C233.437 112.429 233.889 112.217 234.304 111.945C239.687 108.325 233.501 98.4881 224.092 101.203C222.794 101.67 221.607 102.4 220.605 103.348C218.617 105.393 217.4 108.066 217.162 110.909C213.252 107.931 210.48 100.4 202.616 101.889V101.947ZM133.289 115.798C132.472 112.733 133.595 113.434 131.29 112.164C128.985 110.894 126.593 109.58 124.273 108.179C123.091 107.464 122.128 106.939 120.961 106.151C118.703 104.697 116.57 103.057 114.586 101.247C114.192 100.939 113.873 100.547 113.654 100.098C113.435 99.6487 113.321 99.1556 113.321 98.6559C113.321 98.1563 113.435 97.6632 113.654 97.2143C113.873 96.7653 114.192 96.3723 114.586 96.0653C116.566 94.2459 118.699 92.6003 120.961 91.1467C122.128 90.3732 123.091 89.8332 124.273 89.118C126.593 87.6585 128.985 86.4325 131.29 85.1481C133.595 83.8637 132.472 84.5789 133.289 81.5139C133.683 80.0544 135.375 76.6245 135.492 75.2526C134.485 75.5299 109.232 91.6284 109.013 98.6048C109.232 105.64 134.485 121.738 135.492 121.957C135.404 120.687 133.712 117.257 133.289 115.798ZM132.122 107.391C132.004 106.007 131.769 104.635 131.422 103.29C130.858 100.221 130.858 97.0758 131.422 94.0074C131.769 92.6672 132.003 91.3002 132.122 89.9207L128.46 91.9057C122.347 95.4377 118.846 96.9848 118.7 98.6486C118.846 100.327 122.347 101.874 128.46 105.406L132.122 107.391ZM180.499 98.634C180.849 99.0865 180.777 98.8092 181.696 99.2178C183.928 100.196 184.147 101.013 185.649 102.02C186.714 101.772 189.472 100.181 191.485 99.393C192.316 99.0719 193.177 98.9551 193.834 98.634C193.177 98.3275 192.375 98.1962 191.485 97.8751C189.486 97.1015 186.729 95.5107 185.649 95.2625C184.19 96.2696 183.928 97.0869 181.696 98.0648C180.806 98.4735 180.879 98.167 180.529 98.6486L180.499 98.634ZM151.686 147.79C154.566 150.772 157.789 153.403 161.286 155.628C159.612 155.321 157.921 155.116 156.223 155.015C154.367 154.92 152.507 154.92 150.65 155.015C147.754 155.365 145.011 156.511 142.728 158.328C135.696 164.808 139.358 171.464 139.416 175.711C136.368 173.55 133.531 171.107 130.94 168.413C128.277 165.807 125.873 162.947 123.762 159.875C128.008 159.977 134.631 163.685 141.167 156.708C143.009 154.443 144.181 151.708 144.552 148.812C144.647 146.955 144.647 145.094 144.552 143.237C144.463 141.539 144.273 139.848 143.983 138.172C146.171 141.665 148.755 144.893 151.686 147.79ZM183.505 166.472C186.554 167.319 185.854 166.195 187.123 168.516C188.392 170.836 189.661 173.23 191.033 175.55C191.733 176.747 192.273 177.725 193.031 178.893C194.464 181.164 196.089 183.308 197.89 185.3C198.561 185.931 199.386 186.373 200.282 186.584C201.174 186.374 201.995 185.931 202.66 185.3C204.46 183.308 206.086 181.164 207.518 178.893C208.292 177.725 208.817 176.747 209.517 175.55C210.903 173.23 212.172 170.836 213.441 168.516C214.711 166.195 213.996 167.319 217.06 166.472C218.518 166.078 221.932 164.341 223.289 164.225C223.027 165.217 207.606 189.883 200.428 190.875H200.122C192.944 189.883 177.523 165.217 177.275 164.225C178.632 164.283 182.046 166.02 183.505 166.414V166.472ZM191.893 167.727C193.273 167.856 194.639 168.1 195.978 168.457C197.403 168.695 198.84 168.846 200.282 168.91C201.72 168.846 203.152 168.695 204.571 168.457C205.91 168.1 207.277 167.856 208.656 167.727L206.716 171.391C203.565 176.952 202.018 180.367 200.516 181.082V181.213H200.282H200.034V181.082C198.575 180.367 197 176.952 193.848 171.391L191.893 167.727ZM200.282 117.783L197.685 114.222L200.282 108.632L202.864 114.222L200.282 117.783ZM197.948 101.947C199.407 109.829 191.806 112.543 188.946 116.396C191.78 116.663 194.434 117.9 196.46 119.899C197.404 120.91 198.125 122.109 198.575 123.417C201.216 132.889 191.281 139.004 187.75 133.633C187.483 133.217 187.276 132.765 187.137 132.29C186.963 131.548 186.94 130.778 187.067 130.026C187.195 129.274 187.472 128.555 187.881 127.912C189.34 125.854 192.258 126.379 193.09 126.379C193.279 124.176 193.892 121.621 188.917 120.965C182.206 120.06 176.925 127.985 178.982 134.669C179.347 135.866 180.324 137.092 180.587 138.114C177.494 138.026 173.117 136.114 166.902 138.114C164.2 139.015 161.691 140.416 159.506 142.244C158.689 142.744 158.059 143.498 157.711 144.39C166.465 147.105 173.759 149.454 181.054 148.389C188.698 147.265 193.819 143.295 198.852 137.691C198.852 141.821 198.707 144.142 197.073 146.696C196.294 147.864 195.246 148.828 194.017 149.506C192.788 150.184 191.414 150.557 190.011 150.593C191.923 159.131 198.196 151.454 197.306 155.117C196.139 160.021 197.131 160.24 199.173 164.195C186.043 164.079 168.916 157.832 159.36 148.564C157.784 147.032 156.442 145.762 155.1 144.507C153.86 143.178 152.605 141.792 151.073 140.128C141.897 130.51 135.798 113.258 135.798 100.181C139.723 102.268 139.942 103.261 144.844 102.122C148.52 101.29 140.802 107.493 149.322 109.42C149.368 108.017 149.749 106.646 150.434 105.422C151.12 104.198 152.09 103.156 153.262 102.385C155.829 100.78 158.149 100.677 162.278 100.677C156.632 105.669 152.62 110.763 151.438 118.396C150.315 125.693 152.59 133.064 155.231 141.836C156.129 141.501 156.893 140.881 157.405 140.07C159.237 137.915 160.656 135.441 161.592 132.772C163.664 126.569 161.782 122.176 161.709 119.082C162.744 119.359 163.955 120.337 165.152 120.716C171.804 122.818 179.741 117.608 178.938 110.894C178.311 105.902 175.758 106.515 173.54 106.676C173.54 107.537 174.051 110.427 171.979 111.857C171.335 112.264 170.616 112.537 169.864 112.66C169.112 112.783 168.343 112.753 167.603 112.572C167.132 112.429 166.685 112.217 166.275 111.945C160.877 108.325 167.063 98.4881 176.487 101.203C177.785 101.67 178.972 102.4 179.974 103.348C181.967 105.39 183.185 108.064 183.417 110.909C187.269 107.931 190.07 100.4 197.948 101.889V101.947ZM191.237 192.437C197.167 193.994 203.398 193.994 209.327 192.437C214.506 191.109 218.241 189.095 220.78 184.614C221.524 183.301 222.37 182.016 223.158 182.002C223.419 182.585 223.864 183.067 224.426 183.373C224.987 183.679 225.633 183.792 226.265 183.695C227.19 183.765 228.119 183.62 228.979 183.271C230.337 182.644 231.527 181.704 232.451 180.527C233.947 178.638 234.887 176.369 235.165 173.974C235.296 172.631 234.96 172.252 235.456 171.187C236.23 171.464 237.061 172.865 237.616 173.551C242.124 179.258 248.878 178.309 251.359 173.142C252.992 169.742 251.855 168.618 250.644 166.837C249.893 167.532 249.048 168.116 248.134 168.574C244.648 170.033 242.153 166.326 244.297 162.561C247.303 157.292 263.263 161.758 256.29 174.631C246.982 191.955 221.611 196.67 204.104 197.385H200.384H200.18H196.445C178.938 196.67 153.582 191.955 144.275 174.631C137.359 161.758 153.262 157.292 156.252 162.561C158.411 166.326 155.902 169.99 152.43 168.574C151.509 168.098 150.663 167.488 149.921 166.764C148.71 168.545 147.557 169.683 149.191 173.069C151.686 178.236 158.426 179.185 162.949 173.478C163.488 172.792 164.32 171.391 165.093 171.114C165.589 172.179 165.268 172.573 165.385 173.901C165.662 176.298 166.607 178.569 168.113 180.454C169.029 181.634 170.215 182.575 171.571 183.198C172.436 183.547 173.369 183.692 174.299 183.622C174.931 183.719 175.577 183.606 176.139 183.3C176.7 182.994 177.145 182.512 177.406 181.929C178.18 181.929 179.026 183.228 179.77 184.541C182.308 189.007 186.058 191.021 191.237 192.35V192.437ZM107.452 107.931C106.012 101.886 106.012 95.5866 107.452 89.5412C108.75 84.36 110.72 80.5944 115.184 78.0111C116.497 77.2667 117.781 76.4056 117.781 75.6321C117.195 75.3764 116.709 74.935 116.398 74.376C116.086 73.8169 115.968 73.1711 116.059 72.5379C115.985 71.6088 116.125 70.6751 116.468 69.8086C117.075 68.4424 118.007 67.2451 119.181 66.3204C121.048 64.7954 123.31 63.8335 125.703 63.5473C127.045 63.4013 127.439 63.7224 128.475 63.2262C128.197 62.4526 126.797 61.6353 126.097 61.0953C120.363 56.6292 121.253 49.8716 126.403 47.3321C129.788 45.6682 130.911 46.8067 132.705 48.0035C132.018 48.7584 131.443 49.6089 130.999 50.5284C129.54 54.0167 133.289 56.4978 137.038 54.3085C142.276 51.2582 137.68 35.3349 124.871 42.4135C107.627 51.8712 103.133 77.2813 102.564 94.8101V102.546C103.133 120.06 107.627 145.47 124.871 154.928C137.68 161.948 142.276 146.083 137.038 143.032C133.289 140.858 129.598 143.324 130.999 146.827C131.447 147.745 132.021 148.595 132.705 149.352C130.911 150.549 129.788 151.687 126.403 150.009C121.253 147.484 120.363 140.726 126.097 136.26C126.797 135.72 128.197 134.903 128.475 134.129C127.439 133.619 127.016 133.94 125.703 133.808C123.313 133.509 121.055 132.549 119.181 131.035C118.01 130.107 117.079 128.911 116.468 127.547C116.126 126.68 115.986 125.747 116.059 124.818C115.968 124.185 116.086 123.539 116.398 122.98C116.709 122.421 117.195 121.979 117.781 121.724C117.781 120.95 116.497 120.089 115.184 119.33C110.72 116.805 108.75 113.039 107.452 107.844V107.931ZM293.098 89.4099C294.537 95.4553 294.537 101.754 293.098 107.8C291.814 112.996 289.83 116.761 285.366 119.33C284.067 120.089 282.783 120.95 282.783 121.724C283.37 121.979 283.856 122.421 284.167 122.98C284.478 123.539 284.597 124.185 284.505 124.818C284.571 125.746 284.431 126.678 284.096 127.547C283.485 128.911 282.554 130.107 281.383 131.035C279.504 132.54 277.248 133.499 274.862 133.808C273.519 133.94 273.125 133.619 272.075 134.129C272.352 134.903 273.767 135.72 274.453 136.26C280.201 140.726 279.297 147.484 274.161 150.009C270.762 151.687 269.639 150.549 267.844 149.352C268.533 148.598 269.108 147.748 269.551 146.827C271.01 143.324 267.261 140.858 263.511 143.032C258.274 146.083 262.869 162.006 275.679 154.928C292.937 145.47 297.416 120.06 298 102.546V94.6787C297.416 77.1646 292.937 51.7398 275.679 42.2822C262.869 35.2619 258.274 51.1268 263.511 54.1772C267.261 56.3665 270.952 53.8853 269.551 50.3971C269.112 49.4748 268.536 48.6236 267.844 47.8721C269.639 46.6753 270.762 45.5369 274.161 47.2007C279.297 49.7403 280.201 56.4978 274.453 60.9639C273.767 61.504 272.352 62.3213 272.075 63.0948C273.125 63.5911 273.534 63.27 274.862 63.4159C277.253 63.7084 279.513 64.6696 281.383 66.189C282.557 67.1137 283.489 68.3111 284.096 69.6772C284.433 70.5455 284.572 71.4778 284.505 72.4065C284.597 73.0398 284.478 73.6856 284.167 74.2446C283.856 74.8037 283.37 75.245 282.783 75.5007C282.783 76.2743 284.067 77.1354 285.366 77.8797C289.83 80.5069 291.814 84.2724 293.098 89.4099Z" fill="#EEEEEE"/>
<path d="M93.0062 252.662L93.1233 252.615C101.31 245.634 111.216 242.925 121.505 241.019C125.809 240.239 127.575 241.019 126.13 245.79C123.95 252.974 122.286 260.322 119.997 267.475C117.777 274.227 114.09 280.406 109.201 285.567C104.99 290.119 100.201 294.359 97.7403 300.255C95.3967 305.885 91.639 308.532 85.319 308.43C75.3273 308.266 69.8276 315.723 63.2889 321.658C65.7262 323.782 67.4996 319.698 69.6245 322.298C71.7494 324.898 74.968 324.547 77.921 325.265C86.5143 327.358 94.8654 324.539 103.31 324.766C106.701 324.852 109.24 323.985 112.24 322.423C124.567 316.247 134.52 307.001 145.191 298.599C155.644 290.369 165.776 282.1 172.479 270.372C174.783 266.35 177.541 265.686 179.783 270.184C181.119 272.862 183.22 274.487 185.252 276.337C191.757 282.178 198.243 288.042 204.712 293.93C206.016 295.117 207.344 296.507 206.657 298.365C206.016 300.099 204.165 299.544 202.751 299.724C193.572 300.872 186.908 306.103 185.306 313.342C187.119 315.232 189.165 316.098 191.72 314.904C199.86 315.216 207.883 313.342 216.07 313.849C220.273 314.099 224.703 313.256 227.007 308.821C229.445 304.136 231.695 299.365 234.038 294.633C235.96 290.775 235.984 287.269 234.241 282.99C231.242 275.588 226.984 268.599 225.367 260.994C236.726 257.94 247.585 263.789 258.607 261.072C258.821 261.055 259.036 261.092 259.233 261.178C259.429 261.263 259.602 261.396 259.735 261.564C259.869 261.732 259.959 261.93 259.998 262.141C260.037 262.352 260.023 262.569 259.959 262.774C257.381 275.697 260.271 288.394 261.396 301.176C261.646 303.995 259.42 305.338 256.779 305.533C253.983 305.729 251.162 305.799 248.358 305.76C242.108 305.674 237.366 309.11 232.562 312.295C230.695 313.537 228.656 316.309 232.367 317.23C240.96 319.354 249.452 322.876 258.615 321.392C265.029 320.362 271.474 320.166 277.935 319.831C280.216 319.706 283.216 319.643 284.676 317.098C285.731 315.255 286.856 313.49 288.036 311.78V143.116C285.833 142.89 283.614 142.702 281.372 142.57C265.584 141.594 250.303 146.771 234.78 149.121C222.773 150.94 211.243 150.612 199.954 144.038C180.135 132.481 159.433 132.903 139.316 143.663C129.161 149.082 119.856 155.953 109.115 160.35C99.9668 164.09 91.0531 168.33 83.9441 175.522C82.452 177.029 81.038 177.739 79.1865 175.522C74.8664 170.352 71.3197 172.992 68.3667 177.154C62.9764 184.767 62.8983 185.017 55.5783 180.355C52.2269 178.223 50.4223 179.34 48.7974 182.089C47.1725 184.837 46.1256 187.656 46.4538 190.678C46.6416 192.166 46.3075 193.672 45.5085 194.941C43.6102 196.159 41.3525 197.456 39.1104 198.682C35.3215 200.759 25.9626 204.928 25.1892 209.418C24.9704 210.683 25.6188 211.589 25.486 213.002C25.3298 214.611 24.6111 214.994 23.3846 215.962C20.9238 217.914 19.4785 217.789 17.0411 219.32C15.0959 220.553 13.9163 221.928 12.6351 222.552C8.30718 224.52 5.18233 225.535 2.54965 226.73C-0.333023 228.042 -0.458014 229.689 0.635682 231.743C2.04186 234.382 6.71351 236.366 6.10416 237.06C5.6621 237.456 5.28279 237.917 4.97922 238.427C4.68109 238.995 4.59259 239.65 4.72924 240.278C5.76044 243.253 10.7602 244.963 13.721 245.556C14.1799 245.652 14.6443 245.72 15.1115 245.759C11.8851 247.251 10.7524 247.321 10.8071 249.406C10.8461 250.71 11.1274 250.53 12.5648 250.905C13.1898 251.069 13.6975 251.764 14.5256 252.287C17.9786 254.466 28.0406 253.63 31.9779 254.848C34.6731 255.676 40.5712 258.792 41.6493 261.345C42.0557 260.962 42.3616 260.484 42.5399 259.955C43.038 260.7 43.3833 261.536 43.5555 262.415C43.6805 262.259 45.5944 258.659 46.2819 259.596C47.0631 260.697 47.2037 260.775 47.2506 262.126C49.063 261.587 50.3364 261.204 51.3207 259.479C51.6254 258.94 51.8363 258.534 51.8363 258.534C52.2453 259.599 52.8826 260.561 53.7034 261.353C53.7034 261.353 53.4846 260.142 54.0315 259.791C54.5494 259.436 55.1543 259.228 55.7814 259.19C56.4064 259.19 59.539 259.088 59.9687 259.135C60.3984 259.182 62.0936 259.541 62.8514 259.604C64.3145 259.788 65.767 260.048 67.2027 260.384C68.3599 260.658 69.4327 261.21 70.3276 261.993C71.4916 262.993 72.9056 264.484 73.5227 265.046C74.1399 265.608 74.304 266.038 74.8274 266.311C75.3508 266.584 86.6705 256.262 92.3421 248.437C92.5999 249.999 92.8265 251.405 92.9905 252.623" fill="#EFEFEF"/>
</svg>
