<svg width="102" height="142" viewBox="0 0 102 142" fill="none" xmlns="http://www.w3.org/2000/svg">
<path d="M128.379 22.6065C127.049 21.2507 125.566 20.0515 123.958 19.0328C124.729 19.174 125.507 19.2651 126.29 19.3057C127.144 19.3523 128.001 19.3523 128.856 19.3057C130.189 19.146 131.45 18.6204 132.497 17.7884C135.736 14.8403 134.049 11.799 134.023 9.86246C135.429 10.8463 136.739 11.9605 137.933 13.1899C139.152 14.3828 140.257 15.6862 141.231 17.083C139.276 17.043 136.226 15.346 133.216 18.5271C132.373 19.5618 131.835 20.8081 131.664 22.1273C131.617 22.9741 131.617 23.8227 131.664 24.6695C131.699 25.4464 131.786 26.2202 131.926 26.9853C130.915 25.3951 129.725 23.9239 128.379 22.5998V22.6065ZM107.075 43.5093C106.403 39.9157 109.897 38.6779 111.22 36.921C109.914 36.8011 108.69 36.234 107.76 35.3172C107.323 34.8605 106.991 34.3157 106.786 33.7201C105.563 29.4011 110.145 26.6127 111.764 29.0617C111.892 29.2491 111.987 29.4559 112.047 29.6739C112.129 30.0123 112.141 30.3638 112.082 30.707C112.023 31.0502 111.895 31.3779 111.704 31.6704C111.032 32.6153 109.688 32.3758 109.312 32.3691C109.218 33.374 108.936 34.5386 111.234 34.8447C114.324 35.2573 116.749 31.6371 115.809 28.5892C115.641 28.0435 115.191 27.4911 115.063 27.0186C116.494 27.0652 118.51 27.937 121.365 27.0186C122.611 26.6103 123.769 25.9737 124.778 25.142C125.153 24.9114 125.441 24.5653 125.598 24.157C121.567 22.9192 118.207 21.8478 114.848 22.3403C111.321 22.8527 108.97 24.6628 106.652 27.2116C106.652 25.335 106.719 24.2768 107.465 23.1122C107.826 22.581 108.31 22.1427 108.877 21.8337C109.444 21.5247 110.076 21.3539 110.723 21.3354C109.843 17.4423 106.954 20.9428 107.364 19.2724C107.901 17.0364 107.444 16.9366 106.497 15.1331C112.544 15.1797 120.438 18.0279 124.832 22.2538C125.564 22.9592 126.175 23.5315 126.8 24.1105C127.378 24.7094 127.956 25.3416 128.655 26.1069C132.88 30.4991 135.695 38.3585 135.695 44.3279C133.881 43.3762 133.787 42.9237 131.523 43.4361C129.83 43.8221 133.391 40.9871 129.467 40.1087C129.444 40.7492 129.266 41.3749 128.949 41.9339C128.633 42.4929 128.186 42.9691 127.647 43.323C126.464 44.055 125.396 44.0949 123.501 44.0949C126.095 41.819 127.942 39.5031 128.487 36.016C129.011 32.6885 127.956 29.3279 126.74 25.3283C126.329 25.4896 125.979 25.7733 125.739 26.1402C124.89 27.1302 124.238 28.2706 123.817 29.5009C122.863 32.3225 123.723 34.3256 123.757 35.7431C123.287 35.6167 122.729 35.1642 122.178 34.9911C119.108 34.0328 115.46 36.4086 115.829 39.4765C116.118 41.7524 117.294 41.4729 118.308 41.3997C118.308 41.0004 118.08 39.6828 119.034 39.0306C119.42 38.7615 119.879 38.6137 120.351 38.6066C120.823 38.5995 121.287 38.7333 121.681 38.9907C124.16 40.6477 121.311 45.1331 116.978 43.8886C116.379 43.6785 115.832 43.3451 115.372 42.9104C114.458 41.9796 113.898 40.7637 113.787 39.4698C111.973 40.7675 110.696 44.1881 107.075 43.5093ZM83.6209 22.6065C84.9474 21.2471 86.4313 20.0476 88.0417 19.0328C87.2713 19.1735 86.4926 19.2647 85.7104 19.3057C84.8555 19.3523 83.9988 19.3523 83.1439 19.3057C81.8087 19.1472 80.545 18.6216 79.4958 17.7884C76.2575 14.8403 77.9439 11.799 77.9707 9.86246C76.568 10.849 75.2612 11.963 74.0673 13.1899C72.8442 14.3816 71.7375 15.6851 70.7619 17.083C72.7169 17.043 75.7671 15.346 78.7769 18.5271C79.6118 19.5668 80.1397 20.8152 80.302 22.134C80.346 22.9808 80.346 23.8293 80.302 24.6761C80.2612 25.4526 80.1737 26.2259 80.04 26.992C81.056 25.3962 82.2579 23.9243 83.6209 22.6065ZM98.2738 14.0816C99.678 13.7023 99.3555 14.2147 99.94 13.1566C100.524 12.0985 101.109 11.0071 101.741 9.94232C102.063 9.40327 102.312 8.9574 102.661 8.41836C103.322 7.38391 104.071 6.40661 104.898 5.49689C105.208 5.21129 105.588 5.01159 106 4.91792C106.41 5.01179 106.788 5.21154 107.095 5.49689C107.923 6.40661 108.671 7.38391 109.332 8.41836C109.688 8.9574 109.93 9.40327 110.253 9.94232C110.891 11.0071 111.476 12.0985 112.06 13.1566C112.645 14.2147 112.315 13.7023 113.726 14.0816C114.398 14.268 115.97 15.0532 116.595 15.1131C116.474 14.6606 109.373 3.40727 106.067 2.95474H105.926C102.621 3.40727 95.5193 14.6606 95.405 15.1131C96.0299 15.0532 97.602 14.268 98.2738 14.0816ZM102.137 13.516C102.772 13.4573 103.402 13.346 104.018 13.1832C104.673 13.0717 105.336 13.0027 106 12.9769C106.662 13.0028 107.322 13.0717 107.975 13.1832C108.592 13.346 109.221 13.4573 109.856 13.516L108.963 11.8456C107.512 9.31011 106.799 7.75288 106.107 7.42679V7.3669C106.072 7.36054 106.036 7.36054 106 7.3669C105.962 7.36057 105.924 7.36057 105.886 7.3669V7.42679C105.214 7.75288 104.488 9.31011 103.037 11.8456L102.137 13.516ZM106 36.2888L104.804 37.9126L106 40.4681L107.189 37.9126L106 36.2888ZM104.925 43.5093C105.597 39.9157 102.097 38.6779 100.78 36.921C102.086 36.8 103.309 36.233 104.24 35.3172C104.674 34.8587 105.006 34.3145 105.214 33.7201C106.43 29.4011 101.855 26.6127 100.229 29.0617C100.104 29.2506 100.009 29.457 99.9467 29.6739C99.8658 30.0124 99.8545 30.3636 99.9133 30.7066C99.9722 31.0496 100.1 31.3773 100.289 31.6704C100.961 32.6153 102.305 32.3758 102.688 32.3691C102.775 33.374 103.057 34.5386 100.766 34.8447C97.6759 35.2573 95.2438 31.6371 96.1911 28.5892C96.3591 28.0435 96.8092 27.4911 96.9301 27.0186C95.5058 27.0652 93.4903 27.937 90.6282 27.0186C89.3841 26.6101 88.2286 25.9735 87.222 25.142C86.8468 24.9102 86.557 24.5648 86.3956 24.157C90.4267 22.9192 93.7859 21.8478 97.1451 22.3403C100.666 22.8527 103.024 24.6628 105.342 27.2116C105.342 25.335 105.274 24.2768 104.522 23.1122C104.163 22.5795 103.681 22.14 103.115 21.8308C102.549 21.5216 101.916 21.3517 101.27 21.3354C102.15 17.4423 105.039 20.9428 104.629 19.2724C104.092 17.0364 104.549 16.9366 105.489 15.1331C99.4428 15.1797 91.5554 18.0279 87.1548 22.2538C86.4292 22.9592 85.8111 23.5315 85.193 24.1105C84.622 24.7094 84.0442 25.3416 83.3388 26.1069C79.1129 30.4991 76.3046 38.3585 76.3046 44.3279C78.1118 43.3762 78.2126 42.9237 80.47 43.4361C82.163 43.8221 78.609 40.9871 82.5325 40.1087C82.555 40.7487 82.7313 41.3743 83.0468 41.9333C83.3623 42.4923 83.8079 42.9687 84.3465 43.323C85.529 44.055 86.5972 44.0949 88.4985 44.0949C85.8985 41.819 84.0509 39.5031 83.5067 36.016C82.9894 32.6885 84.0375 29.3279 85.2535 25.3283C85.6662 25.486 86.0171 25.7705 86.2546 26.1402C87.1032 27.1315 87.7572 28.2714 88.1827 29.5009C89.1368 32.3225 88.2701 34.3256 88.2365 35.7431C88.7135 35.6167 89.2711 35.1642 89.822 34.9911C92.8856 34.0328 96.5405 36.4086 96.1709 39.4765C95.8821 41.7524 94.7063 41.4729 93.6851 41.3997C93.6851 41.0004 93.9203 39.6828 92.9663 39.0306C92.6688 38.8468 92.3375 38.7233 91.9915 38.6673C91.6455 38.6113 91.2917 38.624 90.9507 38.7045C90.7351 38.7728 90.5296 38.8691 90.3394 38.9907C87.8535 40.6477 90.7022 45.1331 95.0423 43.8886C95.6424 43.6745 96.1897 43.3365 96.648 42.8971C97.5645 41.9678 98.1252 40.7511 98.2335 39.4565C100.007 40.7675 101.297 44.1881 104.925 43.5093ZM101.835 2.24933C104.566 1.54823 107.434 1.54823 110.165 2.24933C112.55 2.85492 114.27 3.77329 115.439 5.81632C115.782 6.41525 116.172 7.00754 116.534 7.00754C116.655 6.74136 116.86 6.52165 117.118 6.38218C117.377 6.24271 117.675 6.1912 117.966 6.23558C118.392 6.20891 118.819 6.27713 119.215 6.43522C119.851 6.71593 120.407 7.14799 120.834 7.69299C121.523 8.5521 121.956 9.58468 122.084 10.6744C122.144 11.2866 121.99 11.4663 122.218 11.9454C122.574 11.819 122.957 11.1801 123.213 10.8673C125.289 8.26531 128.399 8.70452 129.541 11.0603C130.294 12.6109 129.77 13.1167 129.212 13.9286C128.865 13.6163 128.476 13.3521 128.057 13.1433C126.451 12.4778 125.302 14.1615 126.29 15.8851C127.674 18.2875 135.024 16.2511 131.812 10.3815C127.526 2.47559 115.842 0.332742 107.78 0H106.067H105.973H104.253C96.1911 0.332742 84.5145 2.47559 80.2281 10.3815C77.0436 16.2511 84.3667 18.2875 85.744 15.8851C86.7383 14.1615 85.5827 12.4911 83.9837 13.1433C83.5635 13.3505 83.1746 13.6148 82.8282 13.9286C82.2705 13.1167 81.7398 12.5976 82.4922 11.0603C83.6411 8.70452 86.745 8.26531 88.8277 10.8673C89.0763 11.1801 89.4592 11.819 89.8153 11.9454C90.0437 11.4663 89.8959 11.2799 89.9497 10.6744C90.0769 9.58326 90.5124 8.54988 91.206 7.69299C91.624 7.15173 92.1711 6.72181 92.7983 6.44188C93.1969 6.28367 93.6261 6.21546 94.0546 6.24223C94.3456 6.19785 94.6432 6.24936 94.9018 6.38883C95.1603 6.5283 95.3655 6.74801 95.4857 7.01419C95.8417 7.01419 96.2314 6.42192 96.5741 5.82298C97.7229 3.77995 99.4495 2.83496 101.835 2.25599V2.24933ZM136.831 52.8261C137.207 51.4286 136.696 51.748 137.758 51.169C138.82 50.5901 139.915 49.9911 140.983 49.3523C141.527 49.0262 141.977 48.7866 142.515 48.4272C143.553 47.7645 144.532 47.0166 145.444 46.1912C145.628 46.0528 145.777 45.8741 145.879 45.6692C145.982 45.4643 146.035 45.2387 146.035 45.01C146.035 44.7813 145.982 44.5557 145.879 44.3507C145.777 44.1458 145.628 43.9672 145.444 43.8287C144.534 42.9991 143.554 42.2488 142.515 41.5861C141.977 41.2334 141.527 40.9871 140.983 40.661C139.915 39.9956 138.82 39.4365 137.758 38.8509C136.696 38.2653 137.207 38.5914 136.831 37.1939C136.656 36.5284 135.87 34.9645 135.816 34.3389C136.28 34.4654 147.91 41.8057 148.017 44.9867C147.91 48.1943 136.28 55.5346 135.816 55.6344C135.87 55.0288 136.656 53.4649 136.831 52.7995V52.8261ZM137.375 48.9929C137.426 48.3613 137.534 47.7355 137.698 47.1229C137.948 45.723 137.948 44.2903 137.698 42.8904C137.534 42.28 137.427 41.6564 137.375 41.0271L139.055 41.9321C141.87 43.5426 143.489 44.248 143.549 45.0066C143.489 45.7719 141.87 46.4774 139.055 48.0878L137.375 48.9929ZM115.09 45C114.929 45.2063 114.969 45.0798 114.546 45.2662C113.511 45.7121 113.417 46.0847 112.725 46.5439C112.228 46.4308 110.965 45.7054 110.038 45.346C109.662 45.1996 109.258 45.1464 108.956 45C109.258 44.8602 109.662 44.8003 110.038 44.6539C110.965 44.3012 112.228 43.5759 112.725 43.4627C113.397 43.9219 113.511 44.2946 114.546 44.7405C114.969 44.9002 114.929 44.7604 115.09 44.98V45ZM128.379 67.3869C127.049 68.7426 125.566 69.9418 123.958 70.9605C124.729 70.8201 125.507 70.7267 126.29 70.681C127.145 70.6376 128.001 70.6376 128.856 70.681C130.188 70.8415 131.448 71.3644 132.497 72.1917C135.736 75.1464 134.049 78.181 134.023 80.1176C134.352 80.0311 136.159 78.5071 137.933 76.7901C139.156 75.6003 140.26 74.2966 141.231 72.8971C139.276 72.9436 136.226 74.634 133.216 71.453C132.37 70.4197 131.833 69.1727 131.664 67.8527C131.617 67.006 131.617 66.1573 131.664 65.3106C131.698 64.5358 131.786 63.7643 131.926 63.0013C130.913 64.5901 129.724 66.0612 128.379 67.3869ZM107.075 46.484C106.403 50.0776 109.897 51.3154 111.22 53.0723C109.915 53.1926 108.693 53.757 107.76 54.6695C107.323 55.1287 106.991 55.6756 106.786 56.2733C105.563 60.5923 110.145 63.3806 111.764 60.9317C111.89 60.7435 111.986 60.5369 112.047 60.3194C112.128 59.981 112.14 59.6296 112.081 59.2865C112.022 58.9435 111.894 58.6157 111.704 58.323C111.032 57.3846 109.688 57.6242 109.312 57.6242C109.218 56.6193 108.936 55.4547 111.234 55.1553C114.324 54.7427 116.749 58.3562 115.809 61.4042C115.641 61.9499 115.191 62.5089 115.063 62.9747C116.494 62.9348 118.51 62.063 121.365 62.9747C122.612 63.3855 123.769 64.0243 124.778 64.858C125.152 65.0869 125.439 65.4304 125.598 65.8363C121.567 67.0741 118.207 68.1455 114.848 67.6597C111.321 67.1473 108.97 65.3372 106.652 62.7817C106.652 64.665 106.719 65.7232 107.465 66.8877C107.826 67.419 108.31 67.8573 108.877 68.1663C109.444 68.4753 110.076 68.6461 110.723 68.6646C109.843 72.5577 106.954 69.0572 107.364 70.7276C107.901 72.9636 107.444 73.0634 106.497 74.8669C112.544 74.8137 120.438 71.9654 124.832 67.7396C125.564 67.0408 126.175 66.4618 126.8 65.8895C127.378 65.2839 127.956 64.6517 128.655 63.8931C132.88 59.5075 135.695 51.6415 135.695 45.6788C133.881 46.6304 133.787 47.083 131.523 46.5639C129.83 46.1846 133.391 49.0129 129.467 49.8913C129.446 49.2512 129.269 48.6256 128.952 48.0673C128.636 47.5091 128.188 47.0345 127.647 46.6837C126.464 45.9516 125.396 45.9051 123.501 45.9051C126.095 48.181 127.942 50.5035 128.487 53.984C129.011 57.3114 127.956 60.6721 126.74 64.6717C126.328 64.5153 125.978 64.2333 125.739 63.8665C124.895 62.8854 124.243 61.757 123.817 60.539C122.863 57.7107 123.723 55.7076 123.757 54.2968C123.287 54.4232 122.729 54.8691 122.178 55.0421C119.108 56.0004 115.46 53.6247 115.829 50.5634C116.118 48.2875 117.294 48.567 118.308 48.6402C118.308 49.0328 118.08 50.3505 119.034 51.0027C119.33 51.1889 119.661 51.3139 120.008 51.3699C120.354 51.426 120.708 51.412 121.049 51.3287C121.268 51.2632 121.476 51.1668 121.667 51.0426C124.146 49.3922 121.298 44.9068 116.964 46.1446C116.367 46.3575 115.82 46.6905 115.359 47.1229C114.443 48.0554 113.883 49.2738 113.773 50.5701C111.973 49.2125 110.696 45.7786 107.075 46.4574V46.484ZM75.149 52.7995C74.7728 51.4019 75.2901 51.7214 74.2286 51.1424C73.1671 50.5634 72.0652 49.9645 70.997 49.3256C70.4528 48.9995 70.0094 48.76 69.4719 48.4006C68.4318 47.738 67.4497 46.99 66.536 46.1646C66.3545 46.0246 66.2077 45.8454 66.1068 45.6407C66.0058 45.436 65.9533 45.2112 65.9533 44.9834C65.9533 44.7555 66.0058 44.5307 66.1068 44.326C66.2077 44.1213 66.3545 43.9421 66.536 43.8021C67.4479 42.9725 68.4302 42.2222 69.4719 41.5594C70.0094 41.2067 70.4528 40.9605 70.997 40.6344C72.0652 39.9689 73.1671 39.4099 74.2286 38.8243C75.2901 38.2387 74.7728 38.5648 75.149 37.1672C75.3304 36.5018 76.1097 34.9379 76.1635 34.3123C75.6999 34.4388 64.0703 41.7791 63.9695 44.9601C64.0703 48.1677 75.6999 55.508 76.1635 55.6078C76.1232 55.0288 75.3438 53.4649 75.149 52.7995ZM74.6115 48.9663C74.5571 48.3351 74.4492 47.7096 74.289 47.0963C74.0293 45.6972 74.0293 44.2629 74.289 42.8638C74.449 42.2527 74.5569 41.6294 74.6115 41.0004L72.9252 41.9055C70.1102 43.516 68.4978 44.2214 68.4306 44.98C68.4978 45.7453 70.1102 46.4508 72.9252 48.0612L74.6115 48.9663ZM96.8898 44.9734C97.0511 45.1797 97.0175 45.0532 97.4407 45.2396C98.4687 45.6854 98.5694 46.0581 99.2614 46.5173C99.7519 46.4042 101.022 45.6788 101.949 45.3194C102.332 45.173 102.728 45.1198 103.03 44.9734C102.728 44.8336 102.359 44.7737 101.949 44.6273C101.028 44.2746 99.7586 43.5492 99.2614 43.4361C98.5896 43.8953 98.4687 44.268 97.4407 44.7138C97.0309 44.9002 97.0645 44.7604 96.9033 44.98L96.8898 44.9734ZM83.6209 67.3869C84.9474 68.7462 86.4313 69.9457 88.0417 70.9605C87.271 70.8205 86.4925 70.7271 85.7104 70.681C84.8554 70.6376 83.9988 70.6376 83.1439 70.681C81.8102 70.8403 80.5472 71.3633 79.4958 72.1917C76.2575 75.1464 77.9439 78.181 77.9707 80.1176C76.5671 79.1322 75.2602 78.0181 74.0673 76.7901C72.8408 75.6016 71.7338 74.2977 70.7619 72.8971C72.7169 72.9436 75.7671 74.634 78.7769 71.453C79.6252 70.4203 80.1651 69.1732 80.3356 67.8527C80.3796 67.0059 80.3796 66.1574 80.3356 65.3106C80.2948 64.5363 80.2073 63.7652 80.0736 63.0013C81.0811 64.594 82.2715 66.0656 83.6209 67.3869ZM98.2738 75.9051C99.678 76.291 99.3555 75.7786 99.94 76.8367C100.524 77.8949 101.109 78.9862 101.741 80.0443C102.063 80.59 102.312 81.0359 102.661 81.5683C103.321 82.6039 104.069 83.5814 104.898 84.4898C105.207 84.7773 105.587 84.9792 106 85.0754C106.411 84.9793 106.789 84.7773 107.095 84.4898C107.924 83.5814 108.673 82.6039 109.332 81.5683C109.688 81.0359 109.93 80.59 110.253 80.0443C110.891 78.9862 111.476 77.8949 112.06 76.8367C112.645 75.7786 112.315 76.291 113.726 75.9051C114.398 75.7254 115.97 74.9334 116.595 74.8802C116.474 75.3327 109.373 86.5794 106.067 87.0319H105.926C102.621 86.5794 95.5193 75.3327 95.405 74.8802C96.0299 74.9068 97.602 75.6987 98.2738 75.8784V75.9051ZM102.137 76.4774C102.772 76.536 103.402 76.6473 104.018 76.8101C104.674 76.9184 105.336 76.9873 106 77.0164C106.662 76.9872 107.322 76.9183 107.975 76.8101C108.592 76.6473 109.221 76.536 109.856 76.4774L108.963 78.1477C107.512 80.6832 106.799 82.2404 106.107 82.5665V82.6264H106H105.886V82.5665C105.214 82.2404 104.488 80.6832 103.037 78.1477L102.137 76.4774ZM106 53.7045L104.804 52.0807L106 49.5319L107.189 52.0807L106 53.7045ZM104.925 46.484C105.597 50.0776 102.097 51.3154 100.78 53.0723C102.085 53.1937 103.307 53.7579 104.24 54.6695C104.675 55.1304 105.007 55.6769 105.214 56.2733C106.43 60.5923 101.855 63.3806 100.229 60.9317C100.106 60.7421 100.011 60.5359 99.9467 60.3194C99.8666 59.9808 99.8556 59.6298 99.9145 59.2869C99.9733 58.9441 100.101 58.6163 100.289 58.323C100.961 57.3846 102.305 57.6242 102.688 57.6242C102.775 56.6193 103.057 55.4547 100.766 55.1553C97.6759 54.7427 95.2438 58.3562 96.1911 61.4042C96.3591 61.9499 96.8092 62.5089 96.9301 62.9747C95.5058 62.9348 93.4903 62.063 90.6282 62.9747C89.3837 63.3855 88.2283 64.0244 87.222 64.858C86.846 65.0858 86.5557 65.4295 86.3956 65.8363C90.4267 67.0741 93.7859 68.1455 97.1451 67.6597C100.666 67.1473 103.024 65.3372 105.342 62.7817C105.342 64.665 105.274 65.7232 104.522 66.8877C104.163 67.4204 103.681 67.8599 103.115 68.1692C102.549 68.4784 101.916 68.6483 101.27 68.6646C102.15 72.5577 105.039 69.0572 104.629 70.7276C104.092 72.9636 104.549 73.0634 105.489 74.8669C99.4428 74.8137 91.5554 71.9654 87.1548 67.7396C86.4292 67.0408 85.8111 66.4618 85.193 65.8895C84.622 65.2839 84.0442 64.6517 83.3388 63.8931C79.1129 59.5075 76.3046 51.6415 76.3046 45.6788C78.1118 46.6304 78.2126 47.083 80.47 46.5639C82.163 46.1846 78.609 49.0129 82.5325 49.8913C82.5533 49.2518 82.729 48.6266 83.0446 48.0684C83.3603 47.5101 83.8068 47.0352 84.3465 46.6837C85.529 45.9516 86.5972 45.9051 88.4985 45.9051C85.8985 48.181 84.0509 50.5035 83.5067 53.984C82.9894 57.3114 84.0375 60.6721 85.2535 64.6717C85.6672 64.5191 86.0189 64.2362 86.2546 63.8665C87.0982 62.8841 87.7519 61.7561 88.1827 60.539C89.1368 57.7107 88.2701 55.7076 88.2365 54.2968C88.7135 54.4232 89.2711 54.8691 89.822 55.0421C92.8856 56.0004 96.5405 53.6247 96.1709 50.5634C95.8821 48.2875 94.7063 48.567 93.6851 48.6402C93.6851 49.0328 93.9203 50.3505 92.9663 51.0027C92.6696 51.1882 92.3383 51.3128 91.992 51.3688C91.6457 51.4248 91.2916 51.4112 90.9507 51.3287C90.734 51.2632 90.5281 51.1668 90.3394 51.0426C87.8535 49.3922 90.7022 44.9068 95.0423 46.1446C95.6399 46.3575 96.1866 46.6905 96.648 47.1229C97.5659 48.0538 98.1267 49.2731 98.2335 50.5701C100.007 49.2125 101.297 45.7786 104.925 46.4574V46.484ZM101.835 87.744C104.565 88.454 107.435 88.454 110.165 87.744C112.55 87.1384 114.27 86.22 115.439 84.177C115.782 83.5781 116.172 82.9924 116.534 82.9858C116.655 83.252 116.86 83.4717 117.118 83.6111C117.377 83.7506 117.675 83.8021 117.966 83.7578C118.392 83.7898 118.819 83.7238 119.215 83.5648C119.84 83.2787 120.388 82.8499 120.814 82.3137C121.503 81.4521 121.936 80.4174 122.064 79.3256C122.124 78.7134 121.97 78.5404 122.198 78.0546C122.554 78.181 122.937 78.8199 123.192 79.1326C125.268 81.7347 128.379 81.3021 129.521 78.9463C130.274 77.3957 129.75 76.8833 129.192 76.0714C128.846 76.388 128.457 76.6547 128.036 76.8633C126.431 77.5288 125.282 75.8385 126.269 74.1216C127.653 71.7192 135.003 73.7555 131.792 79.6251C127.506 87.5244 115.822 89.6739 107.76 90H106.047H105.953H104.233C96.1709 89.6739 84.4943 87.5244 80.208 79.6251C77.0234 73.7555 84.3465 71.7192 85.7238 74.1216C86.7181 75.8385 85.5626 77.5089 83.9636 76.8633C83.5395 76.6461 83.1501 76.368 82.808 76.0381C82.2504 76.85 81.7196 77.3691 82.4721 78.913C83.6209 81.2689 86.7248 81.7014 88.8076 79.0994C89.0561 78.7866 89.4391 78.1477 89.7952 78.0213C90.0236 78.5071 89.8758 78.6868 89.9295 79.2924C90.057 80.3854 90.4923 81.4209 91.1859 82.2804C91.6075 82.818 92.1537 83.2472 92.7781 83.5315C93.1765 83.6903 93.6063 83.7564 94.0345 83.7245C94.3255 83.7688 94.6231 83.7173 94.8816 83.5779C95.1402 83.4384 95.3453 83.2187 95.4655 82.9525C95.8216 82.9525 96.2113 83.5448 96.5539 84.1437C97.7229 86.1801 99.4495 87.0985 101.835 87.7041V87.744ZM63.2507 49.2125C62.5878 46.456 62.5878 43.5839 63.2507 40.8274C63.8486 38.4649 64.7556 36.748 66.8114 35.5701C67.4161 35.2307 68.0073 34.8381 68.0073 34.4854C67.7373 34.3688 67.5135 34.1675 67.3703 33.9126C67.227 33.6577 67.1723 33.3633 67.2145 33.0745C67.1802 32.6509 67.2446 32.2252 67.4027 31.8301C67.6824 31.2072 68.1114 30.6612 68.6523 30.2396C69.5118 29.5442 70.5535 29.1057 71.6554 28.9751C72.2735 28.9086 72.4549 29.055 72.9319 28.8287C72.8043 28.476 72.1593 28.1034 71.8368 27.8571C69.1965 25.8208 69.6063 22.7396 71.9779 21.5816C73.5366 20.823 74.0539 21.3421 74.8803 21.8878C74.5636 22.232 74.2988 22.6198 74.0942 23.039C73.4224 24.6295 75.149 25.7609 76.8756 24.7626C79.2875 23.3718 77.1712 16.1114 71.2725 19.3389C63.3313 23.6513 61.262 35.2373 61 43.2298V46.7569C61.262 54.7427 63.3313 66.3287 71.2725 70.6411C77.1712 73.842 79.2875 66.6082 76.8756 65.2174C75.149 64.2258 73.4492 65.3505 74.0942 66.9476C74.3005 67.366 74.5651 67.7535 74.8803 68.0989C74.0539 68.6446 73.5366 69.1637 71.9779 68.3984C69.6063 67.2471 69.1965 64.1659 71.8368 62.1295C72.1593 61.8833 72.8043 61.5106 72.9319 61.1579C72.4549 60.925 72.2601 61.0714 71.6554 61.0115C70.5551 60.875 69.5151 60.4371 68.6523 59.7471C68.1129 59.324 67.6843 58.7784 67.4027 58.1566C67.245 57.7614 67.1807 57.3357 67.2145 56.9121C67.1723 56.6234 67.227 56.329 67.3703 56.0741C67.5135 55.8191 67.7373 55.6179 68.0073 55.5013C68.0073 55.1486 67.4161 54.756 66.8114 54.4099C64.7556 53.2586 63.8486 51.5417 63.2507 49.1726V49.2125ZM148.743 40.7675C149.405 43.524 149.405 46.3961 148.743 49.1526C148.151 51.5217 147.238 53.2387 145.182 54.4099C144.584 54.756 143.993 55.1486 143.993 55.5013C144.263 55.6179 144.486 55.8191 144.63 56.0741C144.773 56.329 144.828 56.6234 144.785 56.9121C144.816 57.3356 144.752 57.7605 144.597 58.1566C144.316 58.7784 143.887 59.324 143.348 59.7471C142.483 60.4332 141.444 60.8706 140.345 61.0115C139.726 61.0714 139.545 60.925 139.061 61.1579C139.189 61.5106 139.841 61.8833 140.156 62.1295C142.804 64.1659 142.387 67.2471 140.022 68.3984C138.457 69.1637 137.939 68.6446 137.113 68.0989C137.43 67.7552 137.695 67.3673 137.899 66.9476C138.571 65.3505 136.844 64.2258 135.118 65.2174C132.706 66.6082 134.822 73.8687 140.721 70.6411C148.669 66.3287 150.731 54.7427 151 46.7569V43.1699C150.731 35.1841 148.669 23.5914 140.721 19.2791C134.822 16.0781 132.706 23.3119 135.118 24.7027C136.844 25.701 138.544 24.5697 137.899 22.9791C137.697 22.5586 137.432 22.1705 137.113 21.8279C137.939 21.2822 138.457 20.7631 140.022 21.5217C142.387 22.6797 142.804 25.7609 140.156 27.7972C139.841 28.0435 139.189 28.4161 139.061 28.7689C139.545 28.9951 139.733 28.8487 140.345 28.9153C141.446 29.0486 142.487 29.4869 143.348 30.1797C143.889 30.6013 144.318 31.1472 144.597 31.7702C144.752 32.1661 144.817 32.5911 144.785 33.0146C144.828 33.3034 144.773 33.5978 144.63 33.8527C144.486 34.1076 144.263 34.3089 143.993 34.4255C143.993 34.7782 144.584 35.1708 145.182 35.5102C147.238 36.7081 148.151 38.425 148.743 40.7675Z" fill="#EEEEEE"/>
<path d="M42.9454 108.113L42.9995 108.091C46.7799 104.868 51.3539 103.617 56.1046 102.737C58.0922 102.376 58.9074 102.737 58.2401 104.94C57.2337 108.257 56.4653 111.65 55.4084 114.954C54.3834 118.072 52.681 120.925 50.4232 123.308C48.4789 125.411 46.2677 127.369 45.1314 130.091C44.0493 132.691 42.3142 133.913 39.3959 133.867C34.7823 133.791 32.2428 137.234 29.2235 139.975C30.349 140.956 31.1678 139.07 32.149 140.271C33.1302 141.471 34.6163 141.309 35.9799 141.641C39.9478 142.607 43.804 141.306 47.7034 141.41C49.2689 141.45 50.4413 141.05 51.8264 140.328C57.5187 137.476 62.1143 133.207 67.0417 129.327C71.8682 125.526 76.5468 121.707 79.6418 116.291C80.7059 114.434 81.9793 114.128 83.0146 116.205C83.6314 117.442 84.6018 118.192 85.5396 119.046C88.5433 121.743 91.5385 124.451 94.5253 127.17C95.1277 127.718 95.7409 128.36 95.4235 129.219C95.1277 130.019 94.2728 129.763 93.6198 129.846C89.3813 130.376 86.3044 132.792 85.5649 136.135C86.4018 137.007 87.3469 137.408 88.5264 136.856C92.2852 137 95.9898 136.135 99.7702 136.369C101.711 136.484 103.756 136.095 104.82 134.047C105.946 131.883 106.985 129.68 108.067 127.495C108.954 125.714 108.965 124.094 108.161 122.118C106.775 118.7 104.809 115.473 104.063 111.961C109.308 110.551 114.322 113.252 119.412 111.997C119.51 111.989 119.609 112.006 119.7 112.046C119.791 112.085 119.871 112.147 119.932 112.224C119.994 112.302 120.035 112.393 120.054 112.491C120.072 112.588 120.065 112.688 120.036 112.783C118.845 118.751 120.18 124.614 120.699 130.517C120.815 131.818 119.787 132.439 118.567 132.529C117.276 132.619 115.974 132.651 114.679 132.633C111.793 132.594 109.603 134.18 107.385 135.651C106.523 136.225 105.581 137.505 107.295 137.93C111.263 138.911 115.184 140.537 119.415 139.852C122.377 139.376 125.353 139.286 128.336 139.131C129.389 139.073 130.774 139.045 131.449 137.869C131.936 137.018 132.455 136.203 133 135.413V57.5257C131.983 57.4211 130.958 57.3346 129.923 57.2733C122.633 56.8225 115.577 59.2133 108.409 60.2986C102.865 61.1388 97.5409 60.9874 92.3284 57.9512C83.1769 52.6144 73.6177 52.8092 64.3291 57.7781C59.6397 60.2806 55.3435 63.4538 50.3835 65.4839C46.1595 67.2112 42.0436 69.1692 38.7611 72.4902C38.0721 73.1862 37.4192 73.5143 36.5642 72.4902C34.5694 70.1031 32.9318 71.3219 31.5682 73.2439C29.0792 76.7597 29.0432 76.875 25.6632 74.7223C24.1157 73.7379 23.2824 74.2535 22.5321 75.5228C21.7818 76.7921 21.2984 78.0938 21.4499 79.4893C21.5367 80.1763 21.3824 80.8721 21.0135 81.4581C20.1369 82.0207 19.0944 82.6192 18.0591 83.1854C16.3096 84.1445 11.9882 86.0701 11.6311 88.1435C11.5301 88.7277 11.8295 89.146 11.7681 89.7986C11.696 90.5415 11.3641 90.7181 10.7978 91.1653C9.66151 92.0667 8.99417 92.0091 7.86871 92.7158C6.97051 93.2856 6.42582 93.9202 5.83423 94.2087C3.83583 95.1174 2.39293 95.5861 1.1773 96.1378C-0.153773 96.7436 -0.211487 97.5045 0.293525 98.4528C0.942827 99.6716 3.09995 100.588 2.81859 100.908C2.61446 101.091 2.43932 101.304 2.29915 101.539C2.16148 101.802 2.12062 102.105 2.18372 102.394C2.65987 103.768 4.9685 104.558 6.33564 104.832C6.54753 104.876 6.76197 104.907 6.97773 104.925C5.48794 105.614 4.96489 105.647 4.99014 106.609C5.00818 107.212 5.13804 107.129 5.80177 107.302C6.09035 107.377 6.32482 107.698 6.70718 107.94C8.30158 108.946 12.9477 108.56 14.7657 109.123C16.0102 109.505 18.7337 110.944 19.2315 112.123C19.4192 111.946 19.5604 111.725 19.6427 111.481C19.8727 111.825 20.0322 112.211 20.1117 112.617C20.1694 112.545 21.0532 110.882 21.3706 111.315C21.7313 111.824 21.7962 111.86 21.8179 112.483C22.6548 112.235 23.2427 112.058 23.6972 111.261C23.8379 111.012 23.9353 110.825 23.9353 110.825C24.1242 111.316 24.4184 111.761 24.7975 112.126C24.7975 112.126 24.6964 111.568 24.949 111.405C25.1881 111.241 25.4674 111.145 25.757 111.128C26.0456 111.128 27.4921 111.081 27.6905 111.102C27.8889 111.124 28.6716 111.29 29.0215 111.319C29.6971 111.404 30.3678 111.524 31.0308 111.679C31.5651 111.806 32.0604 112.061 32.4736 112.422C33.0111 112.884 33.664 113.572 33.949 113.832C34.234 114.092 34.3097 114.29 34.5514 114.416C34.7931 114.542 40.02 109.775 42.6388 106.162C42.7579 106.883 42.8625 107.533 42.9382 108.095" fill="#EFEFEF"/>
</svg>